<svg width="400" height="400" viewBox="0 0 400 400" xmlns="http://www.w3.org/2000/svg">
<defs>

        <linearGradient id="loc-canopy" x1="0%" y1="0%" x2="100%" y2="100%">
          <stop offset="0%" stop-color="#006400"/><stop offset="50%" stop-color="#228B22"/><stop offset="100%" stop-color="#32CD32"/>
        </linearGradient>

        <linearGradient id="loc-moss" x1="0%" y1="0%" x2="100%" y2="100%">
          <stop offset="0%" stop-color="#8FBC8F"/><stop offset="50%" stop-color="#9ACD32"/><stop offset="100%" stop-color="#ADFF2F"/>
        </linearGradient>

        <linearGradient id="loc-bark" x1="0%" y1="0%" x2="100%" y2="100%">
          <stop offset="0%" stop-color="#8B4513"/><stop offset="50%" stop-color="#A0522D"/><stop offset="100%" stop-color="#D2691E"/>
        </linearGradient>

        <filter id="loc-shadow">
          <feDropShadow dx="2" dy="2" stdDeviation="3" flood-opacity="0.3"/>
        </filter>
</defs>
<rect width="400" height="400" fill="url(#loc-canopy)"/>
<rect x="182.7172879275499" y="320.88733317241895" width="10" height="116.62541377353601" 
                  fill="#8FBC8F"/>
<circle cx="187.7172879275499" cy="300.88733317241895" r="30" fill="#32CD32"/>
<circle cx="172.7172879275499" cy="310.88733317241895" r="25" fill="#00FF00"/>
<circle cx="202.7172879275499" cy="310.88733317241895" r="25" fill="#00FF00"/>
<rect x="215.1908604128139" y="255.16880880825772" width="10" height="77.75385938520442" 
                  fill="#8FBC8F"/>
<circle cx="220.1908604128139" cy="235.16880880825772" r="30" fill="#32CD32"/>
<circle cx="205.1908604128139" cy="245.16880880825772" r="25" fill="#00FF00"/>
<circle cx="235.1908604128139" cy="245.16880880825772" r="25" fill="#00FF00"/>
<rect x="55.12552965925373" y="349.97498178275896" width="10" height="130.603969381018" 
                  fill="#8FBC8F"/>
<circle cx="60.12552965925373" cy="329.97498178275896" r="30" fill="#32CD32"/>
<circle cx="45.12552965925373" cy="339.97498178275896" r="25" fill="#00FF00"/>
<circle cx="75.12552965925373" cy="339.97498178275896" r="25" fill="#00FF00"/>
<rect x="345.7671836020832" y="285.5583830448556" width="10" height="64.26691532607549" 
                  fill="#8FBC8F"/>
<circle cx="350.7671836020832" cy="265.5583830448556" r="30" fill="#32CD32"/>
<circle cx="335.7671836020832" cy="275.5583830448556" r="25" fill="#00FF00"/>
<circle cx="365.7671836020832" cy="275.5583830448556" r="25" fill="#00FF00"/>
<rect x="90.715921581465" y="267.917578135389" width="10" height="60.37388505040448" 
                  fill="#8FBC8F"/>
<circle cx="95.715921581465" cy="247.91757813538902" r="30" fill="#32CD32"/>
<circle cx="80.715921581465" cy="257.917578135389" r="25" fill="#00FF00"/>
<circle cx="110.715921581465" cy="257.917578135389" r="25" fill="#00FF00"/>
<rect x="190.68032922113449" y="239.94474803096136" width="10" height="83.57630303570328" 
                  fill="#8FBC8F"/>
<circle cx="195.68032922113449" cy="219.94474803096136" r="30" fill="#32CD32"/>
<circle cx="180.68032922113449" cy="229.94474803096136" r="25" fill="#00FF00"/>
<circle cx="210.68032922113449" cy="229.94474803096136" r="25" fill="#00FF00"/>
<rect x="291.33447174374595" y="342.0308175978428" width="10" height="77.5501301919487" 
                  fill="#8FBC8F"/>
<circle cx="296.33447174374595" cy="322.0308175978428" r="30" fill="#32CD32"/>
<circle cx="281.33447174374595" cy="332.0308175978428" r="25" fill="#00FF00"/>
<circle cx="311.33447174374595" cy="332.0308175978428" r="25" fill="#00FF00"/>
<rect x="216.95385615062057" y="203.90943925859042" width="10" height="64.75918264675359" 
                  fill="#8FBC8F"/>
<circle cx="221.95385615062057" cy="183.90943925859042" r="30" fill="#32CD32"/>
<circle cx="206.95385615062057" cy="193.90943925859042" r="25" fill="#00FF00"/>
<circle cx="236.95385615062057" cy="193.90943925859042" r="25" fill="#00FF00"/>
<rect x="138.69038001098033" y="329.95959881244386" width="10" height="86.96293054349042" 
                  fill="#8FBC8F"/>
<circle cx="143.69038001098033" cy="309.95959881244386" r="30" fill="#32CD32"/>
<circle cx="128.69038001098033" cy="319.95959881244386" r="25" fill="#00FF00"/>
<circle cx="158.69038001098033" cy="319.95959881244386" r="25" fill="#00FF00"/>
<rect x="380.9770542923843" y="222.68881555395" width="10" height="112.05149206593202" 
                  fill="#8FBC8F"/>
<circle cx="385.9770542923843" cy="202.68881555395" r="30" fill="#32CD32"/>
<circle cx="370.9770542923843" cy="212.68881555395" r="25" fill="#00FF00"/>
<circle cx="400.9770542923843" cy="212.68881555395" r="25" fill="#00FF00"/>
<rect x="100" y="20" width="200" height="40" 
              fill="#228B22" opacity="0.8"/>
<text x="200" y="45" text-anchor="middle" font-size="20" 
              fill="white">gang</text>
</svg>