<svg width="400" height="400" viewBox="0 0 400 400" xmlns="http://www.w3.org/2000/svg">
<defs>

        <linearGradient id="loc-ocean" x1="0%" y1="0%" x2="100%" y2="100%">
          <stop offset="0%" stop-color="#001F3F"/><stop offset="50%" stop-color="#003D7A"/><stop offset="100%" stop-color="#0066CC"/>
        </linearGradient>

        <linearGradient id="loc-depth" x1="0%" y1="0%" x2="100%" y2="100%">
          <stop offset="0%" stop-color="#000033"/><stop offset="50%" stop-color="#001F3F"/><stop offset="100%" stop-color="#003366"/>
        </linearGradient>

        <linearGradient id="loc-coral" x1="0%" y1="0%" x2="100%" y2="100%">
          <stop offset="0%" stop-color="#FF6B6B"/><stop offset="50%" stop-color="#FF8E53"/><stop offset="100%" stop-color="#FE6B8B"/>
        </linearGradient>

        <filter id="loc-shadow">
          <feDropShadow dx="2" dy="2" stdDeviation="3" flood-opacity="0.3"/>
        </filter>
</defs>
<rect width="400" height="400" fill="url(#loc-ocean)"/>
<ellipse cx="268.6540108906821" cy="326.34206459032686" rx="44.04399163507791" 
                  ry="51.92065473574198" fill="#004C99" 
                  opacity="0.7"/>
<ellipse cx="74.59485211553556" cy="322.7959287201045" rx="40.420353771397586" 
                  ry="42.071879629975456" fill="#004C99" 
                  opacity="0.7"/>
<ellipse cx="4.083866182942808" cy="312.01517363623225" rx="35.7921274758869" 
                  ry="45.55715330756051" fill="#004C99" 
                  opacity="0.7"/>
<ellipse cx="277.64898927474303" cy="250.42054444514238" rx="40.346922469258566" 
                  ry="39.102785159978666" fill="#004C99" 
                  opacity="0.7"/>
<ellipse cx="348.73491689974816" cy="266.54157411147094" rx="33.53162459008604" 
                  ry="32.566236084371255" fill="#004C99" 
                  opacity="0.7"/>
<ellipse cx="347.65781119112205" cy="189.03336715207675" rx="15" ry="8" 
                  fill="#00A3E0" transform="rotate(-4.112427391149554 347.65781119112205 189.03336715207675)"/>
<ellipse cx="53.58152539035848" cy="292.1823985935996" rx="15" ry="8" 
                  fill="#00A3E0" transform="rotate(10.612736508601735 53.58152539035848 292.1823985935996)"/>
<ellipse cx="354.5805913920866" cy="248.08294420130605" rx="15" ry="8" 
                  fill="#00A3E0" transform="rotate(11.124567683087225 354.5805913920866 248.08294420130605)"/>
<ellipse cx="109.35703256921462" cy="121.23949488427483" rx="15" ry="8" 
                  fill="#00A3E0" transform="rotate(-6.662245121751962 109.35703256921462 121.23949488427483)"/>
<ellipse cx="41.21109872112378" cy="201.6604969521146" rx="15" ry="8" 
                  fill="#00A3E0" transform="rotate(0.11985402288698666 41.21109872112378 201.6604969521146)"/>
<ellipse cx="262.22400482250987" cy="63.72483410590589" rx="15" ry="8" 
                  fill="#00A3E0" transform="rotate(10.711378329648667 262.22400482250987 63.72483410590589)"/>
<ellipse cx="167.5465456994846" cy="225.52512217108904" rx="15" ry="8" 
                  fill="#00A3E0" transform="rotate(-9.828197395071548 167.5465456994846 225.52512217108904)"/>
<ellipse cx="226.5033798524918" cy="102.9630268782155" rx="15" ry="8" 
                  fill="#00A3E0" transform="rotate(0.8259638416883615 226.5033798524918 102.9630268782155)"/>
<circle cx="222.81223025961515" cy="330.67330610088385" r="6.204761708247284" fill="white" opacity="0.3"/>
<circle cx="269.1245870348032" cy="12.658093017043903" r="5.606349296185826" fill="white" opacity="0.3"/>
<circle cx="8.14193292272809" cy="262.9209082256855" r="3.8013876334087864" fill="white" opacity="0.3"/>
<circle cx="260.0814018486439" cy="305.1630126349102" r="3.853207489150252" fill="white" opacity="0.3"/>
<circle cx="245.78681008591948" cy="338.58743218998393" r="6.422524365521372" fill="white" opacity="0.3"/>
<circle cx="107.12735621737241" cy="333.9245057367981" r="5.862283426628824" fill="white" opacity="0.3"/>
<circle cx="376.90209769508476" cy="87.44916981062568" r="2.8940499532588393" fill="white" opacity="0.3"/>
<circle cx="397.1961922981877" cy="351.23129845248894" r="6.629465909624495" fill="white" opacity="0.3"/>
<circle cx="30.060487790579415" cy="30.2623714117348" r="3.9610335771413325" fill="white" opacity="0.3"/>
<circle cx="127.13123082981737" cy="220.13519887727705" r="5.331232348433104" fill="white" opacity="0.3"/>
<circle cx="180.8897177988688" cy="70.9762551174523" r="5.734649349049869" fill="white" opacity="0.3"/>
<circle cx="367.54777308177563" cy="11.865917516103242" r="5.358797597129613" fill="white" opacity="0.3"/>
<circle cx="256.2415152080353" cy="210.36799226733262" r="4.807518641662158" fill="white" opacity="0.3"/>
<circle cx="95.46895996146118" cy="268.5915517164299" r="2.884725888496564" fill="white" opacity="0.3"/>
<circle cx="249.3812607955481" cy="266.0362766283362" r="6.262235127100066" fill="white" opacity="0.3"/>
<circle cx="312.9095420661218" cy="213.73880406613517" r="3.7694271217801143" fill="white" opacity="0.3"/>
<circle cx="240.59316137020988" cy="12.253416461353295" r="2.634367909150038" fill="white" opacity="0.3"/>
<circle cx="273.3004348853007" cy="244.34757585617365" r="5.043668068399263" fill="white" opacity="0.3"/>
<circle cx="322.31286991868507" cy="0.23096522070731318" r="2.329261940730648" fill="white" opacity="0.3"/>
<circle cx="180.4532236442139" cy="308.8505577389866" r="2.5231831504924687" fill="white" opacity="0.3"/>
<rect x="100" y="20" width="200" height="40" 
              fill="#0066CC" opacity="0.8"/>
<text x="200" y="45" text-anchor="middle" font-size="20" 
              fill="white">saltwater</text>
</svg>