<svg width="400" height="400" viewBox="0 0 400 400" xmlns="http://www.w3.org/2000/svg">
<defs>

        <linearGradient id="loc-ocean" x1="0%" y1="0%" x2="100%" y2="100%">
          <stop offset="0%" stop-color="#001F3F"/><stop offset="50%" stop-color="#003D7A"/><stop offset="100%" stop-color="#0066CC"/>
        </linearGradient>

        <linearGradient id="loc-depth" x1="0%" y1="0%" x2="100%" y2="100%">
          <stop offset="0%" stop-color="#000033"/><stop offset="50%" stop-color="#001F3F"/><stop offset="100%" stop-color="#003366"/>
        </linearGradient>

        <linearGradient id="loc-coral" x1="0%" y1="0%" x2="100%" y2="100%">
          <stop offset="0%" stop-color="#FF6B6B"/><stop offset="50%" stop-color="#FF8E53"/><stop offset="100%" stop-color="#FE6B8B"/>
        </linearGradient>

        <filter id="loc-shadow">
          <feDropShadow dx="2" dy="2" stdDeviation="3" flood-opacity="0.3"/>
        </filter>
</defs>
<rect width="400" height="400" fill="url(#loc-ocean)"/>
<ellipse cx="61.26376997987926" cy="311.9562711009031" rx="23.002169278589093" 
                  ry="50.12414917708942" fill="#004C99" 
                  opacity="0.7"/>
<ellipse cx="236.83882034879912" cy="316.10885553051924" rx="29.956147377050193" 
                  ry="66.69583277639431" fill="#004C99" 
                  opacity="0.7"/>
<ellipse cx="265.3617903555811" cy="318.7684887559383" rx="29.01248932085175" 
                  ry="49.86722223908207" fill="#004C99" 
                  opacity="0.7"/>
<ellipse cx="325.4563755390267" cy="267.37642898646624" rx="45.31748125002437" 
                  ry="36.195207464693596" fill="#004C99" 
                  opacity="0.7"/>
<ellipse cx="225.787851061389" cy="316.92793501762327" rx="42.89331565758525" 
                  ry="38.28107183907015" fill="#004C99" 
                  opacity="0.7"/>
<ellipse cx="47.68456884176562" cy="100.74753488133757" rx="15" ry="8" 
                  fill="#00A3E0" transform="rotate(-2.8656673860725608 47.68456884176562 100.74753488133757)"/>
<ellipse cx="382.75416943977933" cy="156.80584130129864" rx="15" ry="8" 
                  fill="#00A3E0" transform="rotate(-3.550079561762267 382.75416943977933 156.80584130129864)"/>
<ellipse cx="9.744607782520065" cy="125.38642248060033" rx="15" ry="8" 
                  fill="#00A3E0" transform="rotate(3.3140332184495875 9.744607782520065 125.38642248060033)"/>
<ellipse cx="71.99349142679293" cy="329.55610857099157" rx="15" ry="8" 
                  fill="#00A3E0" transform="rotate(12.981892279583345 71.99349142679293 329.55610857099157)"/>
<ellipse cx="140.47853232083946" cy="152.64166156629813" rx="15" ry="8" 
                  fill="#00A3E0" transform="rotate(9.530041951340966 140.47853232083946 152.64166156629813)"/>
<ellipse cx="217.30675955118724" cy="112.33827240526139" rx="15" ry="8" 
                  fill="#00A3E0" transform="rotate(12.138928236028349 217.30675955118724 112.33827240526139)"/>
<ellipse cx="160.3353359233393" cy="67.16218809768935" rx="15" ry="8" 
                  fill="#00A3E0" transform="rotate(-3.4775374864263533 160.3353359233393 67.16218809768935)"/>
<ellipse cx="216.29318717994192" cy="170.14928665806855" rx="15" ry="8" 
                  fill="#00A3E0" transform="rotate(-9.23452067402145 216.29318717994192 170.14928665806855)"/>
<circle cx="10.042539582786425" cy="58.174708931609764" r="3.0274786311245885" fill="white" opacity="0.3"/>
<circle cx="240.8791801962586" cy="130.05323364143274" r="3.4769098221954895" fill="white" opacity="0.3"/>
<circle cx="228.27227315711315" cy="60.88104237630043" r="6.847431957882906" fill="white" opacity="0.3"/>
<circle cx="67.9689387373111" cy="67.20638139175693" r="2.071470744840963" fill="white" opacity="0.3"/>
<circle cx="295.69762155066013" cy="140.53625602317516" r="6.523295171908421" fill="white" opacity="0.3"/>
<circle cx="324.8872968449124" cy="355.9606454645958" r="2.4056472912810394" fill="white" opacity="0.3"/>
<circle cx="289.79693919854685" cy="252.1047616175452" r="2.6085461541882853" fill="white" opacity="0.3"/>
<circle cx="47.13733798865407" cy="81.13699908122291" r="5.262593473308714" fill="white" opacity="0.3"/>
<circle cx="245.8668250099982" cy="302.4785510785875" r="6.487283661613359" fill="white" opacity="0.3"/>
<circle cx="154.9873007640603" cy="52.46046318060258" r="2.9549137630357936" fill="white" opacity="0.3"/>
<circle cx="41.6720412414322" cy="375.32409922768693" r="5.318418421493317" fill="white" opacity="0.3"/>
<circle cx="148.85220650024843" cy="72.43842351666241" r="5.892441816465404" fill="white" opacity="0.3"/>
<circle cx="42.708918873056234" cy="234.98302893539767" r="5.12238638037385" fill="white" opacity="0.3"/>
<circle cx="14.449024294618429" cy="20.665633327035813" r="4.348862288068941" fill="white" opacity="0.3"/>
<circle cx="203.03735519647654" cy="297.85424602645884" r="5.047930978610639" fill="white" opacity="0.3"/>
<circle cx="302.73341593738644" cy="108.53853687065778" r="6.3254580203190045" fill="white" opacity="0.3"/>
<circle cx="215.56229925892745" cy="79.33876035233492" r="6.210543885485962" fill="white" opacity="0.3"/>
<circle cx="118.74583636931627" cy="12.760380703385099" r="2.4682453446433215" fill="white" opacity="0.3"/>
<circle cx="107.39323411292743" cy="119.20142752056665" r="6.6554004556128055" fill="white" opacity="0.3"/>
<circle cx="233.9351757699338" cy="255.43231230006356" r="5.661867710045269" fill="white" opacity="0.3"/>
<rect x="100" y="20" width="200" height="40" 
              fill="#0066CC" opacity="0.8"/>
<text x="200" y="45" text-anchor="middle" font-size="20" 
              fill="white">gracewater</text>
</svg>