<svg width="400" height="400" viewBox="0 0 400 400" xmlns="http://www.w3.org/2000/svg">
<defs>

        <linearGradient id="loc-ocean" x1="0%" y1="0%" x2="100%" y2="100%">
          <stop offset="0%" stop-color="#001F3F"/><stop offset="50%" stop-color="#003D7A"/><stop offset="100%" stop-color="#0066CC"/>
        </linearGradient>

        <linearGradient id="loc-depth" x1="0%" y1="0%" x2="100%" y2="100%">
          <stop offset="0%" stop-color="#000033"/><stop offset="50%" stop-color="#001F3F"/><stop offset="100%" stop-color="#003366"/>
        </linearGradient>

        <linearGradient id="loc-coral" x1="0%" y1="0%" x2="100%" y2="100%">
          <stop offset="0%" stop-color="#FF6B6B"/><stop offset="50%" stop-color="#FF8E53"/><stop offset="100%" stop-color="#FE6B8B"/>
        </linearGradient>

        <filter id="loc-shadow">
          <feDropShadow dx="2" dy="2" stdDeviation="3" flood-opacity="0.3"/>
        </filter>
</defs>
<rect width="400" height="400" fill="url(#loc-ocean)"/>
<ellipse cx="258.96308309525267" cy="260.9980090808403" rx="24.01300451280536" 
                  ry="65.84803172473363" fill="#004C99" 
                  opacity="0.7"/>
<ellipse cx="165.23135582393223" cy="257.0303036448965" rx="24.787695473955253" 
                  ry="46.17428126467921" fill="#004C99" 
                  opacity="0.7"/>
<ellipse cx="352.7127114861428" cy="292.0579424864335" rx="45.88160631994135" 
                  ry="40.33058663032223" fill="#004C99" 
                  opacity="0.7"/>
<ellipse cx="307.11442721910345" cy="275.7669422496962" rx="26.373408914991185" 
                  ry="48.42518324964463" fill="#004C99" 
                  opacity="0.7"/>
<ellipse cx="168.31665787621236" cy="283.04196944313566" rx="25.686139841570238" 
                  ry="47.90955501516596" fill="#004C99" 
                  opacity="0.7"/>
<ellipse cx="206.82171700102194" cy="56.19232480516623" rx="15" ry="8" 
                  fill="#00A3E0" transform="rotate(-2.7700105502205794 206.82171700102194 56.19232480516623)"/>
<ellipse cx="176.2452657977366" cy="308.1360734306803" rx="15" ry="8" 
                  fill="#00A3E0" transform="rotate(13.00973748170476 176.2452657977366 308.1360734306803)"/>
<ellipse cx="23.168146157231952" cy="144.49478482701775" rx="15" ry="8" 
                  fill="#00A3E0" transform="rotate(-12.416645468064479 23.168146157231952 144.49478482701775)"/>
<ellipse cx="143.4310490980425" cy="60.81338892407081" rx="15" ry="8" 
                  fill="#00A3E0" transform="rotate(-9.637833248972242 143.4310490980425 60.81338892407081)"/>
<ellipse cx="289.9487311797578" cy="69.0683787803908" rx="15" ry="8" 
                  fill="#00A3E0" transform="rotate(-0.37341773950157986 289.9487311797578 69.0683787803908)"/>
<ellipse cx="72.75553979397512" cy="102.03143928430828" rx="15" ry="8" 
                  fill="#00A3E0" transform="rotate(8.030025155090609 72.75553979397512 102.03143928430828)"/>
<ellipse cx="390.63630455786176" cy="212.99239549379166" rx="15" ry="8" 
                  fill="#00A3E0" transform="rotate(2.92329280494603 390.63630455786176 212.99239549379166)"/>
<ellipse cx="207.4300093848258" cy="262.04516861033704" rx="15" ry="8" 
                  fill="#00A3E0" transform="rotate(-7.700221336299863 207.4300093848258 262.04516861033704)"/>
<circle cx="118.50723054019912" cy="43.69489818666237" r="4.668942121169486" fill="white" opacity="0.3"/>
<circle cx="38.67371297721984" cy="366.3369882989866" r="4.145021332905079" fill="white" opacity="0.3"/>
<circle cx="285.0870225254436" cy="204.91253594164522" r="4.528397860336156" fill="white" opacity="0.3"/>
<circle cx="250.93162707656683" cy="113.41392574338478" r="3.2560127122891918" fill="white" opacity="0.3"/>
<circle cx="200.87006247339025" cy="18.796863552096266" r="3.0637599499353163" fill="white" opacity="0.3"/>
<circle cx="147.48530550124838" cy="235.1829049304737" r="4.918451646214528" fill="white" opacity="0.3"/>
<circle cx="181.09638393958235" cy="320.79335074292123" r="3.84414200662822" fill="white" opacity="0.3"/>
<circle cx="310.3859583852077" cy="392.66654914252956" r="6.488646891498685" fill="white" opacity="0.3"/>
<circle cx="70.4306221659817" cy="261.52507954024423" r="4.906964492626172" fill="white" opacity="0.3"/>
<circle cx="359.2295092285857" cy="26.439589603910328" r="3.001126631767604" fill="white" opacity="0.3"/>
<circle cx="8.546407301050873" cy="176.2641562081976" r="2.7305099461693003" fill="white" opacity="0.3"/>
<circle cx="153.80402650227043" cy="292.6605694491248" r="3.7327311671935828" fill="white" opacity="0.3"/>
<circle cx="52.881706158639695" cy="31.357833276674896" r="4.853941712153192" fill="white" opacity="0.3"/>
<circle cx="385.0038260990923" cy="129.70229228555965" r="5.5149598647188895" fill="white" opacity="0.3"/>
<circle cx="91.78923858265655" cy="102.18476209284013" r="2.211759472848713" fill="white" opacity="0.3"/>
<circle cx="312.42215861674276" cy="383.3382234813404" r="5.364187252246581" fill="white" opacity="0.3"/>
<circle cx="300.35222048220726" cy="134.55864081080983" r="4.995897567054596" fill="white" opacity="0.3"/>
<circle cx="91.64643098700962" cy="70.69971840514033" r="3.007084930390202" fill="white" opacity="0.3"/>
<circle cx="383.5171185172835" cy="219.72476439311285" r="6.836464855584187" fill="white" opacity="0.3"/>
<circle cx="188.88158870201485" cy="306.80901018863034" r="2.9103778427114353" fill="white" opacity="0.3"/>
<rect x="100" y="20" width="200" height="40" 
              fill="#0066CC" opacity="0.8"/>
<text x="200" y="45" text-anchor="middle" font-size="20" 
              fill="white">method</text>
</svg>