<svg width="400" height="400" viewBox="0 0 400 400" xmlns="http://www.w3.org/2000/svg">
<defs>

        <linearGradient id="loc-ocean" x1="0%" y1="0%" x2="100%" y2="100%">
          <stop offset="0%" stop-color="#001F3F"/><stop offset="50%" stop-color="#003D7A"/><stop offset="100%" stop-color="#0066CC"/>
        </linearGradient>

        <linearGradient id="loc-depth" x1="0%" y1="0%" x2="100%" y2="100%">
          <stop offset="0%" stop-color="#000033"/><stop offset="50%" stop-color="#001F3F"/><stop offset="100%" stop-color="#003366"/>
        </linearGradient>

        <linearGradient id="loc-coral" x1="0%" y1="0%" x2="100%" y2="100%">
          <stop offset="0%" stop-color="#FF6B6B"/><stop offset="50%" stop-color="#FF8E53"/><stop offset="100%" stop-color="#FE6B8B"/>
        </linearGradient>

        <filter id="loc-shadow">
          <feDropShadow dx="2" dy="2" stdDeviation="3" flood-opacity="0.3"/>
        </filter>
</defs>
<rect width="400" height="400" fill="url(#loc-ocean)"/>
<ellipse cx="51.92956894109204" cy="296.4428222304476" rx="32.70882761572959" 
                  ry="55.19042142422642" fill="#004C99" 
                  opacity="0.7"/>
<ellipse cx="167.0968368099374" cy="324.5527441199321" rx="42.9405471322192" 
                  ry="30.255119861595432" fill="#004C99" 
                  opacity="0.7"/>
<ellipse cx="198.68291566075018" cy="318.3339096792626" rx="34.388203616202986" 
                  ry="30.508881371272114" fill="#004C99" 
                  opacity="0.7"/>
<ellipse cx="371.5835370750968" cy="300.19124070765656" rx="24.123258686034397" 
                  ry="45.36701319656924" fill="#004C99" 
                  opacity="0.7"/>
<ellipse cx="37.137429173563596" cy="326.7797790969038" rx="46.45009208005263" 
                  ry="41.510312919168506" fill="#004C99" 
                  opacity="0.7"/>
<ellipse cx="171.68759219237916" cy="205.48406702863633" rx="15" ry="8" 
                  fill="#00A3E0" transform="rotate(-12.293382906233813 171.68759219237916 205.48406702863633)"/>
<ellipse cx="186.50278540619257" cy="163.404762815695" rx="15" ry="8" 
                  fill="#00A3E0" transform="rotate(4.537524075209266 186.50278540619257 163.404762815695)"/>
<ellipse cx="82.5613473856821" cy="66.38148868169758" rx="15" ry="8" 
                  fill="#00A3E0" transform="rotate(-14.772133032805733 82.5613473856821 66.38148868169758)"/>
<ellipse cx="38.50822833949614" cy="154.6258300647376" rx="15" ry="8" 
                  fill="#00A3E0" transform="rotate(12.675886197693789 38.50822833949614 154.6258300647376)"/>
<ellipse cx="91.9382839887711" cy="279.0062219260302" rx="15" ry="8" 
                  fill="#00A3E0" transform="rotate(-9.968759445624226 91.9382839887711 279.0062219260302)"/>
<ellipse cx="346.3204957781931" cy="234.94229613877707" rx="15" ry="8" 
                  fill="#00A3E0" transform="rotate(12.543821346378497 346.3204957781931 234.94229613877707)"/>
<ellipse cx="160.18033332142906" cy="232.53687931543436" rx="15" ry="8" 
                  fill="#00A3E0" transform="rotate(14.756083497819333 160.18033332142906 232.53687931543436)"/>
<ellipse cx="89.6057306685683" cy="118.26143244560345" rx="15" ry="8" 
                  fill="#00A3E0" transform="rotate(-12.50342814947285 89.6057306685683 118.26143244560345)"/>
<circle cx="339.4108754198541" cy="59.593053597984905" r="6.600041556691379" fill="white" opacity="0.3"/>
<circle cx="266.7964650504355" cy="275.5640479547244" r="5.396763035648544" fill="white" opacity="0.3"/>
<circle cx="77.70534382240197" cy="84.92463418183509" r="5.6588983161059305" fill="white" opacity="0.3"/>
<circle cx="75.9511823914806" cy="37.54022489951239" r="3.4540561356971726" fill="white" opacity="0.3"/>
<circle cx="320.08150195325686" cy="326.5339058501416" r="5.1379412387143475" fill="white" opacity="0.3"/>
<circle cx="399.60377791530607" cy="279.2553867559683" r="4.590712778355661" fill="white" opacity="0.3"/>
<circle cx="63.192563955582685" cy="158.13521330786773" r="2.922298064663203" fill="white" opacity="0.3"/>
<circle cx="37.15035278215417" cy="193.1476241700537" r="4.352832602744078" fill="white" opacity="0.3"/>
<circle cx="208.54747417772694" cy="322.93621071351" r="3.2945866808692807" fill="white" opacity="0.3"/>
<circle cx="159.71850955227112" cy="389.69125097446056" r="3.83016703212468" fill="white" opacity="0.3"/>
<circle cx="170.57951874500023" cy="172.40583277963134" r="2.9629662013371716" fill="white" opacity="0.3"/>
<circle cx="138.33913944136307" cy="347.48324000331064" r="6.477396243789574" fill="white" opacity="0.3"/>
<circle cx="122.84881877864913" cy="157.13419005125058" r="6.8571370975714885" fill="white" opacity="0.3"/>
<circle cx="168.6758979778459" cy="9.26316207135418" r="3.8285514123403477" fill="white" opacity="0.3"/>
<circle cx="343.0127866489965" cy="190.97757267411345" r="5.42556539658482" fill="white" opacity="0.3"/>
<circle cx="353.5820109892343" cy="111.05084609864315" r="6.783105444487262" fill="white" opacity="0.3"/>
<circle cx="221.04841443890294" cy="224.9563199274458" r="2.8933265116982154" fill="white" opacity="0.3"/>
<circle cx="25.24498448303798" cy="347.8448813867322" r="4.273899155796383" fill="white" opacity="0.3"/>
<circle cx="315.13640347198776" cy="359.24441072367534" r="4.278137413973086" fill="white" opacity="0.3"/>
<circle cx="93.19322908565346" cy="311.85171764021067" r="5.227934449572517" fill="white" opacity="0.3"/>
<rect x="100" y="20" width="200" height="40" 
              fill="#0066CC" opacity="0.8"/>
<text x="200" y="45" text-anchor="middle" font-size="20" 
              fill="white">saltwater</text>
</svg>