<svg width="400" height="400" viewBox="0 0 400 400" xmlns="http://www.w3.org/2000/svg">
<defs>

        <linearGradient id="loc-canopy" x1="0%" y1="0%" x2="100%" y2="100%">
          <stop offset="0%" stop-color="#006400"/><stop offset="50%" stop-color="#228B22"/><stop offset="100%" stop-color="#32CD32"/>
        </linearGradient>

        <linearGradient id="loc-moss" x1="0%" y1="0%" x2="100%" y2="100%">
          <stop offset="0%" stop-color="#8FBC8F"/><stop offset="50%" stop-color="#9ACD32"/><stop offset="100%" stop-color="#ADFF2F"/>
        </linearGradient>

        <linearGradient id="loc-bark" x1="0%" y1="0%" x2="100%" y2="100%">
          <stop offset="0%" stop-color="#8B4513"/><stop offset="50%" stop-color="#A0522D"/><stop offset="100%" stop-color="#D2691E"/>
        </linearGradient>

        <filter id="loc-shadow">
          <feDropShadow dx="2" dy="2" stdDeviation="3" flood-opacity="0.3"/>
        </filter>
</defs>
<rect width="400" height="400" fill="url(#loc-canopy)"/>
<rect x="57.26922721653114" y="334.49151027676197" width="10" height="75.24127056477215" 
                  fill="#8FBC8F"/>
<circle cx="62.26922721653114" cy="314.49151027676197" r="30" fill="#32CD32"/>
<circle cx="47.26922721653114" cy="324.49151027676197" r="25" fill="#00FF00"/>
<circle cx="77.26922721653114" cy="324.49151027676197" r="25" fill="#00FF00"/>
<rect x="383.19254986231005" y="281.3757763942256" width="10" height="107.95479849384853" 
                  fill="#8FBC8F"/>
<circle cx="388.19254986231005" cy="261.3757763942256" r="30" fill="#32CD32"/>
<circle cx="373.19254986231005" cy="271.3757763942256" r="25" fill="#00FF00"/>
<circle cx="403.19254986231005" cy="271.3757763942256" r="25" fill="#00FF00"/>
<rect x="43.85906934474815" y="252.23026045637138" width="10" height="85.3872767329884" 
                  fill="#8FBC8F"/>
<circle cx="48.85906934474815" cy="232.23026045637138" r="30" fill="#32CD32"/>
<circle cx="33.85906934474815" cy="242.23026045637138" r="25" fill="#00FF00"/>
<circle cx="63.85906934474815" cy="242.23026045637138" r="25" fill="#00FF00"/>
<rect x="140.7306702897572" y="311.55405096527227" width="10" height="111.87922220134325" 
                  fill="#8FBC8F"/>
<circle cx="145.7306702897572" cy="291.55405096527227" r="30" fill="#32CD32"/>
<circle cx="130.7306702897572" cy="301.55405096527227" r="25" fill="#00FF00"/>
<circle cx="160.7306702897572" cy="301.55405096527227" r="25" fill="#00FF00"/>
<rect x="329.529790566786" y="245.87861734946443" width="10" height="66.75569006074453" 
                  fill="#8FBC8F"/>
<circle cx="334.529790566786" cy="225.87861734946443" r="30" fill="#32CD32"/>
<circle cx="319.529790566786" cy="235.87861734946443" r="25" fill="#00FF00"/>
<circle cx="349.529790566786" cy="235.87861734946443" r="25" fill="#00FF00"/>
<rect x="206.81283660855908" y="296.19508764512534" width="10" height="113.45612016797361" 
                  fill="#8FBC8F"/>
<circle cx="211.81283660855908" cy="276.19508764512534" r="30" fill="#32CD32"/>
<circle cx="196.81283660855908" cy="286.19508764512534" r="25" fill="#00FF00"/>
<circle cx="226.81283660855908" cy="286.19508764512534" r="25" fill="#00FF00"/>
<rect x="337.75823449789704" y="208.25035858024742" width="10" height="133.44914204430307" 
                  fill="#8FBC8F"/>
<circle cx="342.75823449789704" cy="188.25035858024742" r="30" fill="#32CD32"/>
<circle cx="327.75823449789704" cy="198.25035858024742" r="25" fill="#00FF00"/>
<circle cx="357.75823449789704" cy="198.25035858024742" r="25" fill="#00FF00"/>
<rect x="35.40064871799074" y="334.31308436498324" width="10" height="129.7545991896913" 
                  fill="#8FBC8F"/>
<circle cx="40.40064871799074" cy="314.31308436498324" r="30" fill="#32CD32"/>
<circle cx="25.40064871799074" cy="324.31308436498324" r="25" fill="#00FF00"/>
<circle cx="55.40064871799074" cy="324.31308436498324" r="25" fill="#00FF00"/>
<rect x="216.96715911016148" y="242.79481201791867" width="10" height="106.55542060785544" 
                  fill="#8FBC8F"/>
<circle cx="221.96715911016148" cy="222.79481201791867" r="30" fill="#32CD32"/>
<circle cx="206.96715911016148" cy="232.79481201791867" r="25" fill="#00FF00"/>
<circle cx="236.96715911016148" cy="232.79481201791867" r="25" fill="#00FF00"/>
<rect x="388.67069490220535" y="314.9927676153631" width="10" height="138.26842524940463" 
                  fill="#8FBC8F"/>
<circle cx="393.67069490220535" cy="294.9927676153631" r="30" fill="#32CD32"/>
<circle cx="378.67069490220535" cy="304.9927676153631" r="25" fill="#00FF00"/>
<circle cx="408.67069490220535" cy="304.9927676153631" r="25" fill="#00FF00"/>
<rect x="100" y="20" width="200" height="40" 
              fill="#228B22" opacity="0.8"/>
<text x="200" y="45" text-anchor="middle" font-size="20" 
              fill="white">gang</text>
</svg>