<svg width="400" height="400" viewBox="0 0 400 400" xmlns="http://www.w3.org/2000/svg">
<defs>

        <linearGradient id="loc-ocean" x1="0%" y1="0%" x2="100%" y2="100%">
          <stop offset="0%" stop-color="#001F3F"/><stop offset="50%" stop-color="#003D7A"/><stop offset="100%" stop-color="#0066CC"/>
        </linearGradient>

        <linearGradient id="loc-depth" x1="0%" y1="0%" x2="100%" y2="100%">
          <stop offset="0%" stop-color="#000033"/><stop offset="50%" stop-color="#001F3F"/><stop offset="100%" stop-color="#003366"/>
        </linearGradient>

        <linearGradient id="loc-coral" x1="0%" y1="0%" x2="100%" y2="100%">
          <stop offset="0%" stop-color="#FF6B6B"/><stop offset="50%" stop-color="#FF8E53"/><stop offset="100%" stop-color="#FE6B8B"/>
        </linearGradient>

        <filter id="loc-shadow">
          <feDropShadow dx="2" dy="2" stdDeviation="3" flood-opacity="0.3"/>
        </filter>
</defs>
<rect width="400" height="400" fill="url(#loc-ocean)"/>
<ellipse cx="314.99839776538823" cy="260.6579330131743" rx="33.079954125492975" 
                  ry="52.51945069446853" fill="#004C99" 
                  opacity="0.7"/>
<ellipse cx="319.70091817926567" cy="309.3917103744045" rx="43.921983493026055" 
                  ry="49.20085819828522" fill="#004C99" 
                  opacity="0.7"/>
<ellipse cx="348.77378530196313" cy="309.2163586199474" rx="37.05676848346926" 
                  ry="50.14331566172187" fill="#004C99" 
                  opacity="0.7"/>
<ellipse cx="306.6128174517062" cy="271.72736466430075" rx="20.904530453351963" 
                  ry="62.821069319713516" fill="#004C99" 
                  opacity="0.7"/>
<ellipse cx="254.39417203190874" cy="257.8343915199371" rx="47.78423657869415" 
                  ry="66.79690803213785" fill="#004C99" 
                  opacity="0.7"/>
<ellipse cx="75.5293471281321" cy="315.4801210435113" rx="15" ry="8" 
                  fill="#00A3E0" transform="rotate(8.556447418417182 75.5293471281321 315.4801210435113)"/>
<ellipse cx="292.50219179904934" cy="162.93655891450956" rx="15" ry="8" 
                  fill="#00A3E0" transform="rotate(-4.262217868069415 292.50219179904934 162.93655891450956)"/>
<ellipse cx="268.4363633764119" cy="238.0953901825676" rx="15" ry="8" 
                  fill="#00A3E0" transform="rotate(-3.104376437136093 268.4363633764119 238.0953901825676)"/>
<ellipse cx="37.74227446965983" cy="83.63183901041418" rx="15" ry="8" 
                  fill="#00A3E0" transform="rotate(14.088674737234356 37.74227446965983 83.63183901041418)"/>
<ellipse cx="126.084265900153" cy="276.57121706863575" rx="15" ry="8" 
                  fill="#00A3E0" transform="rotate(11.656291893234457 126.084265900153 276.57121706863575)"/>
<ellipse cx="110.71116420956125" cy="95.31415147113603" rx="15" ry="8" 
                  fill="#00A3E0" transform="rotate(-10.561647633817987 110.71116420956125 95.31415147113603)"/>
<ellipse cx="87.28986767323002" cy="218.33860692204502" rx="15" ry="8" 
                  fill="#00A3E0" transform="rotate(8.909037548472504 87.28986767323002 218.33860692204502)"/>
<ellipse cx="242.09980244174716" cy="50.097039574803674" rx="15" ry="8" 
                  fill="#00A3E0" transform="rotate(-11.898479678782952 242.09980244174716 50.097039574803674)"/>
<circle cx="307.15178827658656" cy="381.6039165230543" r="3.3768890286651265" fill="white" opacity="0.3"/>
<circle cx="281.01220161154157" cy="10.675284909171845" r="6.6367236050190215" fill="white" opacity="0.3"/>
<circle cx="133.69501794485865" cy="109.83099913867238" r="4.781598339068845" fill="white" opacity="0.3"/>
<circle cx="199.7547492326464" cy="389.69674275337104" r="5.190116970563121" fill="white" opacity="0.3"/>
<circle cx="377.4040542045618" cy="212.5975062748295" r="4.360213998053098" fill="white" opacity="0.3"/>
<circle cx="221.2043041904088" cy="264.88072215844556" r="4.182554182756354" fill="white" opacity="0.3"/>
<circle cx="278.663037043156" cy="174.35616002323903" r="3.356546638365197" fill="white" opacity="0.3"/>
<circle cx="289.91029624082233" cy="146.15424302753303" r="5.096818017201048" fill="white" opacity="0.3"/>
<circle cx="299.84791220631706" cy="372.2259430803406" r="6.876968656727914" fill="white" opacity="0.3"/>
<circle cx="273.4234201660975" cy="43.740239122857936" r="3.3299286018098595" fill="white" opacity="0.3"/>
<circle cx="58.07678601897352" cy="21.784182787636563" r="3.0401589367741506" fill="white" opacity="0.3"/>
<circle cx="60.01954653259682" cy="161.17121950831984" r="3.6680819265463587" fill="white" opacity="0.3"/>
<circle cx="318.66555096610233" cy="30.738141615915193" r="2.29218127641611" fill="white" opacity="0.3"/>
<circle cx="268.5996872830386" cy="48.6482490204454" r="3.5313500040994485" fill="white" opacity="0.3"/>
<circle cx="148.89183306325484" cy="193.29845506857092" r="5.967070541996572" fill="white" opacity="0.3"/>
<circle cx="73.99323581520977" cy="341.2121888529461" r="2.7703702577614386" fill="white" opacity="0.3"/>
<circle cx="108.93000227386027" cy="10.855645724829577" r="5.913009490617904" fill="white" opacity="0.3"/>
<circle cx="44.54483132017546" cy="74.65257553692814" r="4.6630328481936" fill="white" opacity="0.3"/>
<circle cx="23.79411023997089" cy="192.2714226758854" r="3.9023347397308226" fill="white" opacity="0.3"/>
<circle cx="164.89016784789808" cy="106.65313240886643" r="2.4757381733915937" fill="white" opacity="0.3"/>
<rect x="100" y="20" width="200" height="40" 
              fill="#0066CC" opacity="0.8"/>
<text x="200" y="45" text-anchor="middle" font-size="20" 
              fill="white">waters</text>
</svg>