<svg width="400" height="400" viewBox="0 0 400 400" xmlns="http://www.w3.org/2000/svg">
<defs>

        <linearGradient id="loc-ocean" x1="0%" y1="0%" x2="100%" y2="100%">
          <stop offset="0%" stop-color="#001F3F"/><stop offset="50%" stop-color="#003D7A"/><stop offset="100%" stop-color="#0066CC"/>
        </linearGradient>

        <linearGradient id="loc-depth" x1="0%" y1="0%" x2="100%" y2="100%">
          <stop offset="0%" stop-color="#000033"/><stop offset="50%" stop-color="#001F3F"/><stop offset="100%" stop-color="#003366"/>
        </linearGradient>

        <linearGradient id="loc-coral" x1="0%" y1="0%" x2="100%" y2="100%">
          <stop offset="0%" stop-color="#FF6B6B"/><stop offset="50%" stop-color="#FF8E53"/><stop offset="100%" stop-color="#FE6B8B"/>
        </linearGradient>

        <filter id="loc-shadow">
          <feDropShadow dx="2" dy="2" stdDeviation="3" flood-opacity="0.3"/>
        </filter>
</defs>
<rect width="400" height="400" fill="url(#loc-ocean)"/>
<ellipse cx="0.5173246016100475" cy="300.4754020442554" rx="26.82351208270515" 
                  ry="36.32235252334137" fill="#004C99" 
                  opacity="0.7"/>
<ellipse cx="167.41583224637552" cy="284.3323001972349" rx="48.25639675556735" 
                  ry="59.36263983948344" fill="#004C99" 
                  opacity="0.7"/>
<ellipse cx="187.34894936483371" cy="280.0504029206967" rx="39.19121767227739" 
                  ry="36.989742450679735" fill="#004C99" 
                  opacity="0.7"/>
<ellipse cx="335.371606397654" cy="349.67277074197796" rx="38.188815004137425" 
                  ry="55.964952666315284" fill="#004C99" 
                  opacity="0.7"/>
<ellipse cx="36.759479830181085" cy="283.43977798669556" rx="24.763641058469737" 
                  ry="52.21024060445371" fill="#004C99" 
                  opacity="0.7"/>
<ellipse cx="193.94859571752332" cy="311.46538887568107" rx="15" ry="8" 
                  fill="#00A3E0" transform="rotate(-14.25050981325916 193.94859571752332 311.46538887568107)"/>
<ellipse cx="309.64794742495076" cy="227.95023949307406" rx="15" ry="8" 
                  fill="#00A3E0" transform="rotate(4.8454462458337275 309.64794742495076 227.95023949307406)"/>
<ellipse cx="16.82206173783345" cy="281.83567760729306" rx="15" ry="8" 
                  fill="#00A3E0" transform="rotate(13.406847381922955 16.82206173783345 281.83567760729306)"/>
<ellipse cx="132.768268005866" cy="342.97723871949876" rx="15" ry="8" 
                  fill="#00A3E0" transform="rotate(-5.718530838482611 132.768268005866 342.97723871949876)"/>
<ellipse cx="124.30863282394289" cy="255.14981816963274" rx="15" ry="8" 
                  fill="#00A3E0" transform="rotate(4.78193622514517 124.30863282394289 255.14981816963274)"/>
<ellipse cx="327.60924518413975" cy="338.5466656689217" rx="15" ry="8" 
                  fill="#00A3E0" transform="rotate(-2.9343429011752207 327.60924518413975 338.5466656689217)"/>
<ellipse cx="359.5524532381803" cy="218.1633851851222" rx="15" ry="8" 
                  fill="#00A3E0" transform="rotate(-3.1811318865061793 359.5524532381803 218.1633851851222)"/>
<ellipse cx="278.1321215706711" cy="90.86831640678525" rx="15" ry="8" 
                  fill="#00A3E0" transform="rotate(-8.062785846334377 278.1321215706711 90.86831640678525)"/>
<circle cx="25.854175873757423" cy="89.50272898008254" r="6.929093619842726" fill="white" opacity="0.3"/>
<circle cx="145.62933894719276" cy="229.6217537660549" r="3.5293595230757107" fill="white" opacity="0.3"/>
<circle cx="56.984137138752104" cy="172.7217206261" r="4.353473423405994" fill="white" opacity="0.3"/>
<circle cx="68.80079414518572" cy="273.14577003069707" r="4.031822155398652" fill="white" opacity="0.3"/>
<circle cx="344.0167000492619" cy="169.09989567194668" r="3.1337992784532425" fill="white" opacity="0.3"/>
<circle cx="21.738927785290272" cy="344.2007026959559" r="6.07265782622913" fill="white" opacity="0.3"/>
<circle cx="159.46523747569844" cy="361.58825492105154" r="5.010382119734657" fill="white" opacity="0.3"/>
<circle cx="269.4133671288958" cy="32.8167027427607" r="3.670917228050561" fill="white" opacity="0.3"/>
<circle cx="270.856758548098" cy="115.62999241618041" r="6.400247945626711" fill="white" opacity="0.3"/>
<circle cx="289.9589573677384" cy="396.3213275167934" r="6.720292514196918" fill="white" opacity="0.3"/>
<circle cx="268.6039760479995" cy="344.9108375206325" r="6.7199615999069096" fill="white" opacity="0.3"/>
<circle cx="110.8635626534987" cy="71.74518605495822" r="6.36713379925582" fill="white" opacity="0.3"/>
<circle cx="175.88727528016173" cy="215.89685178289452" r="5.927510501043881" fill="white" opacity="0.3"/>
<circle cx="240.99010694903936" cy="360.30052709025153" r="3.5809024413235635" fill="white" opacity="0.3"/>
<circle cx="242.43865857127474" cy="1.0266206112770515" r="3.008792911081122" fill="white" opacity="0.3"/>
<circle cx="219.54601994671688" cy="290.92989062606756" r="6.600123086031535" fill="white" opacity="0.3"/>
<circle cx="185.63938876054382" cy="131.73130918805458" r="2.560766007328686" fill="white" opacity="0.3"/>
<circle cx="36.976545923110834" cy="271.4332414177648" r="4.462071636865749" fill="white" opacity="0.3"/>
<circle cx="365.5862439893481" cy="125.65244578133186" r="6.214654821783411" fill="white" opacity="0.3"/>
<circle cx="33.05080282152506" cy="119.31326662993791" r="3.7261731650263306" fill="white" opacity="0.3"/>
<rect x="100" y="20" width="200" height="40" 
              fill="#0066CC" opacity="0.8"/>
<text x="200" y="45" text-anchor="middle" font-size="20" 
              fill="white">jr</text>
</svg>