<svg width="400" height="400" viewBox="0 0 400 400" xmlns="http://www.w3.org/2000/svg">
<defs>

        <linearGradient id="loc-ocean" x1="0%" y1="0%" x2="100%" y2="100%">
          <stop offset="0%" stop-color="#001F3F"/><stop offset="50%" stop-color="#003D7A"/><stop offset="100%" stop-color="#0066CC"/>
        </linearGradient>

        <linearGradient id="loc-depth" x1="0%" y1="0%" x2="100%" y2="100%">
          <stop offset="0%" stop-color="#000033"/><stop offset="50%" stop-color="#001F3F"/><stop offset="100%" stop-color="#003366"/>
        </linearGradient>

        <linearGradient id="loc-coral" x1="0%" y1="0%" x2="100%" y2="100%">
          <stop offset="0%" stop-color="#FF6B6B"/><stop offset="50%" stop-color="#FF8E53"/><stop offset="100%" stop-color="#FE6B8B"/>
        </linearGradient>

        <filter id="loc-shadow">
          <feDropShadow dx="2" dy="2" stdDeviation="3" flood-opacity="0.3"/>
        </filter>
</defs>
<rect width="400" height="400" fill="url(#loc-ocean)"/>
<ellipse cx="274.4511333472453" cy="348.7206485762087" rx="36.74294996422604" 
                  ry="34.488761744269716" fill="#004C99" 
                  opacity="0.7"/>
<ellipse cx="101.79509283314574" cy="310.0567312974035" rx="22.703377685466698" 
                  ry="51.684122003488625" fill="#004C99" 
                  opacity="0.7"/>
<ellipse cx="153.12423634553807" cy="321.07943737909693" rx="45.93601690572926" 
                  ry="68.23014922378091" fill="#004C99" 
                  opacity="0.7"/>
<ellipse cx="264.2179513359034" cy="272.8054887142544" rx="35.02389642457082" 
                  ry="39.55873713880698" fill="#004C99" 
                  opacity="0.7"/>
<ellipse cx="255.555969214173" cy="289.9945374930868" rx="44.75990740616996" 
                  ry="52.9560367808856" fill="#004C99" 
                  opacity="0.7"/>
<ellipse cx="295.25923679218926" cy="220.16859340889442" rx="15" ry="8" 
                  fill="#00A3E0" transform="rotate(10.665492882344338 295.25923679218926 220.16859340889442)"/>
<ellipse cx="188.7445067966662" cy="205.35512520224353" rx="15" ry="8" 
                  fill="#00A3E0" transform="rotate(-1.7440883450182056 188.7445067966662 205.35512520224353)"/>
<ellipse cx="314.8257845906072" cy="245.3528685719903" rx="15" ry="8" 
                  fill="#00A3E0" transform="rotate(-3.0867968536825554 314.8257845906072 245.3528685719903)"/>
<ellipse cx="151.04053685330703" cy="272.63188561925926" rx="15" ry="8" 
                  fill="#00A3E0" transform="rotate(-6.976684576536449 151.04053685330703 272.63188561925926)"/>
<ellipse cx="235.33146065989934" cy="240.32802961417948" rx="15" ry="8" 
                  fill="#00A3E0" transform="rotate(-14.288541559545813 235.33146065989934 240.32802961417948)"/>
<ellipse cx="211.82060910731758" cy="289.85640888840794" rx="15" ry="8" 
                  fill="#00A3E0" transform="rotate(-7.206122739224403 211.82060910731758 289.85640888840794)"/>
<ellipse cx="363.4942245772926" cy="258.19710877809086" rx="15" ry="8" 
                  fill="#00A3E0" transform="rotate(12.047788199562 363.4942245772926 258.19710877809086)"/>
<ellipse cx="263.28806875292014" cy="326.69666888982385" rx="15" ry="8" 
                  fill="#00A3E0" transform="rotate(12.084480424083111 263.28806875292014 326.69666888982385)"/>
<circle cx="84.33352689793811" cy="43.286694833460125" r="6.297843543477212" fill="white" opacity="0.3"/>
<circle cx="302.0341886131449" cy="107.64486075313408" r="4.287368738811807" fill="white" opacity="0.3"/>
<circle cx="131.2888812260595" cy="94.47999548659575" r="2.1677825322880726" fill="white" opacity="0.3"/>
<circle cx="36.03277875751245" cy="364.5246488646439" r="5.433777879794279" fill="white" opacity="0.3"/>
<circle cx="207.63176724340616" cy="216.1516967193501" r="4.700921010670523" fill="white" opacity="0.3"/>
<circle cx="197.1055742775621" cy="350.35443684768654" r="4.991009371438406" fill="white" opacity="0.3"/>
<circle cx="247.53121872376838" cy="64.39715297789834" r="5.068419197292598" fill="white" opacity="0.3"/>
<circle cx="242.8227989504944" cy="136.6601141199331" r="6.21390778354737" fill="white" opacity="0.3"/>
<circle cx="273.71855668652825" cy="47.7098655700984" r="6.114839069157785" fill="white" opacity="0.3"/>
<circle cx="22.394025782442828" cy="332.68714101292625" r="3.7337766347455377" fill="white" opacity="0.3"/>
<circle cx="245.80183355131226" cy="357.37615249543506" r="2.271355114444099" fill="white" opacity="0.3"/>
<circle cx="109.07060782301615" cy="29.261367500745195" r="5.180145001160151" fill="white" opacity="0.3"/>
<circle cx="202.5055978346959" cy="176.8530522296847" r="6.469988393615788" fill="white" opacity="0.3"/>
<circle cx="289.53705667452164" cy="293.7884750940933" r="6.439750253470679" fill="white" opacity="0.3"/>
<circle cx="345.506072470302" cy="221.17165099178558" r="3.4624190946359845" fill="white" opacity="0.3"/>
<circle cx="218.95820113023882" cy="343.05639812672507" r="4.303308328278285" fill="white" opacity="0.3"/>
<circle cx="388.0070370046894" cy="371.4365661192084" r="2.634629851165683" fill="white" opacity="0.3"/>
<circle cx="167.46357212200294" cy="356.24469084143516" r="4.269545190222278" fill="white" opacity="0.3"/>
<circle cx="168.41916963876616" cy="27.948620561619375" r="5.424972792719293" fill="white" opacity="0.3"/>
<circle cx="196.90932049204335" cy="18.295901067640365" r="3.9818115625115524" fill="white" opacity="0.3"/>
<rect x="100" y="20" width="200" height="40" 
              fill="#0066CC" opacity="0.8"/>
<text x="200" y="45" text-anchor="middle" font-size="20" 
              fill="white">aquabyssos</text>
</svg>