<svg width="400" height="400" viewBox="0 0 400 400" xmlns="http://www.w3.org/2000/svg">
<defs>

        <linearGradient id="loc-ocean" x1="0%" y1="0%" x2="100%" y2="100%">
          <stop offset="0%" stop-color="#001F3F"/><stop offset="50%" stop-color="#003D7A"/><stop offset="100%" stop-color="#0066CC"/>
        </linearGradient>

        <linearGradient id="loc-depth" x1="0%" y1="0%" x2="100%" y2="100%">
          <stop offset="0%" stop-color="#000033"/><stop offset="50%" stop-color="#001F3F"/><stop offset="100%" stop-color="#003366"/>
        </linearGradient>

        <linearGradient id="loc-coral" x1="0%" y1="0%" x2="100%" y2="100%">
          <stop offset="0%" stop-color="#FF6B6B"/><stop offset="50%" stop-color="#FF8E53"/><stop offset="100%" stop-color="#FE6B8B"/>
        </linearGradient>

        <filter id="loc-shadow">
          <feDropShadow dx="2" dy="2" stdDeviation="3" flood-opacity="0.3"/>
        </filter>
</defs>
<rect width="400" height="400" fill="url(#loc-ocean)"/>
<ellipse cx="225.70981955642844" cy="272.7260686053234" rx="45.61676463921395" 
                  ry="50.364263600082445" fill="#004C99" 
                  opacity="0.7"/>
<ellipse cx="48.43861009894943" cy="311.5362167760048" rx="27.35870932793702" 
                  ry="50.978049542647625" fill="#004C99" 
                  opacity="0.7"/>
<ellipse cx="387.94485344663434" cy="342.6770994109455" rx="24.598124517985852" 
                  ry="50.88922351970692" fill="#004C99" 
                  opacity="0.7"/>
<ellipse cx="258.47258714516545" cy="302.27384143781705" rx="45.96421603307142" 
                  ry="55.32972346511353" fill="#004C99" 
                  opacity="0.7"/>
<ellipse cx="326.64287958659395" cy="341.1748719622607" rx="29.58482594669706" 
                  ry="53.25851357595695" fill="#004C99" 
                  opacity="0.7"/>
<ellipse cx="279.98983676155484" cy="118.16720186061215" rx="15" ry="8" 
                  fill="#00A3E0" transform="rotate(5.774052930594166 279.98983676155484 118.16720186061215)"/>
<ellipse cx="361.18890871854046" cy="323.24688722540355" rx="15" ry="8" 
                  fill="#00A3E0" transform="rotate(-11.403432851239032 361.18890871854046 323.24688722540355)"/>
<ellipse cx="32.1412509373582" cy="274.31062608432114" rx="15" ry="8" 
                  fill="#00A3E0" transform="rotate(11.204532818934663 32.1412509373582 274.31062608432114)"/>
<ellipse cx="259.92249374705875" cy="254.29044397395302" rx="15" ry="8" 
                  fill="#00A3E0" transform="rotate(-2.247099659645478 259.92249374705875 254.29044397395302)"/>
<ellipse cx="70.43122939348301" cy="251.8235300631861" rx="15" ry="8" 
                  fill="#00A3E0" transform="rotate(-8.014266266764636 70.43122939348301 251.8235300631861)"/>
<ellipse cx="249.2462650184205" cy="276.9940368186701" rx="15" ry="8" 
                  fill="#00A3E0" transform="rotate(9.183496926497899 249.2462650184205 276.9940368186701)"/>
<ellipse cx="65.46741240314495" cy="68.95881773729641" rx="15" ry="8" 
                  fill="#00A3E0" transform="rotate(5.136907949821616 65.46741240314495 68.95881773729641)"/>
<ellipse cx="264.33239333875696" cy="321.780081802047" rx="15" ry="8" 
                  fill="#00A3E0" transform="rotate(7.630854470473235 264.33239333875696 321.780081802047)"/>
<circle cx="227.59755689121147" cy="110.33206398763049" r="2.0495093076994157" fill="white" opacity="0.3"/>
<circle cx="115.14306322572901" cy="138.24448944085387" r="6.4925141143607705" fill="white" opacity="0.3"/>
<circle cx="385.30956672401646" cy="167.47405448960527" r="5.8547547741714565" fill="white" opacity="0.3"/>
<circle cx="228.16063099778944" cy="87.54150557668825" r="6.240665107758492" fill="white" opacity="0.3"/>
<circle cx="159.9658741566985" cy="340.43485645631364" r="2.550948762585699" fill="white" opacity="0.3"/>
<circle cx="68.86715475042907" cy="26.155334823871492" r="4.192846715701696" fill="white" opacity="0.3"/>
<circle cx="235.95251887535179" cy="392.64398143775674" r="3.443910686404362" fill="white" opacity="0.3"/>
<circle cx="346.93591234884565" cy="132.71702585355686" r="3.9440561007720407" fill="white" opacity="0.3"/>
<circle cx="143.12111975275218" cy="46.47222267215443" r="3.4321637513557874" fill="white" opacity="0.3"/>
<circle cx="216.64008466454888" cy="120.58642187141513" r="6.878417398546483" fill="white" opacity="0.3"/>
<circle cx="35.26514218758741" cy="261.7842333140232" r="5.48980189234444" fill="white" opacity="0.3"/>
<circle cx="8.364871235767257" cy="115.2706619720508" r="5.425413304928648" fill="white" opacity="0.3"/>
<circle cx="1.7842723989944798" cy="121.69842191979376" r="3.4894944441445714" fill="white" opacity="0.3"/>
<circle cx="305.1807766670052" cy="116.03535512747301" r="3.8875318246858535" fill="white" opacity="0.3"/>
<circle cx="245.16571573957538" cy="70.21140170737424" r="5.915531319665966" fill="white" opacity="0.3"/>
<circle cx="234.26983085846524" cy="13.018576384440417" r="5.614788736829228" fill="white" opacity="0.3"/>
<circle cx="4.268155244173588" cy="335.91067443143777" r="2.898727165217123" fill="white" opacity="0.3"/>
<circle cx="355.9950879178854" cy="5.979624022536845" r="6.824490600789756" fill="white" opacity="0.3"/>
<circle cx="195.36969845141513" cy="60.71170211183552" r="3.0854445402933903" fill="white" opacity="0.3"/>
<circle cx="34.3850175713309" cy="99.47705831784033" r="6.9355642988717605" fill="white" opacity="0.3"/>
<rect x="100" y="20" width="200" height="40" 
              fill="#0066CC" opacity="0.8"/>
<text x="200" y="45" text-anchor="middle" font-size="20" 
              fill="white">aquabyssos</text>
</svg>