<svg width="400" height="400" viewBox="0 0 400 400" xmlns="http://www.w3.org/2000/svg">
<defs>

        <linearGradient id="loc-canopy" x1="0%" y1="0%" x2="100%" y2="100%">
          <stop offset="0%" stop-color="#006400"/><stop offset="50%" stop-color="#228B22"/><stop offset="100%" stop-color="#32CD32"/>
        </linearGradient>

        <linearGradient id="loc-moss" x1="0%" y1="0%" x2="100%" y2="100%">
          <stop offset="0%" stop-color="#8FBC8F"/><stop offset="50%" stop-color="#9ACD32"/><stop offset="100%" stop-color="#ADFF2F"/>
        </linearGradient>

        <linearGradient id="loc-bark" x1="0%" y1="0%" x2="100%" y2="100%">
          <stop offset="0%" stop-color="#8B4513"/><stop offset="50%" stop-color="#A0522D"/><stop offset="100%" stop-color="#D2691E"/>
        </linearGradient>

        <filter id="loc-shadow">
          <feDropShadow dx="2" dy="2" stdDeviation="3" flood-opacity="0.3"/>
        </filter>
</defs>
<rect width="400" height="400" fill="url(#loc-canopy)"/>
<rect x="293.827637848265" y="272.9708141061591" width="10" height="80.40632713669422" 
                  fill="#8FBC8F"/>
<circle cx="298.827637848265" cy="252.97081410615908" r="30" fill="#32CD32"/>
<circle cx="283.827637848265" cy="262.9708141061591" r="25" fill="#00FF00"/>
<circle cx="313.827637848265" cy="262.9708141061591" r="25" fill="#00FF00"/>
<rect x="205.23551313469935" y="273.7592409922337" width="10" height="115.74763025951313" 
                  fill="#8FBC8F"/>
<circle cx="210.23551313469935" cy="253.75924099223369" r="30" fill="#32CD32"/>
<circle cx="195.23551313469935" cy="263.7592409922337" r="25" fill="#00FF00"/>
<circle cx="225.23551313469935" cy="263.7592409922337" r="25" fill="#00FF00"/>
<rect x="190.08854386020693" y="228.14345350834412" width="10" height="63.60535355829046" 
                  fill="#8FBC8F"/>
<circle cx="195.08854386020693" cy="208.14345350834412" r="30" fill="#32CD32"/>
<circle cx="180.08854386020693" cy="218.14345350834412" r="25" fill="#00FF00"/>
<circle cx="210.08854386020693" cy="218.14345350834412" r="25" fill="#00FF00"/>
<rect x="317.85447323113584" y="309.2368223611271" width="10" height="90.47730698782331" 
                  fill="#8FBC8F"/>
<circle cx="322.85447323113584" cy="289.2368223611271" r="30" fill="#32CD32"/>
<circle cx="307.85447323113584" cy="299.2368223611271" r="25" fill="#00FF00"/>
<circle cx="337.85447323113584" cy="299.2368223611271" r="25" fill="#00FF00"/>
<rect x="76.83713265941188" y="306.06659433456" width="10" height="83.72684677943263" 
                  fill="#8FBC8F"/>
<circle cx="81.83713265941188" cy="286.06659433456" r="30" fill="#32CD32"/>
<circle cx="66.83713265941188" cy="296.06659433456" r="25" fill="#00FF00"/>
<circle cx="96.83713265941188" cy="296.06659433456" r="25" fill="#00FF00"/>
<rect x="393.1081485499464" y="263.383528849578" width="10" height="101.79659756463182" 
                  fill="#8FBC8F"/>
<circle cx="398.1081485499464" cy="243.383528849578" r="30" fill="#32CD32"/>
<circle cx="383.1081485499464" cy="253.383528849578" r="25" fill="#00FF00"/>
<circle cx="413.1081485499464" cy="253.383528849578" r="25" fill="#00FF00"/>
<rect x="248.09537492556697" y="319.656185650748" width="10" height="69.19661102348714" 
                  fill="#8FBC8F"/>
<circle cx="253.09537492556697" cy="299.656185650748" r="30" fill="#32CD32"/>
<circle cx="238.09537492556697" cy="309.656185650748" r="25" fill="#00FF00"/>
<circle cx="268.09537492556694" cy="309.656185650748" r="25" fill="#00FF00"/>
<rect x="271.38400164897047" y="214.70313141563187" width="10" height="132.34668439379217" 
                  fill="#8FBC8F"/>
<circle cx="276.38400164897047" cy="194.70313141563187" r="30" fill="#32CD32"/>
<circle cx="261.38400164897047" cy="204.70313141563187" r="25" fill="#00FF00"/>
<circle cx="291.38400164897047" cy="204.70313141563187" r="25" fill="#00FF00"/>
<rect x="92.79301881505096" y="234.9839249598983" width="10" height="128.10857903908263" 
                  fill="#8FBC8F"/>
<circle cx="97.79301881505096" cy="214.9839249598983" r="30" fill="#32CD32"/>
<circle cx="82.79301881505096" cy="224.9839249598983" r="25" fill="#00FF00"/>
<circle cx="112.79301881505096" cy="224.9839249598983" r="25" fill="#00FF00"/>
<rect x="48.81332631881976" y="242.35330883810343" width="10" height="108.39514788622876" 
                  fill="#8FBC8F"/>
<circle cx="53.81332631881976" cy="222.35330883810343" r="30" fill="#32CD32"/>
<circle cx="38.81332631881976" cy="232.35330883810343" r="25" fill="#00FF00"/>
<circle cx="68.81332631881976" cy="232.35330883810343" r="25" fill="#00FF00"/>
<rect x="100" y="20" width="200" height="40" 
              fill="#228B22" opacity="0.8"/>
<text x="200" y="45" text-anchor="middle" font-size="20" 
              fill="white">forest</text>
</svg>