<svg width="400" height="400" viewBox="0 0 400 400" xmlns="http://www.w3.org/2000/svg">
<defs>

        <linearGradient id="loc-ocean" x1="0%" y1="0%" x2="100%" y2="100%">
          <stop offset="0%" stop-color="#001F3F"/><stop offset="50%" stop-color="#003D7A"/><stop offset="100%" stop-color="#0066CC"/>
        </linearGradient>

        <linearGradient id="loc-depth" x1="0%" y1="0%" x2="100%" y2="100%">
          <stop offset="0%" stop-color="#000033"/><stop offset="50%" stop-color="#001F3F"/><stop offset="100%" stop-color="#003366"/>
        </linearGradient>

        <linearGradient id="loc-coral" x1="0%" y1="0%" x2="100%" y2="100%">
          <stop offset="0%" stop-color="#FF6B6B"/><stop offset="50%" stop-color="#FF8E53"/><stop offset="100%" stop-color="#FE6B8B"/>
        </linearGradient>

        <filter id="loc-shadow">
          <feDropShadow dx="2" dy="2" stdDeviation="3" flood-opacity="0.3"/>
        </filter>
</defs>
<rect width="400" height="400" fill="url(#loc-ocean)"/>
<ellipse cx="345.5045193690276" cy="300.2833713354561" rx="21.979215257749075" 
                  ry="55.38845445681687" fill="#004C99" 
                  opacity="0.7"/>
<ellipse cx="43.61751851814341" cy="301.7539887651029" rx="24.694925366971407" 
                  ry="58.413714883761" fill="#004C99" 
                  opacity="0.7"/>
<ellipse cx="57.852970214892395" cy="311.6057640600238" rx="44.046195295954554" 
                  ry="31.95928878979948" fill="#004C99" 
                  opacity="0.7"/>
<ellipse cx="248.71300579294092" cy="262.94692781941046" rx="33.028952537726944" 
                  ry="57.15157561355552" fill="#004C99" 
                  opacity="0.7"/>
<ellipse cx="279.3410986984493" cy="281.8482316350326" rx="27.25449966278312" 
                  ry="67.70756428625421" fill="#004C99" 
                  opacity="0.7"/>
<ellipse cx="17.381848333802232" cy="249.93888076946462" rx="15" ry="8" 
                  fill="#00A3E0" transform="rotate(-7.619266666353546 17.381848333802232 249.93888076946462)"/>
<ellipse cx="186.3747542969929" cy="130.26839686903912" rx="15" ry="8" 
                  fill="#00A3E0" transform="rotate(-4.807411202747163 186.3747542969929 130.26839686903912)"/>
<ellipse cx="290.3627237900901" cy="107.10318827756906" rx="15" ry="8" 
                  fill="#00A3E0" transform="rotate(-4.674790555752267 290.3627237900901 107.10318827756906)"/>
<ellipse cx="67.58586240526614" cy="266.3014458194889" rx="15" ry="8" 
                  fill="#00A3E0" transform="rotate(4.646380680472802 67.58586240526614 266.3014458194889)"/>
<ellipse cx="260.7311118247061" cy="87.67180908919514" rx="15" ry="8" 
                  fill="#00A3E0" transform="rotate(8.863003142453792 260.7311118247061 87.67180908919514)"/>
<ellipse cx="206.34100130597503" cy="331.2284216743157" rx="15" ry="8" 
                  fill="#00A3E0" transform="rotate(0.43234672778969596 206.34100130597503 331.2284216743157)"/>
<ellipse cx="269.74033134267495" cy="330.3239137150479" rx="15" ry="8" 
                  fill="#00A3E0" transform="rotate(-10.363650116656114 269.74033134267495 330.3239137150479)"/>
<ellipse cx="258.0922807626899" cy="259.1597386787406" rx="15" ry="8" 
                  fill="#00A3E0" transform="rotate(-13.276201124910958 258.0922807626899 259.1597386787406)"/>
<circle cx="139.39690105071912" cy="148.96564648213436" r="5.39400927454078" fill="white" opacity="0.3"/>
<circle cx="396.62237451818845" cy="7.662264435304644" r="6.407281336813046" fill="white" opacity="0.3"/>
<circle cx="387.24255908008485" cy="280.44875358354585" r="4.767694464691335" fill="white" opacity="0.3"/>
<circle cx="373.5054406826698" cy="93.69866126817183" r="6.106575862364658" fill="white" opacity="0.3"/>
<circle cx="372.98665177110695" cy="310.3226651297794" r="5.552843699677656" fill="white" opacity="0.3"/>
<circle cx="266.26080741736166" cy="214.17105619200436" r="3.713540229850633" fill="white" opacity="0.3"/>
<circle cx="264.3599256135826" cy="21.78387408667546" r="3.0510090390579405" fill="white" opacity="0.3"/>
<circle cx="196.40413626047564" cy="75.09081223094958" r="5.652220944081792" fill="white" opacity="0.3"/>
<circle cx="237.5728642533159" cy="12.94747194975443" r="4.931495323622157" fill="white" opacity="0.3"/>
<circle cx="90.40087005553832" cy="349.2649287532523" r="3.8175230811360077" fill="white" opacity="0.3"/>
<circle cx="268.5432987922939" cy="242.66779080374684" r="2.678375288394211" fill="white" opacity="0.3"/>
<circle cx="66.5541190623805" cy="322.3700893014956" r="6.303257001110542" fill="white" opacity="0.3"/>
<circle cx="253.20733488756463" cy="176.72543810064676" r="4.339750316134173" fill="white" opacity="0.3"/>
<circle cx="296.0081926785998" cy="83.07833663530087" r="6.821276959294292" fill="white" opacity="0.3"/>
<circle cx="11.917150825403544" cy="227.90958297354402" r="5.216370462486189" fill="white" opacity="0.3"/>
<circle cx="345.4976037955075" cy="189.01472115821701" r="3.4094811254149735" fill="white" opacity="0.3"/>
<circle cx="357.4624456616449" cy="9.062512428793701" r="4.415213944938489" fill="white" opacity="0.3"/>
<circle cx="256.19224860768935" cy="368.8462354836272" r="4.765907501781426" fill="white" opacity="0.3"/>
<circle cx="112.64434634149248" cy="128.5752579128148" r="2.9988273156134424" fill="white" opacity="0.3"/>
<circle cx="124.63141356837922" cy="308.4799158482812" r="4.201799140511147" fill="white" opacity="0.3"/>
<rect x="100" y="20" width="200" height="40" 
              fill="#0066CC" opacity="0.8"/>
<text x="200" y="45" text-anchor="middle" font-size="20" 
              fill="white">brightwater</text>
</svg>