<svg width="400" height="400" viewBox="0 0 400 400" xmlns="http://www.w3.org/2000/svg">
<defs>

        <linearGradient id="loc-ocean" x1="0%" y1="0%" x2="100%" y2="100%">
          <stop offset="0%" stop-color="#001F3F"/><stop offset="50%" stop-color="#003D7A"/><stop offset="100%" stop-color="#0066CC"/>
        </linearGradient>

        <linearGradient id="loc-depth" x1="0%" y1="0%" x2="100%" y2="100%">
          <stop offset="0%" stop-color="#000033"/><stop offset="50%" stop-color="#001F3F"/><stop offset="100%" stop-color="#003366"/>
        </linearGradient>

        <linearGradient id="loc-coral" x1="0%" y1="0%" x2="100%" y2="100%">
          <stop offset="0%" stop-color="#FF6B6B"/><stop offset="50%" stop-color="#FF8E53"/><stop offset="100%" stop-color="#FE6B8B"/>
        </linearGradient>

        <filter id="loc-shadow">
          <feDropShadow dx="2" dy="2" stdDeviation="3" flood-opacity="0.3"/>
        </filter>
</defs>
<rect width="400" height="400" fill="url(#loc-ocean)"/>
<ellipse cx="273.3263644983191" cy="310.23164366696676" rx="36.422451534328246" 
                  ry="52.27670862337152" fill="#004C99" 
                  opacity="0.7"/>
<ellipse cx="381.45880523623197" cy="301.75533289120705" rx="46.13926165754133" 
                  ry="55.76711178576795" fill="#004C99" 
                  opacity="0.7"/>
<ellipse cx="383.2401064464261" cy="253.95919510852087" rx="20.511972970844745" 
                  ry="50.4508373771385" fill="#004C99" 
                  opacity="0.7"/>
<ellipse cx="280.11265806354106" cy="294.54173164591066" rx="39.82333991088096" 
                  ry="44.12979362065383" fill="#004C99" 
                  opacity="0.7"/>
<ellipse cx="365.83066459803695" cy="252.6965107143992" rx="42.938880257270135" 
                  ry="53.687361129499614" fill="#004C99" 
                  opacity="0.7"/>
<ellipse cx="296.3602977894911" cy="252.85094480546212" rx="15" ry="8" 
                  fill="#00A3E0" transform="rotate(-13.56713135910754 296.3602977894911 252.85094480546212)"/>
<ellipse cx="292.04578917399874" cy="124.78951937556604" rx="15" ry="8" 
                  fill="#00A3E0" transform="rotate(-13.168439120877489 292.04578917399874 124.78951937556604)"/>
<ellipse cx="113.41740952723511" cy="56.71754813014098" rx="15" ry="8" 
                  fill="#00A3E0" transform="rotate(7.509386128162269 113.41740952723511 56.71754813014098)"/>
<ellipse cx="382.3427768632004" cy="272.60570060355747" rx="15" ry="8" 
                  fill="#00A3E0" transform="rotate(12.27816449721091 382.3427768632004 272.60570060355747)"/>
<ellipse cx="341.29555511685203" cy="66.32339646212682" rx="15" ry="8" 
                  fill="#00A3E0" transform="rotate(-4.230841965057115 341.29555511685203 66.32339646212682)"/>
<ellipse cx="221.0779597280475" cy="325.57112841166935" rx="15" ry="8" 
                  fill="#00A3E0" transform="rotate(-2.5227711889503546 221.0779597280475 325.57112841166935)"/>
<ellipse cx="6.975055702087785" cy="305.51161896835913" rx="15" ry="8" 
                  fill="#00A3E0" transform="rotate(1.0759961882355142 6.975055702087785 305.51161896835913)"/>
<ellipse cx="46.844783213569215" cy="113.00082072964793" rx="15" ry="8" 
                  fill="#00A3E0" transform="rotate(-10.467220340961529 46.844783213569215 113.00082072964793)"/>
<circle cx="92.52239025256782" cy="364.53947813058505" r="6.2276877398917865" fill="white" opacity="0.3"/>
<circle cx="339.64943445403867" cy="88.59907270024516" r="3.8030904175724145" fill="white" opacity="0.3"/>
<circle cx="201.1231370949322" cy="95.720190121077" r="4.566582110176885" fill="white" opacity="0.3"/>
<circle cx="42.76216727741868" cy="234.23586150159733" r="3.5712039889081653" fill="white" opacity="0.3"/>
<circle cx="202.2061476383668" cy="127.1634818007402" r="5.839610267003824" fill="white" opacity="0.3"/>
<circle cx="7.130459210721796" cy="347.28980628232534" r="3.9615648657533753" fill="white" opacity="0.3"/>
<circle cx="251.28736998874635" cy="370.27354990536713" r="4.384043462183959" fill="white" opacity="0.3"/>
<circle cx="174.9488817749143" cy="346.74090297026197" r="2.9391638683887877" fill="white" opacity="0.3"/>
<circle cx="213.45750789868893" cy="25.52235887626173" r="3.963486066806155" fill="white" opacity="0.3"/>
<circle cx="243.9208941138447" cy="258.7221318923382" r="3.163077359109206" fill="white" opacity="0.3"/>
<circle cx="194.26164073676225" cy="242.9796629341852" r="2.6659369305541043" fill="white" opacity="0.3"/>
<circle cx="361.4813504275795" cy="160.22661398924046" r="4.398748386203913" fill="white" opacity="0.3"/>
<circle cx="390.1764344291885" cy="217.15979755202176" r="6.3428258157612385" fill="white" opacity="0.3"/>
<circle cx="308.91402085939046" cy="45.99127890618231" r="4.363735218230545" fill="white" opacity="0.3"/>
<circle cx="213.5317766602291" cy="369.08927515257324" r="3.984029414704678" fill="white" opacity="0.3"/>
<circle cx="33.31120553445368" cy="97.62398279138367" r="4.674585366287569" fill="white" opacity="0.3"/>
<circle cx="83.20748876579307" cy="104.90584346953086" r="6.191451447490827" fill="white" opacity="0.3"/>
<circle cx="362.2553561685569" cy="126.49146946614556" r="3.302549218700345" fill="white" opacity="0.3"/>
<circle cx="245.61121602080948" cy="56.14495581115308" r="4.282361858571983" fill="white" opacity="0.3"/>
<circle cx="5.339256743509946" cy="292.6666641601897" r="4.01222352482122" fill="white" opacity="0.3"/>
<rect x="100" y="20" width="200" height="40" 
              fill="#0066CC" opacity="0.8"/>
<text x="200" y="45" text-anchor="middle" font-size="20" 
              fill="white">method</text>
</svg>