<svg width="400" height="400" viewBox="0 0 400 400" xmlns="http://www.w3.org/2000/svg">
<defs>

        <linearGradient id="loc-ocean" x1="0%" y1="0%" x2="100%" y2="100%">
          <stop offset="0%" stop-color="#001F3F"/><stop offset="50%" stop-color="#003D7A"/><stop offset="100%" stop-color="#0066CC"/>
        </linearGradient>

        <linearGradient id="loc-depth" x1="0%" y1="0%" x2="100%" y2="100%">
          <stop offset="0%" stop-color="#000033"/><stop offset="50%" stop-color="#001F3F"/><stop offset="100%" stop-color="#003366"/>
        </linearGradient>

        <linearGradient id="loc-coral" x1="0%" y1="0%" x2="100%" y2="100%">
          <stop offset="0%" stop-color="#FF6B6B"/><stop offset="50%" stop-color="#FF8E53"/><stop offset="100%" stop-color="#FE6B8B"/>
        </linearGradient>

        <filter id="loc-shadow">
          <feDropShadow dx="2" dy="2" stdDeviation="3" flood-opacity="0.3"/>
        </filter>
</defs>
<rect width="400" height="400" fill="url(#loc-ocean)"/>
<ellipse cx="271.03998333800223" cy="276.0351309265556" rx="38.85488399484864" 
                  ry="31.8496279123708" fill="#004C99" 
                  opacity="0.7"/>
<ellipse cx="389.82860190926783" cy="327.1227266531622" rx="39.47990202122625" 
                  ry="39.634645600130625" fill="#004C99" 
                  opacity="0.7"/>
<ellipse cx="31.385210067274194" cy="304.1079716399336" rx="27.191143131671332" 
                  ry="53.30262595828789" fill="#004C99" 
                  opacity="0.7"/>
<ellipse cx="180.41562345556676" cy="337.5485542368432" rx="38.941730743401216" 
                  ry="64.63161654587272" fill="#004C99" 
                  opacity="0.7"/>
<ellipse cx="372.66157018477287" cy="303.8781372264831" rx="37.85590172928209" 
                  ry="61.063857833200316" fill="#004C99" 
                  opacity="0.7"/>
<ellipse cx="208.17226686852055" cy="156.6257869408646" rx="15" ry="8" 
                  fill="#00A3E0" transform="rotate(2.649315428453363 208.17226686852055 156.6257869408646)"/>
<ellipse cx="192.40230159198813" cy="99.77671314325254" rx="15" ry="8" 
                  fill="#00A3E0" transform="rotate(-10.844122960605356 192.40230159198813 99.77671314325254)"/>
<ellipse cx="12.852859723039645" cy="155.28916529273639" rx="15" ry="8" 
                  fill="#00A3E0" transform="rotate(-13.81596079119759 12.852859723039645 155.28916529273639)"/>
<ellipse cx="6.81325637139909" cy="232.5001330099171" rx="15" ry="8" 
                  fill="#00A3E0" transform="rotate(-8.039014425525062 6.81325637139909 232.5001330099171)"/>
<ellipse cx="157.5903303968844" cy="304.319960817648" rx="15" ry="8" 
                  fill="#00A3E0" transform="rotate(-2.710279826923891 157.5903303968844 304.319960817648)"/>
<ellipse cx="282.67893887823544" cy="305.0297625711145" rx="15" ry="8" 
                  fill="#00A3E0" transform="rotate(-11.14450942250641 282.67893887823544 305.0297625711145)"/>
<ellipse cx="174.59533642661165" cy="317.4986243844984" rx="15" ry="8" 
                  fill="#00A3E0" transform="rotate(6.858055090760303 174.59533642661165 317.4986243844984)"/>
<ellipse cx="168.28237575617794" cy="164.83962621371242" rx="15" ry="8" 
                  fill="#00A3E0" transform="rotate(10.80859007036159 168.28237575617794 164.83962621371242)"/>
<circle cx="28.69409017276685" cy="27.59060260037378" r="5.851858840228905" fill="white" opacity="0.3"/>
<circle cx="106.84025604258358" cy="382.96243926702397" r="6.088093862438154" fill="white" opacity="0.3"/>
<circle cx="6.095416786662522" cy="160.08003742477027" r="4.2684455329899516" fill="white" opacity="0.3"/>
<circle cx="226.12397725412583" cy="396.2236927894295" r="5.7895319964035235" fill="white" opacity="0.3"/>
<circle cx="175.32216602101593" cy="283.07399881918735" r="3.8333009461913363" fill="white" opacity="0.3"/>
<circle cx="331.09918740853783" cy="133.92881217024754" r="3.9180686742503514" fill="white" opacity="0.3"/>
<circle cx="375.57367233057926" cy="196.52967149039893" r="4.074261251046369" fill="white" opacity="0.3"/>
<circle cx="345.9238429674099" cy="211.19914958066386" r="3.4748073038596066" fill="white" opacity="0.3"/>
<circle cx="108.50441639303506" cy="3.134157684878147" r="6.399041324612795" fill="white" opacity="0.3"/>
<circle cx="239.1560305300971" cy="388.93520848311744" r="6.1410080852916415" fill="white" opacity="0.3"/>
<circle cx="14.389235872472383" cy="333.44879305851595" r="2.163947241901706" fill="white" opacity="0.3"/>
<circle cx="323.98968084504844" cy="55.59730020756861" r="6.891110115311352" fill="white" opacity="0.3"/>
<circle cx="200.02605207111395" cy="282.86265421232906" r="4.627346337624732" fill="white" opacity="0.3"/>
<circle cx="173.34539247522582" cy="272.09907887812915" r="2.001495333341664" fill="white" opacity="0.3"/>
<circle cx="270.1622968191147" cy="145.0991124217643" r="4.247596092435234" fill="white" opacity="0.3"/>
<circle cx="170.75864123742005" cy="349.2400053611084" r="6.996102631619721" fill="white" opacity="0.3"/>
<circle cx="307.4985929787112" cy="32.10936478329454" r="4.856272017793884" fill="white" opacity="0.3"/>
<circle cx="310.3274941773496" cy="98.9483557540913" r="5.455128244029814" fill="white" opacity="0.3"/>
<circle cx="222.9115488220023" cy="372.4318415086549" r="6.789281240126072" fill="white" opacity="0.3"/>
<circle cx="389.9648135520316" cy="113.7398847254361" r="2.300571169309924" fill="white" opacity="0.3"/>
<rect x="100" y="20" width="200" height="40" 
              fill="#0066CC" opacity="0.8"/>
<text x="200" y="45" text-anchor="middle" font-size="20" 
              fill="white">aquabyssos</text>
</svg>