<svg width="400" height="400" viewBox="0 0 400 400" xmlns="http://www.w3.org/2000/svg">
<defs>

        <linearGradient id="loc-ocean" x1="0%" y1="0%" x2="100%" y2="100%">
          <stop offset="0%" stop-color="#001F3F"/><stop offset="50%" stop-color="#003D7A"/><stop offset="100%" stop-color="#0066CC"/>
        </linearGradient>

        <linearGradient id="loc-depth" x1="0%" y1="0%" x2="100%" y2="100%">
          <stop offset="0%" stop-color="#000033"/><stop offset="50%" stop-color="#001F3F"/><stop offset="100%" stop-color="#003366"/>
        </linearGradient>

        <linearGradient id="loc-coral" x1="0%" y1="0%" x2="100%" y2="100%">
          <stop offset="0%" stop-color="#FF6B6B"/><stop offset="50%" stop-color="#FF8E53"/><stop offset="100%" stop-color="#FE6B8B"/>
        </linearGradient>

        <filter id="loc-shadow">
          <feDropShadow dx="2" dy="2" stdDeviation="3" flood-opacity="0.3"/>
        </filter>
</defs>
<rect width="400" height="400" fill="url(#loc-ocean)"/>
<ellipse cx="253.1102372232458" cy="282.37025918610266" rx="29.10325380199262" 
                  ry="46.57148619191686" fill="#004C99" 
                  opacity="0.7"/>
<ellipse cx="348.7559781561563" cy="304.78321579365985" rx="37.9213340407838" 
                  ry="57.36337788496509" fill="#004C99" 
                  opacity="0.7"/>
<ellipse cx="346.0242231794182" cy="254.81342664098517" rx="33.39513908037586" 
                  ry="66.23195361356682" fill="#004C99" 
                  opacity="0.7"/>
<ellipse cx="94.98780544875495" cy="291.21527311692245" rx="22.776721972390376" 
                  ry="59.525462337349914" fill="#004C99" 
                  opacity="0.7"/>
<ellipse cx="163.95362683774417" cy="256.49044236730873" rx="35.26369341365566" 
                  ry="54.377302846520244" fill="#004C99" 
                  opacity="0.7"/>
<ellipse cx="106.77406081675356" cy="228.0442587639284" rx="15" ry="8" 
                  fill="#00A3E0" transform="rotate(-5.908632452798857 106.77406081675356 228.0442587639284)"/>
<ellipse cx="370.43071825249535" cy="231.06635427424612" rx="15" ry="8" 
                  fill="#00A3E0" transform="rotate(-14.323809933880284 370.43071825249535 231.06635427424612)"/>
<ellipse cx="368.5799815952573" cy="241.68497217356958" rx="15" ry="8" 
                  fill="#00A3E0" transform="rotate(14.274407723759808 368.5799815952573 241.68497217356958)"/>
<ellipse cx="306.50504202728774" cy="99.78648753925658" rx="15" ry="8" 
                  fill="#00A3E0" transform="rotate(-4.930469751534204 306.50504202728774 99.78648753925658)"/>
<ellipse cx="360.7222842618219" cy="197.4436691323656" rx="15" ry="8" 
                  fill="#00A3E0" transform="rotate(8.990329537491192 360.7222842618219 197.4436691323656)"/>
<ellipse cx="9.661184117865274" cy="208.9761484221272" rx="15" ry="8" 
                  fill="#00A3E0" transform="rotate(-7.188235178794593 9.661184117865274 208.9761484221272)"/>
<ellipse cx="77.946279363108" cy="143.95056265074436" rx="15" ry="8" 
                  fill="#00A3E0" transform="rotate(8.934143827667075 77.946279363108 143.95056265074436)"/>
<ellipse cx="216.78953592908394" cy="86.26329794104646" rx="15" ry="8" 
                  fill="#00A3E0" transform="rotate(-0.49319582356095637 216.78953592908394 86.26329794104646)"/>
<circle cx="45.86660720066234" cy="199.51868525333626" r="3.699495441066494" fill="white" opacity="0.3"/>
<circle cx="330.09710236332205" cy="394.2981466834438" r="3.936868010526786" fill="white" opacity="0.3"/>
<circle cx="146.0577849367391" cy="319.7539782068468" r="4.110933656315526" fill="white" opacity="0.3"/>
<circle cx="291.8352653199986" cy="293.66109019839064" r="5.2125447068785835" fill="white" opacity="0.3"/>
<circle cx="171.66039689236808" cy="6.56942382015866" r="5.05254456968187" fill="white" opacity="0.3"/>
<circle cx="36.757972830842654" cy="285.0291366974813" r="3.2854134296979143" fill="white" opacity="0.3"/>
<circle cx="60.77932442815901" cy="48.5374674480596" r="3.466258435729176" fill="white" opacity="0.3"/>
<circle cx="38.32470411861837" cy="224.64331915849138" r="2.321497635952343" fill="white" opacity="0.3"/>
<circle cx="125.48102438368277" cy="140.6137991268527" r="4.42130008126507" fill="white" opacity="0.3"/>
<circle cx="162.39653935863672" cy="65.0214294978698" r="5.706229300446402" fill="white" opacity="0.3"/>
<circle cx="119.37188361406537" cy="190.46957646595365" r="5.125522484821535" fill="white" opacity="0.3"/>
<circle cx="53.04522366700741" cy="107.1219335271497" r="3.5839065341112053" fill="white" opacity="0.3"/>
<circle cx="365.6045907023405" cy="46.27531272840475" r="6.212190592183047" fill="white" opacity="0.3"/>
<circle cx="393.1755158280687" cy="227.54563049739826" r="3.865936642370312" fill="white" opacity="0.3"/>
<circle cx="162.65075918123375" cy="116.42129366803728" r="5.131845301863263" fill="white" opacity="0.3"/>
<circle cx="242.54543518263273" cy="284.8021293342623" r="5.89047915652557" fill="white" opacity="0.3"/>
<circle cx="224.5180604553858" cy="63.931769210422914" r="4.169287671081542" fill="white" opacity="0.3"/>
<circle cx="216.74074182315954" cy="90.51298430009425" r="2.666467289599546" fill="white" opacity="0.3"/>
<circle cx="196.64995189017884" cy="258.97722141406206" r="3.0566216299482885" fill="white" opacity="0.3"/>
<circle cx="282.02386644627984" cy="182.79361549881907" r="6.96107652437443" fill="white" opacity="0.3"/>
<rect x="100" y="20" width="200" height="40" 
              fill="#0066CC" opacity="0.8"/>
<text x="200" y="45" text-anchor="middle" font-size="20" 
              fill="white">techniques</text>
</svg>