<svg width="400" height="400" viewBox="0 0 400 400" xmlns="http://www.w3.org/2000/svg">
<defs>

        <linearGradient id="loc-ocean" x1="0%" y1="0%" x2="100%" y2="100%">
          <stop offset="0%" stop-color="#001F3F"/><stop offset="50%" stop-color="#003D7A"/><stop offset="100%" stop-color="#0066CC"/>
        </linearGradient>

        <linearGradient id="loc-depth" x1="0%" y1="0%" x2="100%" y2="100%">
          <stop offset="0%" stop-color="#000033"/><stop offset="50%" stop-color="#001F3F"/><stop offset="100%" stop-color="#003366"/>
        </linearGradient>

        <linearGradient id="loc-coral" x1="0%" y1="0%" x2="100%" y2="100%">
          <stop offset="0%" stop-color="#FF6B6B"/><stop offset="50%" stop-color="#FF8E53"/><stop offset="100%" stop-color="#FE6B8B"/>
        </linearGradient>

        <filter id="loc-shadow">
          <feDropShadow dx="2" dy="2" stdDeviation="3" flood-opacity="0.3"/>
        </filter>
</defs>
<rect width="400" height="400" fill="url(#loc-ocean)"/>
<ellipse cx="160.03488669700184" cy="322.3218403734183" rx="36.645180043933735" 
                  ry="33.969077201641106" fill="#004C99" 
                  opacity="0.7"/>
<ellipse cx="81.6078013433299" cy="333.07878942921843" rx="26.419528112833312" 
                  ry="62.80813121106149" fill="#004C99" 
                  opacity="0.7"/>
<ellipse cx="179.06959460072835" cy="252.51030498464098" rx="49.811449499189735" 
                  ry="57.23754245142026" fill="#004C99" 
                  opacity="0.7"/>
<ellipse cx="147.66335761298018" cy="313.52024461594937" rx="29.892449409676527" 
                  ry="34.66402569441564" fill="#004C99" 
                  opacity="0.7"/>
<ellipse cx="154.0027222101402" cy="316.41807357405327" rx="38.44126581444136" 
                  ry="56.03097644143806" fill="#004C99" 
                  opacity="0.7"/>
<ellipse cx="258.3547410761738" cy="71.7852259063833" rx="15" ry="8" 
                  fill="#00A3E0" transform="rotate(-13.128430654086667 258.3547410761738 71.7852259063833)"/>
<ellipse cx="359.1557965989184" cy="327.042544767891" rx="15" ry="8" 
                  fill="#00A3E0" transform="rotate(-9.38611453874913 359.1557965989184 327.042544767891)"/>
<ellipse cx="179.1586729045688" cy="155.71665868241155" rx="15" ry="8" 
                  fill="#00A3E0" transform="rotate(-8.41457224435862 179.1586729045688 155.71665868241155)"/>
<ellipse cx="253.5236716775177" cy="79.63967964419476" rx="15" ry="8" 
                  fill="#00A3E0" transform="rotate(-10.251036013196542 253.5236716775177 79.63967964419476)"/>
<ellipse cx="171.0984878798412" cy="182.2051957952015" rx="15" ry="8" 
                  fill="#00A3E0" transform="rotate(11.545425651124702 171.0984878798412 182.2051957952015)"/>
<ellipse cx="293.5470658438101" cy="237.17850241485348" rx="15" ry="8" 
                  fill="#00A3E0" transform="rotate(11.347490921335922 293.5470658438101 237.17850241485348)"/>
<ellipse cx="203.80420629099984" cy="210.7205362457795" rx="15" ry="8" 
                  fill="#00A3E0" transform="rotate(5.987948370008706 203.80420629099984 210.7205362457795)"/>
<ellipse cx="31.648263053232828" cy="308.8349395700357" rx="15" ry="8" 
                  fill="#00A3E0" transform="rotate(5.208711841963542 31.648263053232828 308.8349395700357)"/>
<circle cx="274.07097216506025" cy="361.8563600843831" r="3.999803293899319" fill="white" opacity="0.3"/>
<circle cx="104.71085365191738" cy="370.4409019010964" r="2.1572004847818818" fill="white" opacity="0.3"/>
<circle cx="230.3022128513269" cy="219.24639180786616" r="6.324015235382283" fill="white" opacity="0.3"/>
<circle cx="211.66071114474408" cy="117.52033552867012" r="6.329525274037266" fill="white" opacity="0.3"/>
<circle cx="93.47427735330065" cy="115.77375761774834" r="6.1825620269728505" fill="white" opacity="0.3"/>
<circle cx="217.64421900109045" cy="288.9511535894321" r="3.2323415576202024" fill="white" opacity="0.3"/>
<circle cx="271.37604548720003" cy="219.22484021290813" r="4.297023731444485" fill="white" opacity="0.3"/>
<circle cx="357.17497416894827" cy="323.4593089785294" r="2.9473264847909233" fill="white" opacity="0.3"/>
<circle cx="206.20853835286462" cy="176.40384503147524" r="5.174591850450323" fill="white" opacity="0.3"/>
<circle cx="387.5902731689178" cy="139.53971933430452" r="4.66528139173526" fill="white" opacity="0.3"/>
<circle cx="105.07853375177602" cy="280.0066694634496" r="2.513204881449883" fill="white" opacity="0.3"/>
<circle cx="302.14731249535384" cy="88.65913816623983" r="4.663848664395695" fill="white" opacity="0.3"/>
<circle cx="238.7948110772789" cy="382.74430712001225" r="2.864132792036017" fill="white" opacity="0.3"/>
<circle cx="104.41806802498394" cy="167.816783029897" r="6.405258764093618" fill="white" opacity="0.3"/>
<circle cx="348.87100861870545" cy="123.36246673382485" r="5.6270976998083455" fill="white" opacity="0.3"/>
<circle cx="174.23971160731085" cy="134.94079120768953" r="5.7460670016635245" fill="white" opacity="0.3"/>
<circle cx="232.49428223018657" cy="62.78719960879564" r="5.290009546529855" fill="white" opacity="0.3"/>
<circle cx="248.45367062314403" cy="300.7217390508754" r="6.606670561845306" fill="white" opacity="0.3"/>
<circle cx="394.8060436229831" cy="2.8833908333849134" r="6.342315667182006" fill="white" opacity="0.3"/>
<circle cx="234.4459246933097" cy="74.31461361090781" r="4.089775101007356" fill="white" opacity="0.3"/>
<rect x="100" y="20" width="200" height="40" 
              fill="#0066CC" opacity="0.8"/>
<text x="200" y="45" text-anchor="middle" font-size="20" 
              fill="white">gillwater</text>
</svg>