<svg width="400" height="400" viewBox="0 0 400 400" xmlns="http://www.w3.org/2000/svg">
<defs>

        <linearGradient id="loc-ocean" x1="0%" y1="0%" x2="100%" y2="100%">
          <stop offset="0%" stop-color="#001F3F"/><stop offset="50%" stop-color="#003D7A"/><stop offset="100%" stop-color="#0066CC"/>
        </linearGradient>

        <linearGradient id="loc-depth" x1="0%" y1="0%" x2="100%" y2="100%">
          <stop offset="0%" stop-color="#000033"/><stop offset="50%" stop-color="#001F3F"/><stop offset="100%" stop-color="#003366"/>
        </linearGradient>

        <linearGradient id="loc-coral" x1="0%" y1="0%" x2="100%" y2="100%">
          <stop offset="0%" stop-color="#FF6B6B"/><stop offset="50%" stop-color="#FF8E53"/><stop offset="100%" stop-color="#FE6B8B"/>
        </linearGradient>

        <filter id="loc-shadow">
          <feDropShadow dx="2" dy="2" stdDeviation="3" flood-opacity="0.3"/>
        </filter>
</defs>
<rect width="400" height="400" fill="url(#loc-ocean)"/>
<ellipse cx="81.79871759596482" cy="323.4055745091182" rx="29.984974192576743" 
                  ry="43.61359726644038" fill="#004C99" 
                  opacity="0.7"/>
<ellipse cx="373.81105072068976" cy="310.9748618687428" rx="44.93455294676096" 
                  ry="43.235563702519755" fill="#004C99" 
                  opacity="0.7"/>
<ellipse cx="355.3344911147906" cy="311.28833495214576" rx="35.76244483158574" 
                  ry="39.01290826887161" fill="#004C99" 
                  opacity="0.7"/>
<ellipse cx="1.217067224255608" cy="270.35685840325414" rx="41.065148611910686" 
                  ry="59.6561754855772" fill="#004C99" 
                  opacity="0.7"/>
<ellipse cx="83.599769240988" cy="342.81718012948596" rx="36.435173766617595" 
                  ry="50.48881108850177" fill="#004C99" 
                  opacity="0.7"/>
<ellipse cx="239.29222044122844" cy="91.5819367619994" rx="15" ry="8" 
                  fill="#00A3E0" transform="rotate(-12.074912898184373 239.29222044122844 91.5819367619994)"/>
<ellipse cx="46.361691904709005" cy="160.056806081584" rx="15" ry="8" 
                  fill="#00A3E0" transform="rotate(8.472442143420377 46.361691904709005 160.056806081584)"/>
<ellipse cx="13.070851188872634" cy="153.05063463662884" rx="15" ry="8" 
                  fill="#00A3E0" transform="rotate(-14.638576405274497 13.070851188872634 153.05063463662884)"/>
<ellipse cx="133.8972570926555" cy="307.52373524861883" rx="15" ry="8" 
                  fill="#00A3E0" transform="rotate(-0.9725654996990105 133.8972570926555 307.52373524861883)"/>
<ellipse cx="296.40207621368097" cy="208.54424125882443" rx="15" ry="8" 
                  fill="#00A3E0" transform="rotate(-4.006045807725551 296.40207621368097 208.54424125882443)"/>
<ellipse cx="257.2136636879007" cy="153.41430773661526" rx="15" ry="8" 
                  fill="#00A3E0" transform="rotate(-14.417921411809822 257.2136636879007 153.41430773661526)"/>
<ellipse cx="84.23120549485934" cy="321.3754238399674" rx="15" ry="8" 
                  fill="#00A3E0" transform="rotate(-6.224167599328336 84.23120549485934 321.3754238399674)"/>
<ellipse cx="121.13966363692712" cy="222.35920118742698" rx="15" ry="8" 
                  fill="#00A3E0" transform="rotate(-6.338858872454411 121.13966363692712 222.35920118742698)"/>
<circle cx="225.5623479611699" cy="101.51184075762232" r="4.934738562706138" fill="white" opacity="0.3"/>
<circle cx="181.70717414399041" cy="259.61638766979814" r="5.92291134855785" fill="white" opacity="0.3"/>
<circle cx="336.68764709090766" cy="182.16631025328084" r="3.0062471414268055" fill="white" opacity="0.3"/>
<circle cx="343.49062978769575" cy="26.654194551446018" r="3.7835697940197726" fill="white" opacity="0.3"/>
<circle cx="278.63726467864495" cy="235.8050584620699" r="5.93636699113858" fill="white" opacity="0.3"/>
<circle cx="25.925460451606508" cy="353.7534380956103" r="6.651959333216091" fill="white" opacity="0.3"/>
<circle cx="8.537532620595822" cy="54.27149718398532" r="5.878974247122204" fill="white" opacity="0.3"/>
<circle cx="155.2000298063873" cy="116.07036283322122" r="6.461371780990285" fill="white" opacity="0.3"/>
<circle cx="263.97252210150947" cy="284.6000661561789" r="6.991435933281333" fill="white" opacity="0.3"/>
<circle cx="334.94122623779356" cy="16.19611448767384" r="6.22238589306806" fill="white" opacity="0.3"/>
<circle cx="182.74906399294665" cy="235.79870354380787" r="3.1476837677606833" fill="white" opacity="0.3"/>
<circle cx="143.4170231008869" cy="193.3195640702734" r="4.848021205587038" fill="white" opacity="0.3"/>
<circle cx="173.74055485214882" cy="259.18909814338264" r="6.348257827670808" fill="white" opacity="0.3"/>
<circle cx="263.01626322410436" cy="288.0515483554042" r="4.3201462038957334" fill="white" opacity="0.3"/>
<circle cx="112.91139252990385" cy="86.2087744561578" r="3.813152515628107" fill="white" opacity="0.3"/>
<circle cx="331.08361812601515" cy="174.05704862040164" r="3.878388441810277" fill="white" opacity="0.3"/>
<circle cx="330.0383024736859" cy="242.0140344583101" r="3.5327429949247025" fill="white" opacity="0.3"/>
<circle cx="178.83656750096662" cy="355.12899742836595" r="4.75277204300133" fill="white" opacity="0.3"/>
<circle cx="157.59406302056055" cy="306.1581216502033" r="4.61488564964806" fill="white" opacity="0.3"/>
<circle cx="23.955549536838294" cy="222.97306135777012" r="3.9229780965868155" fill="white" opacity="0.3"/>
<rect x="100" y="20" width="200" height="40" 
              fill="#0066CC" opacity="0.8"/>
<text x="200" y="45" text-anchor="middle" font-size="20" 
              fill="white">gillwater</text>
</svg>