<svg width="400" height="400" viewBox="0 0 400 400" xmlns="http://www.w3.org/2000/svg">
<defs>

        <linearGradient id="loc-ocean" x1="0%" y1="0%" x2="100%" y2="100%">
          <stop offset="0%" stop-color="#001F3F"/><stop offset="50%" stop-color="#003D7A"/><stop offset="100%" stop-color="#0066CC"/>
        </linearGradient>

        <linearGradient id="loc-depth" x1="0%" y1="0%" x2="100%" y2="100%">
          <stop offset="0%" stop-color="#000033"/><stop offset="50%" stop-color="#001F3F"/><stop offset="100%" stop-color="#003366"/>
        </linearGradient>

        <linearGradient id="loc-coral" x1="0%" y1="0%" x2="100%" y2="100%">
          <stop offset="0%" stop-color="#FF6B6B"/><stop offset="50%" stop-color="#FF8E53"/><stop offset="100%" stop-color="#FE6B8B"/>
        </linearGradient>

        <filter id="loc-shadow">
          <feDropShadow dx="2" dy="2" stdDeviation="3" flood-opacity="0.3"/>
        </filter>
</defs>
<rect width="400" height="400" fill="url(#loc-ocean)"/>
<ellipse cx="172.78822080066726" cy="268.5544763043031" rx="25.3246769049682" 
                  ry="47.94597892476408" fill="#004C99" 
                  opacity="0.7"/>
<ellipse cx="271.64058432455846" cy="263.64663829667495" rx="43.795809984854536" 
                  ry="65.08492452246162" fill="#004C99" 
                  opacity="0.7"/>
<ellipse cx="48.075495148972976" cy="349.1314412809776" rx="26.936014254888" 
                  ry="61.17098805322394" fill="#004C99" 
                  opacity="0.7"/>
<ellipse cx="158.1242370201454" cy="304.1983504289701" rx="27.08205523130151" 
                  ry="56.19347539826171" fill="#004C99" 
                  opacity="0.7"/>
<ellipse cx="372.8420476106368" cy="265.91974953118813" rx="37.17388988248808" 
                  ry="45.13325760899899" fill="#004C99" 
                  opacity="0.7"/>
<ellipse cx="10.590217368632482" cy="271.08214572656186" rx="15" ry="8" 
                  fill="#00A3E0" transform="rotate(13.923777221911394 10.590217368632482 271.08214572656186)"/>
<ellipse cx="319.0058481538333" cy="298.0839459173261" rx="15" ry="8" 
                  fill="#00A3E0" transform="rotate(-6.023746761286297 319.0058481538333 298.0839459173261)"/>
<ellipse cx="87.5338388955576" cy="73.69339624423377" rx="15" ry="8" 
                  fill="#00A3E0" transform="rotate(0.5080949944131596 87.5338388955576 73.69339624423377)"/>
<ellipse cx="207.3162117601375" cy="236.27765002587344" rx="15" ry="8" 
                  fill="#00A3E0" transform="rotate(7.247906879223219 207.3162117601375 236.27765002587344)"/>
<ellipse cx="202.6797597490672" cy="245.84787871378174" rx="15" ry="8" 
                  fill="#00A3E0" transform="rotate(-6.230462466018205 202.6797597490672 245.84787871378174)"/>
<ellipse cx="269.7174670787365" cy="301.73923456182877" rx="15" ry="8" 
                  fill="#00A3E0" transform="rotate(1.1061607009941277 269.7174670787365 301.73923456182877)"/>
<ellipse cx="139.50910696891148" cy="344.57929740686177" rx="15" ry="8" 
                  fill="#00A3E0" transform="rotate(-3.2700963962111995 139.50910696891148 344.57929740686177)"/>
<ellipse cx="343.2220587377938" cy="268.12542754836005" rx="15" ry="8" 
                  fill="#00A3E0" transform="rotate(8.40472930394138 343.2220587377938 268.12542754836005)"/>
<circle cx="257.91219929976717" cy="162.71658140135963" r="5.2393553315495165" fill="white" opacity="0.3"/>
<circle cx="325.2867754250649" cy="310.23314957910554" r="4.880538417608889" fill="white" opacity="0.3"/>
<circle cx="303.47726788518116" cy="246.4852713997549" r="6.617212166905756" fill="white" opacity="0.3"/>
<circle cx="267.6755256148978" cy="123.94266286549893" r="4.658589137753735" fill="white" opacity="0.3"/>
<circle cx="141.6063602873875" cy="263.6388529125678" r="6.37813465064383" fill="white" opacity="0.3"/>
<circle cx="8.784499215028685" cy="57.47684268218873" r="3.660890254132117" fill="white" opacity="0.3"/>
<circle cx="351.1205944168942" cy="369.6644949112215" r="3.8016745525222824" fill="white" opacity="0.3"/>
<circle cx="116.37744806949866" cy="297.95277881581" r="3.7215595695550583" fill="white" opacity="0.3"/>
<circle cx="293.8640763099269" cy="80.65070354777633" r="6.73741024035086" fill="white" opacity="0.3"/>
<circle cx="384.57308843787115" cy="86.94482800443267" r="4.143643303463406" fill="white" opacity="0.3"/>
<circle cx="291.4858760145018" cy="395.0690827480436" r="5.751775934965222" fill="white" opacity="0.3"/>
<circle cx="74.7210061388988" cy="0.4745452728602384" r="2.222001161329874" fill="white" opacity="0.3"/>
<circle cx="97.78367085712732" cy="156.41624067363412" r="5.110995157109006" fill="white" opacity="0.3"/>
<circle cx="260.8719523344351" cy="20.796833363725888" r="5.934431902118255" fill="white" opacity="0.3"/>
<circle cx="292.4809215694281" cy="250.30292616059046" r="3.4572783224630936" fill="white" opacity="0.3"/>
<circle cx="298.1020130944981" cy="385.64844178399665" r="5.125663343973645" fill="white" opacity="0.3"/>
<circle cx="209.99883725165543" cy="0.541551078041369" r="2.5102351962800986" fill="white" opacity="0.3"/>
<circle cx="181.20257439972107" cy="159.7917585892193" r="2.929372446053111" fill="white" opacity="0.3"/>
<circle cx="87.0719668286553" cy="345.1064953482873" r="6.473834071331059" fill="white" opacity="0.3"/>
<circle cx="391.0285360320323" cy="267.9583408310731" r="4.07521631262552" fill="white" opacity="0.3"/>
<rect x="100" y="20" width="200" height="40" 
              fill="#0066CC" opacity="0.8"/>
<text x="200" y="45" text-anchor="middle" font-size="20" 
              fill="white">wine</text>
</svg>