<svg width="400" height="400" viewBox="0 0 400 400" xmlns="http://www.w3.org/2000/svg">
<defs>

        <linearGradient id="loc-ocean" x1="0%" y1="0%" x2="100%" y2="100%">
          <stop offset="0%" stop-color="#001F3F"/><stop offset="50%" stop-color="#003D7A"/><stop offset="100%" stop-color="#0066CC"/>
        </linearGradient>

        <linearGradient id="loc-depth" x1="0%" y1="0%" x2="100%" y2="100%">
          <stop offset="0%" stop-color="#000033"/><stop offset="50%" stop-color="#001F3F"/><stop offset="100%" stop-color="#003366"/>
        </linearGradient>

        <linearGradient id="loc-coral" x1="0%" y1="0%" x2="100%" y2="100%">
          <stop offset="0%" stop-color="#FF6B6B"/><stop offset="50%" stop-color="#FF8E53"/><stop offset="100%" stop-color="#FE6B8B"/>
        </linearGradient>

        <filter id="loc-shadow">
          <feDropShadow dx="2" dy="2" stdDeviation="3" flood-opacity="0.3"/>
        </filter>
</defs>
<rect width="400" height="400" fill="url(#loc-ocean)"/>
<ellipse cx="108.62492215069577" cy="276.4812764393088" rx="33.02534552178634" 
                  ry="54.86423157523437" fill="#004C99" 
                  opacity="0.7"/>
<ellipse cx="296.96918987380354" cy="341.88238131300267" rx="26.638269085812713" 
                  ry="68.55913092652452" fill="#004C99" 
                  opacity="0.7"/>
<ellipse cx="372.63794543661635" cy="337.2493240927697" rx="32.5853347089411" 
                  ry="55.912828111825974" fill="#004C99" 
                  opacity="0.7"/>
<ellipse cx="168.2280371144619" cy="325.87224302227304" rx="37.83992936372116" 
                  ry="36.22132543815543" fill="#004C99" 
                  opacity="0.7"/>
<ellipse cx="1.8451569172557747" cy="320.4855987129407" rx="35.93871150119896" 
                  ry="66.32180772677569" fill="#004C99" 
                  opacity="0.7"/>
<ellipse cx="119.6143710947056" cy="313.2965183357106" rx="15" ry="8" 
                  fill="#00A3E0" transform="rotate(-0.5194729236077951 119.6143710947056 313.2965183357106)"/>
<ellipse cx="349.6116766699634" cy="257.7029019720081" rx="15" ry="8" 
                  fill="#00A3E0" transform="rotate(-1.3414331557212265 349.6116766699634 257.7029019720081)"/>
<ellipse cx="67.13771508605366" cy="220.2757767237115" rx="15" ry="8" 
                  fill="#00A3E0" transform="rotate(10.775706941987988 67.13771508605366 220.2757767237115)"/>
<ellipse cx="77.7930214709686" cy="321.7802663078704" rx="15" ry="8" 
                  fill="#00A3E0" transform="rotate(14.309746645083258 77.7930214709686 321.7802663078704)"/>
<ellipse cx="139.63986722066593" cy="67.85956646763559" rx="15" ry="8" 
                  fill="#00A3E0" transform="rotate(14.350185414209104 139.63986722066593 67.85956646763559)"/>
<ellipse cx="178.10547439565187" cy="241.13010734836246" rx="15" ry="8" 
                  fill="#00A3E0" transform="rotate(2.884713259576568 178.10547439565187 241.13010734836246)"/>
<ellipse cx="84.53345552345928" cy="338.9398697826467" rx="15" ry="8" 
                  fill="#00A3E0" transform="rotate(-8.605803390629948 84.53345552345928 338.9398697826467)"/>
<ellipse cx="343.1849054502874" cy="161.59315212280785" rx="15" ry="8" 
                  fill="#00A3E0" transform="rotate(9.62534071951331 343.1849054502874 161.59315212280785)"/>
<circle cx="368.98352526841813" cy="190.43303875092147" r="2.657713833300514" fill="white" opacity="0.3"/>
<circle cx="4.502837858920783" cy="336.64603014000124" r="4.177433806735352" fill="white" opacity="0.3"/>
<circle cx="362.1344267946263" cy="181.00232992963566" r="2.9956476998296204" fill="white" opacity="0.3"/>
<circle cx="52.63993155525348" cy="70.96878255337731" r="2.8613408374618317" fill="white" opacity="0.3"/>
<circle cx="245.87834406336157" cy="14.785514809308742" r="4.9127287888986455" fill="white" opacity="0.3"/>
<circle cx="133.688487455967" cy="131.55930426214857" r="5.813788748750538" fill="white" opacity="0.3"/>
<circle cx="37.116742267801726" cy="183.17502173462543" r="3.1148204559713397" fill="white" opacity="0.3"/>
<circle cx="326.9436175128215" cy="37.548062238756465" r="3.4273861054676917" fill="white" opacity="0.3"/>
<circle cx="46.2201261007376" cy="394.42594813820205" r="6.873699006738804" fill="white" opacity="0.3"/>
<circle cx="103.88080023541626" cy="219.69739038631025" r="6.021708972375809" fill="white" opacity="0.3"/>
<circle cx="258.0352254839373" cy="31.932472556040548" r="4.466151600380117" fill="white" opacity="0.3"/>
<circle cx="94.58924953520054" cy="129.23279115381794" r="2.369063310439141" fill="white" opacity="0.3"/>
<circle cx="56.51514017641328" cy="346.0805855137509" r="4.092031581073238" fill="white" opacity="0.3"/>
<circle cx="268.58926369208086" cy="149.27666772862963" r="6.782474638636499" fill="white" opacity="0.3"/>
<circle cx="399.55250413867134" cy="270.2668978970633" r="4.482118709846198" fill="white" opacity="0.3"/>
<circle cx="138.4236118713429" cy="233.67808797570996" r="6.448891987143516" fill="white" opacity="0.3"/>
<circle cx="324.2292817253929" cy="358.591909763732" r="4.433510623874202" fill="white" opacity="0.3"/>
<circle cx="286.1624804817461" cy="391.50458298110885" r="3.5988982385347184" fill="white" opacity="0.3"/>
<circle cx="336.1606829638193" cy="226.75343004998365" r="5.675721869890939" fill="white" opacity="0.3"/>
<circle cx="281.8527030405969" cy="300.24675288640685" r="4.913017201786639" fill="white" opacity="0.3"/>
<rect x="100" y="20" width="200" height="40" 
              fill="#0066CC" opacity="0.8"/>
<text x="200" y="45" text-anchor="middle" font-size="20" 
              fill="white">current</text>
</svg>