<svg width="400" height="400" viewBox="0 0 400 400" xmlns="http://www.w3.org/2000/svg">
<defs>

        <linearGradient id="loc-ocean" x1="0%" y1="0%" x2="100%" y2="100%">
          <stop offset="0%" stop-color="#001F3F"/><stop offset="50%" stop-color="#003D7A"/><stop offset="100%" stop-color="#0066CC"/>
        </linearGradient>

        <linearGradient id="loc-depth" x1="0%" y1="0%" x2="100%" y2="100%">
          <stop offset="0%" stop-color="#000033"/><stop offset="50%" stop-color="#001F3F"/><stop offset="100%" stop-color="#003366"/>
        </linearGradient>

        <linearGradient id="loc-coral" x1="0%" y1="0%" x2="100%" y2="100%">
          <stop offset="0%" stop-color="#FF6B6B"/><stop offset="50%" stop-color="#FF8E53"/><stop offset="100%" stop-color="#FE6B8B"/>
        </linearGradient>

        <filter id="loc-shadow">
          <feDropShadow dx="2" dy="2" stdDeviation="3" flood-opacity="0.3"/>
        </filter>
</defs>
<rect width="400" height="400" fill="url(#loc-ocean)"/>
<ellipse cx="161.18405651568884" cy="329.3461278801593" rx="21.411379724563766" 
                  ry="62.855677205529254" fill="#004C99" 
                  opacity="0.7"/>
<ellipse cx="262.19642041516107" cy="317.46641216996954" rx="30.34260752764361" 
                  ry="61.59917714458999" fill="#004C99" 
                  opacity="0.7"/>
<ellipse cx="274.16549865947013" cy="331.54347788280785" rx="27.810359340072907" 
                  ry="53.42099652615282" fill="#004C99" 
                  opacity="0.7"/>
<ellipse cx="327.56662497261" cy="325.6469073661086" rx="41.412934119893606" 
                  ry="67.49832345378616" fill="#004C99" 
                  opacity="0.7"/>
<ellipse cx="93.03624086252889" cy="290.83991930728905" rx="43.80369808391297" 
                  ry="47.42498494523947" fill="#004C99" 
                  opacity="0.7"/>
<ellipse cx="385.36073309019895" cy="70.58972837977852" rx="15" ry="8" 
                  fill="#00A3E0" transform="rotate(-11.35350476699603 385.36073309019895 70.58972837977852)"/>
<ellipse cx="270.5326385156266" cy="326.1307126275068" rx="15" ry="8" 
                  fill="#00A3E0" transform="rotate(4.858646168445656 270.5326385156266 326.1307126275068)"/>
<ellipse cx="21.715655772796616" cy="276.62564748204466" rx="15" ry="8" 
                  fill="#00A3E0" transform="rotate(6.920444251190386 21.715655772796616 276.62564748204466)"/>
<ellipse cx="310.734736302522" cy="91.03727473541014" rx="15" ry="8" 
                  fill="#00A3E0" transform="rotate(-10.743696370189761 310.734736302522 91.03727473541014)"/>
<ellipse cx="361.8355692870505" cy="264.16753972926466" rx="15" ry="8" 
                  fill="#00A3E0" transform="rotate(5.652715732764282 361.8355692870505 264.16753972926466)"/>
<ellipse cx="104.43612414802868" cy="134.1354503944983" rx="15" ry="8" 
                  fill="#00A3E0" transform="rotate(-0.23603628092199003 104.43612414802868 134.1354503944983)"/>
<ellipse cx="48.56057858833886" cy="203.31005606312124" rx="15" ry="8" 
                  fill="#00A3E0" transform="rotate(-13.537639727699029 48.56057858833886 203.31005606312124)"/>
<ellipse cx="314.9264944981417" cy="250.29898049934982" rx="15" ry="8" 
                  fill="#00A3E0" transform="rotate(-4.750556218494859 314.9264944981417 250.29898049934982)"/>
<circle cx="157.56738656933567" cy="48.07144056942656" r="2.716280561750965" fill="white" opacity="0.3"/>
<circle cx="151.7838648143465" cy="118.51973800389368" r="4.5680975092339" fill="white" opacity="0.3"/>
<circle cx="363.31267955508076" cy="58.190932642544" r="5.6585423624065765" fill="white" opacity="0.3"/>
<circle cx="83.79507469900251" cy="139.3913194103217" r="4.115087511192181" fill="white" opacity="0.3"/>
<circle cx="389.8183248973071" cy="44.4217460924397" r="5.266117726852844" fill="white" opacity="0.3"/>
<circle cx="382.30120241332924" cy="205.32244760378347" r="4.700311535786675" fill="white" opacity="0.3"/>
<circle cx="27.514319251681798" cy="60.61237995782376" r="4.4294312558990505" fill="white" opacity="0.3"/>
<circle cx="301.40259755740306" cy="102.55351013385096" r="2.431981439121547" fill="white" opacity="0.3"/>
<circle cx="236.13518487837993" cy="384.5336659169702" r="4.941773514392172" fill="white" opacity="0.3"/>
<circle cx="322.56306092539324" cy="130.7894727873272" r="3.8402604851581907" fill="white" opacity="0.3"/>
<circle cx="103.9139894866135" cy="293.0597616760056" r="2.5498694748615196" fill="white" opacity="0.3"/>
<circle cx="140.78416781528253" cy="319.06421371855964" r="5.107308170740447" fill="white" opacity="0.3"/>
<circle cx="275.2695983329586" cy="288.79487959204454" r="3.4033891613010545" fill="white" opacity="0.3"/>
<circle cx="279.0424014620576" cy="360.2371252621784" r="2.1620139840875434" fill="white" opacity="0.3"/>
<circle cx="143.5282090890342" cy="44.236770248825685" r="3.3987642527504898" fill="white" opacity="0.3"/>
<circle cx="181.7340462681421" cy="374.8084955282424" r="5.070842639042226" fill="white" opacity="0.3"/>
<circle cx="223.74067267749928" cy="141.80499479030075" r="4.09731265569136" fill="white" opacity="0.3"/>
<circle cx="172.48985166958616" cy="251.46482697065284" r="4.747367774440196" fill="white" opacity="0.3"/>
<circle cx="312.825483910973" cy="317.25628666206427" r="5.662848306628065" fill="white" opacity="0.3"/>
<circle cx="269.26669419514644" cy="239.92522029464584" r="5.529165688456694" fill="white" opacity="0.3"/>
<rect x="100" y="20" width="200" height="40" 
              fill="#0066CC" opacity="0.8"/>
<text x="200" y="45" text-anchor="middle" font-size="20" 
              fill="white">brightwater</text>
</svg>