<svg width="400" height="400" viewBox="0 0 400 400" xmlns="http://www.w3.org/2000/svg">
<defs>

        <linearGradient id="loc-ocean" x1="0%" y1="0%" x2="100%" y2="100%">
          <stop offset="0%" stop-color="#001F3F"/><stop offset="50%" stop-color="#003D7A"/><stop offset="100%" stop-color="#0066CC"/>
        </linearGradient>

        <linearGradient id="loc-depth" x1="0%" y1="0%" x2="100%" y2="100%">
          <stop offset="0%" stop-color="#000033"/><stop offset="50%" stop-color="#001F3F"/><stop offset="100%" stop-color="#003366"/>
        </linearGradient>

        <linearGradient id="loc-coral" x1="0%" y1="0%" x2="100%" y2="100%">
          <stop offset="0%" stop-color="#FF6B6B"/><stop offset="50%" stop-color="#FF8E53"/><stop offset="100%" stop-color="#FE6B8B"/>
        </linearGradient>

        <filter id="loc-shadow">
          <feDropShadow dx="2" dy="2" stdDeviation="3" flood-opacity="0.3"/>
        </filter>
</defs>
<rect width="400" height="400" fill="url(#loc-ocean)"/>
<ellipse cx="25.744187362513713" cy="275.5226914187791" rx="29.65511555829675" 
                  ry="31.764359017858695" fill="#004C99" 
                  opacity="0.7"/>
<ellipse cx="133.3279632941717" cy="270.95563913382966" rx="48.89364747572124" 
                  ry="50.09142749480498" fill="#004C99" 
                  opacity="0.7"/>
<ellipse cx="41.300316984752385" cy="292.30231003314145" rx="37.3112133851176" 
                  ry="36.58484537450542" fill="#004C99" 
                  opacity="0.7"/>
<ellipse cx="244.45291272060933" cy="284.20681812679817" rx="22.857604648424974" 
                  ry="31.50006639926604" fill="#004C99" 
                  opacity="0.7"/>
<ellipse cx="262.4598365294296" cy="288.0815125589952" rx="41.60869097210619" 
                  ry="52.531140794040546" fill="#004C99" 
                  opacity="0.7"/>
<ellipse cx="19.232613611453033" cy="181.76973779508384" rx="15" ry="8" 
                  fill="#00A3E0" transform="rotate(-3.816024763725247 19.232613611453033 181.76973779508384)"/>
<ellipse cx="74.11084183261214" cy="114.23508918193352" rx="15" ry="8" 
                  fill="#00A3E0" transform="rotate(-7.11552731260449 74.11084183261214 114.23508918193352)"/>
<ellipse cx="78.37258721633708" cy="141.86420129296164" rx="15" ry="8" 
                  fill="#00A3E0" transform="rotate(-3.2511481262880544 78.37258721633708 141.86420129296164)"/>
<ellipse cx="25.05084167753804" cy="182.9417235990528" rx="15" ry="8" 
                  fill="#00A3E0" transform="rotate(-1.8080446600820501 25.05084167753804 182.9417235990528)"/>
<ellipse cx="357.86671134061703" cy="116.76342525299418" rx="15" ry="8" 
                  fill="#00A3E0" transform="rotate(14.075021081410775 357.86671134061703 116.76342525299418)"/>
<ellipse cx="56.42885658800929" cy="230.97830802352848" rx="15" ry="8" 
                  fill="#00A3E0" transform="rotate(-14.923979954383425 56.42885658800929 230.97830802352848)"/>
<ellipse cx="169.7376710194404" cy="101.88694897865537" rx="15" ry="8" 
                  fill="#00A3E0" transform="rotate(11.693349972169283 169.7376710194404 101.88694897865537)"/>
<ellipse cx="373.4687388955378" cy="78.22639041464208" rx="15" ry="8" 
                  fill="#00A3E0" transform="rotate(-14.615088863887554 373.4687388955378 78.22639041464208)"/>
<circle cx="340.29287148107386" cy="228.27092569116738" r="4.0441807142118975" fill="white" opacity="0.3"/>
<circle cx="71.47254180228582" cy="143.90430917126577" r="6.863338192587899" fill="white" opacity="0.3"/>
<circle cx="70.5615774156584" cy="205.38441377736004" r="4.178516839203127" fill="white" opacity="0.3"/>
<circle cx="323.23456446672776" cy="330.09454944868173" r="3.03660771753738" fill="white" opacity="0.3"/>
<circle cx="202.0178033238078" cy="264.0325122766247" r="2.0538224993299363" fill="white" opacity="0.3"/>
<circle cx="117.76413347419262" cy="71.4528747179358" r="6.360307291753678" fill="white" opacity="0.3"/>
<circle cx="288.2389208278833" cy="238.6418342571107" r="5.964039632623119" fill="white" opacity="0.3"/>
<circle cx="361.29654449513373" cy="174.71333781629963" r="4.597902449566817" fill="white" opacity="0.3"/>
<circle cx="372.67017444833033" cy="80.44964540575093" r="2.3083537943109578" fill="white" opacity="0.3"/>
<circle cx="52.52700395313199" cy="374.50503147652296" r="5.103107402144269" fill="white" opacity="0.3"/>
<circle cx="263.65665680664864" cy="386.2181546991837" r="3.789790401703108" fill="white" opacity="0.3"/>
<circle cx="113.66748291897596" cy="71.09934065702" r="4.295438090162456" fill="white" opacity="0.3"/>
<circle cx="372.95421188960967" cy="199.45034469977014" r="3.8713946117668643" fill="white" opacity="0.3"/>
<circle cx="98.99963331767339" cy="190.78126448807132" r="5.981033895557431" fill="white" opacity="0.3"/>
<circle cx="104.85286467510404" cy="104.26835016420766" r="6.227454573431935" fill="white" opacity="0.3"/>
<circle cx="370.65546362517125" cy="331.77265545790533" r="6.972569811998047" fill="white" opacity="0.3"/>
<circle cx="142.1367377467901" cy="342.9106472248852" r="4.2321504070047045" fill="white" opacity="0.3"/>
<circle cx="279.23760927031276" cy="212.30198277669686" r="2.3687585320651854" fill="white" opacity="0.3"/>
<circle cx="44.98732275394923" cy="365.39911775700915" r="5.5726179275227885" fill="white" opacity="0.3"/>
<circle cx="183.52251840224955" cy="26.92116846297563" r="6.579904410521635" fill="white" opacity="0.3"/>
<rect x="100" y="20" width="200" height="40" 
              fill="#0066CC" opacity="0.8"/>
<text x="200" y="45" text-anchor="middle" font-size="20" 
              fill="white">trade</text>
</svg>