<svg width="400" height="400" viewBox="0 0 400 400" xmlns="http://www.w3.org/2000/svg">
<defs>

        <linearGradient id="loc-ocean" x1="0%" y1="0%" x2="100%" y2="100%">
          <stop offset="0%" stop-color="#001F3F"/><stop offset="50%" stop-color="#003D7A"/><stop offset="100%" stop-color="#0066CC"/>
        </linearGradient>

        <linearGradient id="loc-depth" x1="0%" y1="0%" x2="100%" y2="100%">
          <stop offset="0%" stop-color="#000033"/><stop offset="50%" stop-color="#001F3F"/><stop offset="100%" stop-color="#003366"/>
        </linearGradient>

        <linearGradient id="loc-coral" x1="0%" y1="0%" x2="100%" y2="100%">
          <stop offset="0%" stop-color="#FF6B6B"/><stop offset="50%" stop-color="#FF8E53"/><stop offset="100%" stop-color="#FE6B8B"/>
        </linearGradient>

        <filter id="loc-shadow">
          <feDropShadow dx="2" dy="2" stdDeviation="3" flood-opacity="0.3"/>
        </filter>
</defs>
<rect width="400" height="400" fill="url(#loc-ocean)"/>
<ellipse cx="302.54581512467985" cy="287.0167542358932" rx="30.76587282957576" 
                  ry="31.99836712626899" fill="#004C99" 
                  opacity="0.7"/>
<ellipse cx="79.95650250836333" cy="297.54666417688634" rx="31.445417992153292" 
                  ry="37.71280688596977" fill="#004C99" 
                  opacity="0.7"/>
<ellipse cx="219.77080634195482" cy="258.0914933840401" rx="30.249350749808894" 
                  ry="57.53403209213299" fill="#004C99" 
                  opacity="0.7"/>
<ellipse cx="278.0603570316695" cy="300.60393215560555" rx="21.13403358739177" 
                  ry="54.47931251399418" fill="#004C99" 
                  opacity="0.7"/>
<ellipse cx="398.9565093673723" cy="306.07489256415414" rx="49.06668948729949" 
                  ry="46.69037287430031" fill="#004C99" 
                  opacity="0.7"/>
<ellipse cx="137.29866836796938" cy="269.267780438545" rx="15" ry="8" 
                  fill="#00A3E0" transform="rotate(5.274722302919262 137.29866836796938 269.267780438545)"/>
<ellipse cx="166.5548079656796" cy="303.39941228214445" rx="15" ry="8" 
                  fill="#00A3E0" transform="rotate(2.5947015620365974 166.5548079656796 303.39941228214445)"/>
<ellipse cx="99.05512062456334" cy="86.74550216228327" rx="15" ry="8" 
                  fill="#00A3E0" transform="rotate(2.4471498961752722 99.05512062456334 86.74550216228327)"/>
<ellipse cx="35.39183682010152" cy="51.546293928702845" rx="15" ry="8" 
                  fill="#00A3E0" transform="rotate(11.704995465770374 35.39183682010152 51.546293928702845)"/>
<ellipse cx="373.35386504566253" cy="322.0160446668868" rx="15" ry="8" 
                  fill="#00A3E0" transform="rotate(11.399713414769504 373.35386504566253 322.0160446668868)"/>
<ellipse cx="121.98773758408979" cy="319.6279628085955" rx="15" ry="8" 
                  fill="#00A3E0" transform="rotate(-6.299003778663801 121.98773758408979 319.6279628085955)"/>
<ellipse cx="96.27149435106173" cy="337.86098389311456" rx="15" ry="8" 
                  fill="#00A3E0" transform="rotate(-10.15574140332864 96.27149435106173 337.86098389311456)"/>
<ellipse cx="332.12580838976646" cy="136.94625576150628" rx="15" ry="8" 
                  fill="#00A3E0" transform="rotate(-5.280795488768618 332.12580838976646 136.94625576150628)"/>
<circle cx="5.305629173438842" cy="296.9778507208337" r="2.3104053124960906" fill="white" opacity="0.3"/>
<circle cx="124.01037191289599" cy="256.9863745490383" r="5.934800704766551" fill="white" opacity="0.3"/>
<circle cx="41.1240800046921" cy="356.41475752739586" r="2.4934864655614146" fill="white" opacity="0.3"/>
<circle cx="115.02789049450932" cy="224.78579860680097" r="4.221510838711777" fill="white" opacity="0.3"/>
<circle cx="347.6969780225708" cy="67.26143438659035" r="3.224211331347649" fill="white" opacity="0.3"/>
<circle cx="171.4896426311972" cy="309.85048210780485" r="6.126262946071465" fill="white" opacity="0.3"/>
<circle cx="80.88246114631698" cy="390.0556134313284" r="5.851926958512927" fill="white" opacity="0.3"/>
<circle cx="202.95466136978226" cy="97.76694667665949" r="5.300821833462424" fill="white" opacity="0.3"/>
<circle cx="7.0369994399246405" cy="50.64203998271868" r="3.637204567041148" fill="white" opacity="0.3"/>
<circle cx="182.13610782626174" cy="260.2695706886333" r="3.5854856445964005" fill="white" opacity="0.3"/>
<circle cx="29.67457273210816" cy="137.89325273894826" r="6.190535312987064" fill="white" opacity="0.3"/>
<circle cx="253.8404548040433" cy="70.30631751245413" r="5.25165579320675" fill="white" opacity="0.3"/>
<circle cx="386.7052789773238" cy="126.80940631074714" r="2.3934071642434356" fill="white" opacity="0.3"/>
<circle cx="173.28644616891805" cy="379.4680372106124" r="2.9640876515865755" fill="white" opacity="0.3"/>
<circle cx="278.79183030261004" cy="201.61113780233117" r="6.545159851813337" fill="white" opacity="0.3"/>
<circle cx="241.47319555880443" cy="258.8028355726202" r="4.06420203328212" fill="white" opacity="0.3"/>
<circle cx="327.88644392650536" cy="110.85514994765444" r="5.92357669720905" fill="white" opacity="0.3"/>
<circle cx="345.1035653794658" cy="46.17467107279403" r="5.418771881500815" fill="white" opacity="0.3"/>
<circle cx="208.429394640961" cy="359.07224707908716" r="4.59739154098271" fill="white" opacity="0.3"/>
<circle cx="265.7203099205147" cy="146.77550552642035" r="3.119916324302147" fill="white" opacity="0.3"/>
<rect x="100" y="20" width="200" height="40" 
              fill="#0066CC" opacity="0.8"/>
<text x="200" y="45" text-anchor="middle" font-size="20" 
              fill="white">bridgewater</text>
</svg>