<svg width="400" height="400" viewBox="0 0 400 400" xmlns="http://www.w3.org/2000/svg">
<defs>

        <linearGradient id="loc-ocean" x1="0%" y1="0%" x2="100%" y2="100%">
          <stop offset="0%" stop-color="#001F3F"/><stop offset="50%" stop-color="#003D7A"/><stop offset="100%" stop-color="#0066CC"/>
        </linearGradient>

        <linearGradient id="loc-depth" x1="0%" y1="0%" x2="100%" y2="100%">
          <stop offset="0%" stop-color="#000033"/><stop offset="50%" stop-color="#001F3F"/><stop offset="100%" stop-color="#003366"/>
        </linearGradient>

        <linearGradient id="loc-coral" x1="0%" y1="0%" x2="100%" y2="100%">
          <stop offset="0%" stop-color="#FF6B6B"/><stop offset="50%" stop-color="#FF8E53"/><stop offset="100%" stop-color="#FE6B8B"/>
        </linearGradient>

        <filter id="loc-shadow">
          <feDropShadow dx="2" dy="2" stdDeviation="3" flood-opacity="0.3"/>
        </filter>
</defs>
<rect width="400" height="400" fill="url(#loc-ocean)"/>
<ellipse cx="87.89717385571451" cy="297.71415308839437" rx="26.898693543908266" 
                  ry="38.689272563842366" fill="#004C99" 
                  opacity="0.7"/>
<ellipse cx="122.94627501209506" cy="320.3424549255207" rx="27.857425002971794" 
                  ry="40.55213591840871" fill="#004C99" 
                  opacity="0.7"/>
<ellipse cx="294.37440575719955" cy="318.8610113994263" rx="35.5152611765825" 
                  ry="54.972306862501036" fill="#004C99" 
                  opacity="0.7"/>
<ellipse cx="145.38871175267104" cy="260.4842286572058" rx="22.180352212061166" 
                  ry="68.60319138948421" fill="#004C99" 
                  opacity="0.7"/>
<ellipse cx="177.41783039538328" cy="326.4661463566448" rx="46.35860327679207" 
                  ry="56.07845057184776" fill="#004C99" 
                  opacity="0.7"/>
<ellipse cx="36.48859585061963" cy="242.44821372196407" rx="15" ry="8" 
                  fill="#00A3E0" transform="rotate(-14.90590559758407 36.48859585061963 242.44821372196407)"/>
<ellipse cx="149.30548583733625" cy="116.45549796029664" rx="15" ry="8" 
                  fill="#00A3E0" transform="rotate(-8.110984443512294 149.30548583733625 116.45549796029664)"/>
<ellipse cx="103.48979239925531" cy="242.9914424704405" rx="15" ry="8" 
                  fill="#00A3E0" transform="rotate(-6.708749677090873 103.48979239925531 242.9914424704405)"/>
<ellipse cx="204.72294714610118" cy="217.6722273443186" rx="15" ry="8" 
                  fill="#00A3E0" transform="rotate(-7.746830480743631 204.72294714610118 217.6722273443186)"/>
<ellipse cx="35.33347331473573" cy="296.5460052396055" rx="15" ry="8" 
                  fill="#00A3E0" transform="rotate(11.63214023793033 35.33347331473573 296.5460052396055)"/>
<ellipse cx="53.416112635514956" cy="240.08916812190805" rx="15" ry="8" 
                  fill="#00A3E0" transform="rotate(-11.558412500661891 53.416112635514956 240.08916812190805)"/>
<ellipse cx="214.7427659517806" cy="57.93335106523389" rx="15" ry="8" 
                  fill="#00A3E0" transform="rotate(-5.75363246770228 214.7427659517806 57.93335106523389)"/>
<ellipse cx="368.793041285812" cy="330.94659932327295" rx="15" ry="8" 
                  fill="#00A3E0" transform="rotate(-3.3083389630481825 368.793041285812 330.94659932327295)"/>
<circle cx="269.684320851389" cy="384.0216745824291" r="5.2924306062130615" fill="white" opacity="0.3"/>
<circle cx="263.6718731222771" cy="255.83761400856542" r="2.014725950919152" fill="white" opacity="0.3"/>
<circle cx="15.092090821085069" cy="92.56927127981957" r="6.799797998655758" fill="white" opacity="0.3"/>
<circle cx="236.39532808010952" cy="161.80987460117083" r="4.477516266779739" fill="white" opacity="0.3"/>
<circle cx="236.27326756299206" cy="106.54819866095275" r="5.176027204857633" fill="white" opacity="0.3"/>
<circle cx="84.71879075816955" cy="284.7582881528278" r="6.401157724933179" fill="white" opacity="0.3"/>
<circle cx="70.34852400964833" cy="100.00450840736632" r="5.187034610095512" fill="white" opacity="0.3"/>
<circle cx="115.68096450427676" cy="364.5597935575901" r="6.623784012845688" fill="white" opacity="0.3"/>
<circle cx="281.36929012702916" cy="114.45522642398953" r="5.673883828541643" fill="white" opacity="0.3"/>
<circle cx="270.310561665862" cy="88.3544043507249" r="5.007718356192186" fill="white" opacity="0.3"/>
<circle cx="26.939949446204146" cy="0.5983607154975257" r="6.824734270451609" fill="white" opacity="0.3"/>
<circle cx="202.06887539699702" cy="15.80989291707855" r="3.4578150257798295" fill="white" opacity="0.3"/>
<circle cx="282.68670818567574" cy="104.51220211945183" r="4.752095746983352" fill="white" opacity="0.3"/>
<circle cx="53.70239845214382" cy="341.05608257244336" r="6.972878709711531" fill="white" opacity="0.3"/>
<circle cx="95.71457386179678" cy="30.118408912393548" r="2.9317642489962656" fill="white" opacity="0.3"/>
<circle cx="228.22941222934375" cy="319.38583586432765" r="2.366231381716352" fill="white" opacity="0.3"/>
<circle cx="388.65590804881947" cy="88.94318688044348" r="4.029936704200015" fill="white" opacity="0.3"/>
<circle cx="135.93921810597004" cy="151.29381720718018" r="4.2129418110018335" fill="white" opacity="0.3"/>
<circle cx="7.583049921148666" cy="374.1214563889268" r="4.898075878144725" fill="white" opacity="0.3"/>
<circle cx="246.55861386396413" cy="333.00003347921023" r="3.080810724568651" fill="white" opacity="0.3"/>
<rect x="100" y="20" width="200" height="40" 
              fill="#0066CC" opacity="0.8"/>
<text x="200" y="45" text-anchor="middle" font-size="20" 
              fill="white">stillwater</text>
</svg>