<svg width="400" height="400" viewBox="0 0 400 400" xmlns="http://www.w3.org/2000/svg">
<defs>

        <linearGradient id="loc-ocean" x1="0%" y1="0%" x2="100%" y2="100%">
          <stop offset="0%" stop-color="#001F3F"/><stop offset="50%" stop-color="#003D7A"/><stop offset="100%" stop-color="#0066CC"/>
        </linearGradient>

        <linearGradient id="loc-depth" x1="0%" y1="0%" x2="100%" y2="100%">
          <stop offset="0%" stop-color="#000033"/><stop offset="50%" stop-color="#001F3F"/><stop offset="100%" stop-color="#003366"/>
        </linearGradient>

        <linearGradient id="loc-coral" x1="0%" y1="0%" x2="100%" y2="100%">
          <stop offset="0%" stop-color="#FF6B6B"/><stop offset="50%" stop-color="#FF8E53"/><stop offset="100%" stop-color="#FE6B8B"/>
        </linearGradient>

        <filter id="loc-shadow">
          <feDropShadow dx="2" dy="2" stdDeviation="3" flood-opacity="0.3"/>
        </filter>
</defs>
<rect width="400" height="400" fill="url(#loc-ocean)"/>
<ellipse cx="354.8748137691904" cy="258.5853345810611" rx="44.60515802162227" 
                  ry="57.48823441797371" fill="#004C99" 
                  opacity="0.7"/>
<ellipse cx="294.15530010021547" cy="347.1011628969567" rx="35.69886653039708" 
                  ry="64.73738843200621" fill="#004C99" 
                  opacity="0.7"/>
<ellipse cx="361.8460528930664" cy="277.00714454515344" rx="21.818624699483063" 
                  ry="33.60219304142853" fill="#004C99" 
                  opacity="0.7"/>
<ellipse cx="246.88665988571947" cy="337.5723291718019" rx="26.568610880444595" 
                  ry="52.18818504107188" fill="#004C99" 
                  opacity="0.7"/>
<ellipse cx="338.4207454704888" cy="304.7778946661902" rx="47.06560362581422" 
                  ry="44.67209713242422" fill="#004C99" 
                  opacity="0.7"/>
<ellipse cx="399.20098579572266" cy="308.4495921820407" rx="15" ry="8" 
                  fill="#00A3E0" transform="rotate(-4.726622863274123 399.20098579572266 308.4495921820407)"/>
<ellipse cx="149.65237768404336" cy="217.9899523786512" rx="15" ry="8" 
                  fill="#00A3E0" transform="rotate(2.414822336604825 149.65237768404336 217.9899523786512)"/>
<ellipse cx="112.44599152532535" cy="308.9340947006552" rx="15" ry="8" 
                  fill="#00A3E0" transform="rotate(7.650998900118886 112.44599152532535 308.9340947006552)"/>
<ellipse cx="126.61758898016404" cy="189.76940759759023" rx="15" ry="8" 
                  fill="#00A3E0" transform="rotate(-0.06846661004100163 126.61758898016404 189.76940759759023)"/>
<ellipse cx="140.4557380441299" cy="162.13130258909774" rx="15" ry="8" 
                  fill="#00A3E0" transform="rotate(7.357609465457685 140.4557380441299 162.13130258909774)"/>
<ellipse cx="113.15086652563848" cy="160.40890187710528" rx="15" ry="8" 
                  fill="#00A3E0" transform="rotate(12.931594737141577 113.15086652563848 160.40890187710528)"/>
<ellipse cx="330.95657297088337" cy="155.74052590117805" rx="15" ry="8" 
                  fill="#00A3E0" transform="rotate(-7.922262993152839 330.95657297088337 155.74052590117805)"/>
<ellipse cx="82.61167155722013" cy="145.40751042979247" rx="15" ry="8" 
                  fill="#00A3E0" transform="rotate(12.191489530826178 82.61167155722013 145.40751042979247)"/>
<circle cx="141.62406395285782" cy="369.56660117615206" r="5.357718656302083" fill="white" opacity="0.3"/>
<circle cx="227.48765181181824" cy="282.05454628775203" r="3.5009721596821195" fill="white" opacity="0.3"/>
<circle cx="24.63469349168608" cy="42.05471760919863" r="5.632933905314763" fill="white" opacity="0.3"/>
<circle cx="248.939907499635" cy="290.9094630720988" r="6.997528108390284" fill="white" opacity="0.3"/>
<circle cx="39.570968716313224" cy="355.2013408105843" r="3.6282931932925795" fill="white" opacity="0.3"/>
<circle cx="235.55694349020945" cy="49.892370858118085" r="4.161405625577354" fill="white" opacity="0.3"/>
<circle cx="223.25940125541942" cy="355.5619246821953" r="6.042494081844701" fill="white" opacity="0.3"/>
<circle cx="286.9378855142343" cy="140.16137736477586" r="3.935874552095791" fill="white" opacity="0.3"/>
<circle cx="197.0375665836872" cy="272.8405333309422" r="4.803532106468624" fill="white" opacity="0.3"/>
<circle cx="160.20470998748232" cy="39.99213885235604" r="3.871846394580339" fill="white" opacity="0.3"/>
<circle cx="142.19594547731919" cy="361.1734814835579" r="4.841964470332227" fill="white" opacity="0.3"/>
<circle cx="130.54867482985804" cy="40.856735439401426" r="5.493975389982923" fill="white" opacity="0.3"/>
<circle cx="181.21837884776178" cy="162.64870930960882" r="5.440100950543522" fill="white" opacity="0.3"/>
<circle cx="314.2145188778559" cy="98.95994104348671" r="2.8082250569426073" fill="white" opacity="0.3"/>
<circle cx="181.47994914447256" cy="240.01816601412628" r="4.933662225380589" fill="white" opacity="0.3"/>
<circle cx="326.00855213654876" cy="16.110529912505946" r="6.972973550821894" fill="white" opacity="0.3"/>
<circle cx="81.59927146847683" cy="140.47735096196928" r="2.6809576205314283" fill="white" opacity="0.3"/>
<circle cx="129.54574410270675" cy="125.54360039984118" r="2.7737708957227722" fill="white" opacity="0.3"/>
<circle cx="364.7760209978198" cy="197.13405086879828" r="3.037432333132836" fill="white" opacity="0.3"/>
<circle cx="122.09677790804028" cy="320.3818183762612" r="2.2045551159827785" fill="white" opacity="0.3"/>
<rect x="100" y="20" width="200" height="40" 
              fill="#0066CC" opacity="0.8"/>
<text x="200" y="45" text-anchor="middle" font-size="20" 
              fill="white">aquabyssos</text>
</svg>