<svg width="400" height="400" viewBox="0 0 400 400" xmlns="http://www.w3.org/2000/svg">
<defs>

        <linearGradient id="loc-ocean" x1="0%" y1="0%" x2="100%" y2="100%">
          <stop offset="0%" stop-color="#001F3F"/><stop offset="50%" stop-color="#003D7A"/><stop offset="100%" stop-color="#0066CC"/>
        </linearGradient>

        <linearGradient id="loc-depth" x1="0%" y1="0%" x2="100%" y2="100%">
          <stop offset="0%" stop-color="#000033"/><stop offset="50%" stop-color="#001F3F"/><stop offset="100%" stop-color="#003366"/>
        </linearGradient>

        <linearGradient id="loc-coral" x1="0%" y1="0%" x2="100%" y2="100%">
          <stop offset="0%" stop-color="#FF6B6B"/><stop offset="50%" stop-color="#FF8E53"/><stop offset="100%" stop-color="#FE6B8B"/>
        </linearGradient>

        <filter id="loc-shadow">
          <feDropShadow dx="2" dy="2" stdDeviation="3" flood-opacity="0.3"/>
        </filter>
</defs>
<rect width="400" height="400" fill="url(#loc-ocean)"/>
<ellipse cx="382.94896101435313" cy="271.13763534737876" rx="42.36217203765966" 
                  ry="48.71187211832192" fill="#004C99" 
                  opacity="0.7"/>
<ellipse cx="221.9171179617749" cy="327.56828364585164" rx="38.678349815806754" 
                  ry="60.36405273447776" fill="#004C99" 
                  opacity="0.7"/>
<ellipse cx="79.10749606661204" cy="344.34291131044887" rx="33.145807864584604" 
                  ry="41.1739932342147" fill="#004C99" 
                  opacity="0.7"/>
<ellipse cx="115.04409277023856" cy="288.02671951609494" rx="37.77832240843757" 
                  ry="40.65976763460059" fill="#004C99" 
                  opacity="0.7"/>
<ellipse cx="175.69082453621414" cy="341.27453406698464" rx="31.627065014088792" 
                  ry="49.692669127373094" fill="#004C99" 
                  opacity="0.7"/>
<ellipse cx="86.88026268916582" cy="235.84671640109994" rx="15" ry="8" 
                  fill="#00A3E0" transform="rotate(8.295319691014214 86.88026268916582 235.84671640109994)"/>
<ellipse cx="209.00373400391751" cy="178.94942197181723" rx="15" ry="8" 
                  fill="#00A3E0" transform="rotate(0.23674039834643068 209.00373400391751 178.94942197181723)"/>
<ellipse cx="79.85166890345869" cy="56.67987009619505" rx="15" ry="8" 
                  fill="#00A3E0" transform="rotate(6.223399094759511 79.85166890345869 56.67987009619505)"/>
<ellipse cx="301.20503612357356" cy="98.68786432621341" rx="15" ry="8" 
                  fill="#00A3E0" transform="rotate(1.90199544820047 301.20503612357356 98.68786432621341)"/>
<ellipse cx="21.46986500246686" cy="176.5033827797581" rx="15" ry="8" 
                  fill="#00A3E0" transform="rotate(-0.6920452927505139 21.46986500246686 176.5033827797581)"/>
<ellipse cx="294.9009264526251" cy="283.6650016369051" rx="15" ry="8" 
                  fill="#00A3E0" transform="rotate(14.939544861753166 294.9009264526251 283.6650016369051)"/>
<ellipse cx="323.45208956209837" cy="304.105505070572" rx="15" ry="8" 
                  fill="#00A3E0" transform="rotate(-3.49893643607124 323.45208956209837 304.105505070572)"/>
<ellipse cx="259.858899701295" cy="126.20951608591277" rx="15" ry="8" 
                  fill="#00A3E0" transform="rotate(12.554086620065291 259.858899701295 126.20951608591277)"/>
<circle cx="262.9630093254554" cy="154.8768580805067" r="4.486164989223546" fill="white" opacity="0.3"/>
<circle cx="25.007917793792032" cy="56.42215224790523" r="5.416904571781165" fill="white" opacity="0.3"/>
<circle cx="59.23641603965173" cy="54.32914083233622" r="5.54121726562372" fill="white" opacity="0.3"/>
<circle cx="265.52621096317245" cy="106.73748719232722" r="5.749395204580802" fill="white" opacity="0.3"/>
<circle cx="284.3403008401807" cy="371.27084277982715" r="4.301286565380671" fill="white" opacity="0.3"/>
<circle cx="251.92686197520362" cy="33.698213375219986" r="5.310872980352556" fill="white" opacity="0.3"/>
<circle cx="69.85285591923889" cy="324.255528061403" r="4.551824677698308" fill="white" opacity="0.3"/>
<circle cx="190.45725851747918" cy="298.03181998301966" r="3.760908135783991" fill="white" opacity="0.3"/>
<circle cx="161.27955982038574" cy="7.871685940485973" r="5.528286122204767" fill="white" opacity="0.3"/>
<circle cx="125.67829522538685" cy="238.42623166083538" r="3.8325606481377674" fill="white" opacity="0.3"/>
<circle cx="1.551283472664755" cy="183.76608652872162" r="4.551061492407975" fill="white" opacity="0.3"/>
<circle cx="22.354172414281727" cy="382.54487366040314" r="3.2595860541432207" fill="white" opacity="0.3"/>
<circle cx="358.1452998560945" cy="38.03452199563875" r="2.6430434378588084" fill="white" opacity="0.3"/>
<circle cx="161.21780268594011" cy="65.20831258533839" r="2.758865122451551" fill="white" opacity="0.3"/>
<circle cx="202.89768680896145" cy="175.4646475151441" r="2.5329858764836515" fill="white" opacity="0.3"/>
<circle cx="237.19592034743488" cy="206.47998016954244" r="5.98365428697643" fill="white" opacity="0.3"/>
<circle cx="3.6406184601187164" cy="185.84660279123148" r="4.2605049775461215" fill="white" opacity="0.3"/>
<circle cx="150.34419995907058" cy="125.45710872977223" r="2.0295759410181518" fill="white" opacity="0.3"/>
<circle cx="23.887937982114906" cy="109.73464417079173" r="4.923269190003852" fill="white" opacity="0.3"/>
<circle cx="378.8575235589591" cy="13.706371018130703" r="4.039359553815135" fill="white" opacity="0.3"/>
<rect x="100" y="20" width="200" height="40" 
              fill="#0066CC" opacity="0.8"/>
<text x="200" y="45" text-anchor="middle" font-size="20" 
              fill="white">scholar</text>
</svg>