<svg width="400" height="400" viewBox="0 0 400 400" xmlns="http://www.w3.org/2000/svg">
<defs>

        <linearGradient id="loc-ocean" x1="0%" y1="0%" x2="100%" y2="100%">
          <stop offset="0%" stop-color="#001F3F"/><stop offset="50%" stop-color="#003D7A"/><stop offset="100%" stop-color="#0066CC"/>
        </linearGradient>

        <linearGradient id="loc-depth" x1="0%" y1="0%" x2="100%" y2="100%">
          <stop offset="0%" stop-color="#000033"/><stop offset="50%" stop-color="#001F3F"/><stop offset="100%" stop-color="#003366"/>
        </linearGradient>

        <linearGradient id="loc-coral" x1="0%" y1="0%" x2="100%" y2="100%">
          <stop offset="0%" stop-color="#FF6B6B"/><stop offset="50%" stop-color="#FF8E53"/><stop offset="100%" stop-color="#FE6B8B"/>
        </linearGradient>

        <filter id="loc-shadow">
          <feDropShadow dx="2" dy="2" stdDeviation="3" flood-opacity="0.3"/>
        </filter>
</defs>
<rect width="400" height="400" fill="url(#loc-ocean)"/>
<ellipse cx="370.61165089011564" cy="309.0154123589159" rx="49.06046311553274" 
                  ry="65.59980624870701" fill="#004C99" 
                  opacity="0.7"/>
<ellipse cx="220.73104854911492" cy="338.8712352637837" rx="35.20385169217578" 
                  ry="59.111772320538385" fill="#004C99" 
                  opacity="0.7"/>
<ellipse cx="49.764258452768175" cy="291.15296363953104" rx="24.37675597353218" 
                  ry="65.83228272728331" fill="#004C99" 
                  opacity="0.7"/>
<ellipse cx="2.1517302275917416" cy="259.1975588714675" rx="41.71252958929677" 
                  ry="54.14785764587753" fill="#004C99" 
                  opacity="0.7"/>
<ellipse cx="370.46507873204007" cy="267.9596704621995" rx="42.56045698557555" 
                  ry="45.96783855350599" fill="#004C99" 
                  opacity="0.7"/>
<ellipse cx="289.0886365797951" cy="86.45922245842898" rx="15" ry="8" 
                  fill="#00A3E0" transform="rotate(-12.504931567406782 289.0886365797951 86.45922245842898)"/>
<ellipse cx="234.41651394888635" cy="237.1543567121035" rx="15" ry="8" 
                  fill="#00A3E0" transform="rotate(-3.388197124318461 234.41651394888635 237.1543567121035)"/>
<ellipse cx="222.3581528156224" cy="192.6853149112963" rx="15" ry="8" 
                  fill="#00A3E0" transform="rotate(7.964806097705651 222.3581528156224 192.6853149112963)"/>
<ellipse cx="64.06357646121505" cy="152.9765750969061" rx="15" ry="8" 
                  fill="#00A3E0" transform="rotate(-11.30100352723718 64.06357646121505 152.9765750969061)"/>
<ellipse cx="224.47308449084198" cy="97.36486864119058" rx="15" ry="8" 
                  fill="#00A3E0" transform="rotate(2.1026845397645673 224.47308449084198 97.36486864119058)"/>
<ellipse cx="169.94632880540723" cy="119.19515518181807" rx="15" ry="8" 
                  fill="#00A3E0" transform="rotate(3.593798112980487 169.94632880540723 119.19515518181807)"/>
<ellipse cx="385.93861211652523" cy="200.44166731530322" rx="15" ry="8" 
                  fill="#00A3E0" transform="rotate(-6.783749365890262 385.93861211652523 200.44166731530322)"/>
<ellipse cx="345.9434559771258" cy="251.0660478248903" rx="15" ry="8" 
                  fill="#00A3E0" transform="rotate(-4.947741731976141 345.9434559771258 251.0660478248903)"/>
<circle cx="389.3905653394912" cy="181.0666976635721" r="2.1061770686270993" fill="white" opacity="0.3"/>
<circle cx="262.32408609743703" cy="38.1245007582113" r="2.6432441608377166" fill="white" opacity="0.3"/>
<circle cx="244.37430592890138" cy="4.363190804666051" r="5.034235848959291" fill="white" opacity="0.3"/>
<circle cx="21.881417849939176" cy="83.20820929640371" r="6.468851609998569" fill="white" opacity="0.3"/>
<circle cx="293.41413570101855" cy="59.7204434208328" r="6.464684411429266" fill="white" opacity="0.3"/>
<circle cx="236.01271317104923" cy="109.84979678624951" r="4.200917978608999" fill="white" opacity="0.3"/>
<circle cx="99.70646075518724" cy="306.77106589232596" r="5.310181691503983" fill="white" opacity="0.3"/>
<circle cx="215.34294579148187" cy="42.36589590424678" r="3.529553450205419" fill="white" opacity="0.3"/>
<circle cx="45.35762226032007" cy="283.2849454323971" r="5.530020781244311" fill="white" opacity="0.3"/>
<circle cx="206.0603384053881" cy="188.3448272639162" r="3.6515294832433165" fill="white" opacity="0.3"/>
<circle cx="128.58741251935487" cy="318.1863213704028" r="4.908526406901393" fill="white" opacity="0.3"/>
<circle cx="66.86974538907187" cy="384.46608934309774" r="6.4150365860852085" fill="white" opacity="0.3"/>
<circle cx="296.6558772824883" cy="79.9852097175636" r="3.8559037565971193" fill="white" opacity="0.3"/>
<circle cx="278.1965192865436" cy="203.62679648407155" r="4.061020345133139" fill="white" opacity="0.3"/>
<circle cx="47.19390680568396" cy="304.61548367021555" r="4.342175047772113" fill="white" opacity="0.3"/>
<circle cx="284.179878420567" cy="1.5605812809496022" r="2.4807798133907792" fill="white" opacity="0.3"/>
<circle cx="133.9678909391365" cy="202.796497366884" r="6.485368844631647" fill="white" opacity="0.3"/>
<circle cx="355.87670946145226" cy="105.04580836186767" r="2.9621975238725886" fill="white" opacity="0.3"/>
<circle cx="198.9024663730234" cy="289.9468406331772" r="5.296191352705776" fill="white" opacity="0.3"/>
<circle cx="154.20110000082823" cy="154.80483349002805" r="2.824086767552755" fill="white" opacity="0.3"/>
<rect x="100" y="20" width="200" height="40" 
              fill="#0066CC" opacity="0.8"/>
<text x="200" y="45" text-anchor="middle" font-size="20" 
              fill="white">bridgewater</text>
</svg>