<svg width="400" height="400" viewBox="0 0 400 400" xmlns="http://www.w3.org/2000/svg">
<defs>

        <linearGradient id="loc-canopy" x1="0%" y1="0%" x2="100%" y2="100%">
          <stop offset="0%" stop-color="#006400"/><stop offset="50%" stop-color="#228B22"/><stop offset="100%" stop-color="#32CD32"/>
        </linearGradient>

        <linearGradient id="loc-moss" x1="0%" y1="0%" x2="100%" y2="100%">
          <stop offset="0%" stop-color="#8FBC8F"/><stop offset="50%" stop-color="#9ACD32"/><stop offset="100%" stop-color="#ADFF2F"/>
        </linearGradient>

        <linearGradient id="loc-bark" x1="0%" y1="0%" x2="100%" y2="100%">
          <stop offset="0%" stop-color="#8B4513"/><stop offset="50%" stop-color="#A0522D"/><stop offset="100%" stop-color="#D2691E"/>
        </linearGradient>

        <filter id="loc-shadow">
          <feDropShadow dx="2" dy="2" stdDeviation="3" flood-opacity="0.3"/>
        </filter>
</defs>
<rect width="400" height="400" fill="url(#loc-canopy)"/>
<rect x="68.34047908881436" y="334.5858050450006" width="10" height="84.3189761573072" 
                  fill="#8FBC8F"/>
<circle cx="73.34047908881436" cy="314.5858050450006" r="30" fill="#32CD32"/>
<circle cx="58.34047908881436" cy="324.5858050450006" r="25" fill="#00FF00"/>
<circle cx="88.34047908881436" cy="324.5858050450006" r="25" fill="#00FF00"/>
<rect x="148.11280309879797" y="232.48516512310925" width="10" height="114.00002500937555" 
                  fill="#8FBC8F"/>
<circle cx="153.11280309879797" cy="212.48516512310925" r="30" fill="#32CD32"/>
<circle cx="138.11280309879797" cy="222.48516512310925" r="25" fill="#00FF00"/>
<circle cx="168.11280309879797" cy="222.48516512310925" r="25" fill="#00FF00"/>
<rect x="300.73759003578056" y="263.86781992600976" width="10" height="73.9947270456291" 
                  fill="#8FBC8F"/>
<circle cx="305.73759003578056" cy="243.86781992600976" r="30" fill="#32CD32"/>
<circle cx="290.73759003578056" cy="253.86781992600976" r="25" fill="#00FF00"/>
<circle cx="320.73759003578056" cy="253.86781992600976" r="25" fill="#00FF00"/>
<rect x="242.14928271381754" y="269.8645133883258" width="10" height="101.61519601074033" 
                  fill="#8FBC8F"/>
<circle cx="247.14928271381754" cy="249.8645133883258" r="30" fill="#32CD32"/>
<circle cx="232.14928271381754" cy="259.8645133883258" r="25" fill="#00FF00"/>
<circle cx="262.14928271381757" cy="259.8645133883258" r="25" fill="#00FF00"/>
<rect x="111.33645437834454" y="226.37428434302984" width="10" height="105.44331587429998" 
                  fill="#8FBC8F"/>
<circle cx="116.33645437834454" cy="206.37428434302984" r="30" fill="#32CD32"/>
<circle cx="101.33645437834454" cy="216.37428434302984" r="25" fill="#00FF00"/>
<circle cx="131.33645437834454" cy="216.37428434302984" r="25" fill="#00FF00"/>
<rect x="233.26798720564977" y="230.85574342983233" width="10" height="129.6170096817244" 
                  fill="#8FBC8F"/>
<circle cx="238.26798720564977" cy="210.85574342983233" r="30" fill="#32CD32"/>
<circle cx="223.26798720564977" cy="220.85574342983233" r="25" fill="#00FF00"/>
<circle cx="253.26798720564977" cy="220.85574342983233" r="25" fill="#00FF00"/>
<rect x="48.1568153918387" y="212.66247472067704" width="10" height="130.4536930130178" 
                  fill="#8FBC8F"/>
<circle cx="53.1568153918387" cy="192.66247472067704" r="30" fill="#32CD32"/>
<circle cx="38.1568153918387" cy="202.66247472067704" r="25" fill="#00FF00"/>
<circle cx="68.1568153918387" cy="202.66247472067704" r="25" fill="#00FF00"/>
<rect x="88.53767350346422" y="262.2320000506214" width="10" height="107.1498033762439" 
                  fill="#8FBC8F"/>
<circle cx="93.53767350346422" cy="242.23200005062142" r="30" fill="#32CD32"/>
<circle cx="78.53767350346422" cy="252.23200005062142" r="25" fill="#00FF00"/>
<circle cx="108.53767350346422" cy="252.23200005062142" r="25" fill="#00FF00"/>
<rect x="203.44595549622883" y="220.2694033086214" width="10" height="62.07968110806184" 
                  fill="#8FBC8F"/>
<circle cx="208.44595549622883" cy="200.2694033086214" r="30" fill="#32CD32"/>
<circle cx="193.44595549622883" cy="210.2694033086214" r="25" fill="#00FF00"/>
<circle cx="223.44595549622883" cy="210.2694033086214" r="25" fill="#00FF00"/>
<rect x="55.14089541464283" y="233.0234663929109" width="10" height="70.64285054108463" 
                  fill="#8FBC8F"/>
<circle cx="60.14089541464283" cy="213.0234663929109" r="30" fill="#32CD32"/>
<circle cx="45.14089541464283" cy="223.0234663929109" r="25" fill="#00FF00"/>
<circle cx="75.14089541464283" cy="223.0234663929109" r="25" fill="#00FF00"/>
<rect x="100" y="20" width="200" height="40" 
              fill="#228B22" opacity="0.8"/>
<text x="200" y="45" text-anchor="middle" font-size="20" 
              fill="white">constituencies</text>
</svg>