<svg width="400" height="400" viewBox="0 0 400 400" xmlns="http://www.w3.org/2000/svg">
<defs>

        <linearGradient id="loc-ocean" x1="0%" y1="0%" x2="100%" y2="100%">
          <stop offset="0%" stop-color="#001F3F"/><stop offset="50%" stop-color="#003D7A"/><stop offset="100%" stop-color="#0066CC"/>
        </linearGradient>

        <linearGradient id="loc-depth" x1="0%" y1="0%" x2="100%" y2="100%">
          <stop offset="0%" stop-color="#000033"/><stop offset="50%" stop-color="#001F3F"/><stop offset="100%" stop-color="#003366"/>
        </linearGradient>

        <linearGradient id="loc-coral" x1="0%" y1="0%" x2="100%" y2="100%">
          <stop offset="0%" stop-color="#FF6B6B"/><stop offset="50%" stop-color="#FF8E53"/><stop offset="100%" stop-color="#FE6B8B"/>
        </linearGradient>

        <filter id="loc-shadow">
          <feDropShadow dx="2" dy="2" stdDeviation="3" flood-opacity="0.3"/>
        </filter>
</defs>
<rect width="400" height="400" fill="url(#loc-ocean)"/>
<ellipse cx="351.6495776336158" cy="313.25667251820755" rx="38.726414900583066" 
                  ry="45.55207078028691" fill="#004C99" 
                  opacity="0.7"/>
<ellipse cx="223.06444393936954" cy="332.37091598940606" rx="46.9390640502357" 
                  ry="30.23046869273934" fill="#004C99" 
                  opacity="0.7"/>
<ellipse cx="328.082476068571" cy="265.1966090502856" rx="40.56916947577181" 
                  ry="55.880130887741075" fill="#004C99" 
                  opacity="0.7"/>
<ellipse cx="384.2655181491926" cy="346.88945600162174" rx="34.30904340012034" 
                  ry="56.779898824753154" fill="#004C99" 
                  opacity="0.7"/>
<ellipse cx="376.07103024031517" cy="321.8594541887284" rx="20.03763934083608" 
                  ry="52.08866963208463" fill="#004C99" 
                  opacity="0.7"/>
<ellipse cx="237.58640680627096" cy="201.12733547345843" rx="15" ry="8" 
                  fill="#00A3E0" transform="rotate(-1.3285180695482843 237.58640680627096 201.12733547345843)"/>
<ellipse cx="47.969909556974464" cy="180.5142886851969" rx="15" ry="8" 
                  fill="#00A3E0" transform="rotate(-8.744336601067236 47.969909556974464 180.5142886851969)"/>
<ellipse cx="83.13877266747708" cy="63.5930077829593" rx="15" ry="8" 
                  fill="#00A3E0" transform="rotate(8.62416731985983 83.13877266747708 63.5930077829593)"/>
<ellipse cx="119.55836090103222" cy="132.42541895339156" rx="15" ry="8" 
                  fill="#00A3E0" transform="rotate(-7.98575094387882 119.55836090103222 132.42541895339156)"/>
<ellipse cx="238.6319587396795" cy="245.40053688003425" rx="15" ry="8" 
                  fill="#00A3E0" transform="rotate(-14.37625325280821 238.6319587396795 245.40053688003425)"/>
<ellipse cx="323.8377773542974" cy="79.28002443180202" rx="15" ry="8" 
                  fill="#00A3E0" transform="rotate(4.203670458662209 323.8377773542974 79.28002443180202)"/>
<ellipse cx="244.3009926888542" cy="332.31508053321943" rx="15" ry="8" 
                  fill="#00A3E0" transform="rotate(2.3250317489374233 244.3009926888542 332.31508053321943)"/>
<ellipse cx="47.8143926058042" cy="287.70080612898107" rx="15" ry="8" 
                  fill="#00A3E0" transform="rotate(-7.435757227756891 47.8143926058042 287.70080612898107)"/>
<circle cx="364.8459833149946" cy="202.00637825494496" r="6.689508436299663" fill="white" opacity="0.3"/>
<circle cx="216.03312400406986" cy="71.36131971157451" r="2.1761726637457874" fill="white" opacity="0.3"/>
<circle cx="121.83200890872699" cy="352.64113644174887" r="5.101001499575555" fill="white" opacity="0.3"/>
<circle cx="396.4573150139748" cy="88.05743961531314" r="4.0866004731747285" fill="white" opacity="0.3"/>
<circle cx="121.16771321897923" cy="27.801523836708064" r="6.476653173217749" fill="white" opacity="0.3"/>
<circle cx="233.49992661949724" cy="78.1610612299664" r="5.475070052312924" fill="white" opacity="0.3"/>
<circle cx="166.01228301199916" cy="368.3930009770291" r="6.9858364433468525" fill="white" opacity="0.3"/>
<circle cx="132.92328148524" cy="286.21907783238913" r="6.014791361285924" fill="white" opacity="0.3"/>
<circle cx="297.14483107420205" cy="210.82124510891092" r="6.9210243001654295" fill="white" opacity="0.3"/>
<circle cx="189.06345443700965" cy="209.88578883043624" r="2.0585412924979933" fill="white" opacity="0.3"/>
<circle cx="198.52957644300292" cy="91.39090917094674" r="4.757065166617151" fill="white" opacity="0.3"/>
<circle cx="100.20441849864446" cy="287.76991165087793" r="6.259723504257714" fill="white" opacity="0.3"/>
<circle cx="249.74646528967375" cy="343.17968458477776" r="5.674592953969097" fill="white" opacity="0.3"/>
<circle cx="313.8354151247099" cy="2.317069007261896" r="6.446202614383708" fill="white" opacity="0.3"/>
<circle cx="342.7963841221515" cy="73.67635218086082" r="5.300460792955519" fill="white" opacity="0.3"/>
<circle cx="386.15071494005997" cy="379.8776471566578" r="3.394205250252693" fill="white" opacity="0.3"/>
<circle cx="266.9716892079856" cy="62.128629254464855" r="5.069021143578647" fill="white" opacity="0.3"/>
<circle cx="264.11347760105957" cy="179.01398068907127" r="4.178725423486158" fill="white" opacity="0.3"/>
<circle cx="54.1510223798896" cy="30.525272838358397" r="6.382853995263714" fill="white" opacity="0.3"/>
<circle cx="360.66785254231763" cy="270.06247833062884" r="5.295992544788275" fill="white" opacity="0.3"/>
<rect x="100" y="20" width="200" height="40" 
              fill="#0066CC" opacity="0.8"/>
<text x="200" y="45" text-anchor="middle" font-size="20" 
              fill="white">government</text>
</svg>