<svg width="400" height="400" viewBox="0 0 400 400" xmlns="http://www.w3.org/2000/svg">
<defs>

        <linearGradient id="loc-ocean" x1="0%" y1="0%" x2="100%" y2="100%">
          <stop offset="0%" stop-color="#001F3F"/><stop offset="50%" stop-color="#003D7A"/><stop offset="100%" stop-color="#0066CC"/>
        </linearGradient>

        <linearGradient id="loc-depth" x1="0%" y1="0%" x2="100%" y2="100%">
          <stop offset="0%" stop-color="#000033"/><stop offset="50%" stop-color="#001F3F"/><stop offset="100%" stop-color="#003366"/>
        </linearGradient>

        <linearGradient id="loc-coral" x1="0%" y1="0%" x2="100%" y2="100%">
          <stop offset="0%" stop-color="#FF6B6B"/><stop offset="50%" stop-color="#FF8E53"/><stop offset="100%" stop-color="#FE6B8B"/>
        </linearGradient>

        <filter id="loc-shadow">
          <feDropShadow dx="2" dy="2" stdDeviation="3" flood-opacity="0.3"/>
        </filter>
</defs>
<rect width="400" height="400" fill="url(#loc-ocean)"/>
<ellipse cx="167.0918742488138" cy="310.6061194316761" rx="30.03963836715634" 
                  ry="46.25617670774055" fill="#004C99" 
                  opacity="0.7"/>
<ellipse cx="121.19466964023835" cy="343.87500089568385" rx="42.40438814836729" 
                  ry="36.952031198841546" fill="#004C99" 
                  opacity="0.7"/>
<ellipse cx="62.91674283937163" cy="328.18805929621516" rx="21.104816519622666" 
                  ry="41.534573871836066" fill="#004C99" 
                  opacity="0.7"/>
<ellipse cx="290.6544198713546" cy="344.52136765158974" rx="35.85114789088118" 
                  ry="57.484465365118155" fill="#004C99" 
                  opacity="0.7"/>
<ellipse cx="3.3890326613061905" cy="288.08762786439064" rx="32.3035465086512" 
                  ry="53.36673444246573" fill="#004C99" 
                  opacity="0.7"/>
<ellipse cx="175.31674155185516" cy="215.31517775924797" rx="15" ry="8" 
                  fill="#00A3E0" transform="rotate(5.572580062103441 175.31674155185516 215.31517775924797)"/>
<ellipse cx="140.45026218488456" cy="316.08990731095474" rx="15" ry="8" 
                  fill="#00A3E0" transform="rotate(-10.99459792202623 140.45026218488456 316.08990731095474)"/>
<ellipse cx="269.9409212907407" cy="50.20837393996869" rx="15" ry="8" 
                  fill="#00A3E0" transform="rotate(-0.7266825465413067 269.9409212907407 50.20837393996869)"/>
<ellipse cx="79.01612733490082" cy="216.20024832172447" rx="15" ry="8" 
                  fill="#00A3E0" transform="rotate(14.821119027561615 79.01612733490082 216.20024832172447)"/>
<ellipse cx="218.82429116510335" cy="325.2028201669333" rx="15" ry="8" 
                  fill="#00A3E0" transform="rotate(-10.391295232771165 218.82429116510335 325.2028201669333)"/>
<ellipse cx="241.50263500235903" cy="260.00935047566065" rx="15" ry="8" 
                  fill="#00A3E0" transform="rotate(-9.172024391507897 241.50263500235903 260.00935047566065)"/>
<ellipse cx="52.06983757454999" cy="109.22142747515684" rx="15" ry="8" 
                  fill="#00A3E0" transform="rotate(-2.5584501874466383 52.06983757454999 109.22142747515684)"/>
<ellipse cx="273.53658521602443" cy="178.56091231415613" rx="15" ry="8" 
                  fill="#00A3E0" transform="rotate(10.263587532496928 273.53658521602443 178.56091231415613)"/>
<circle cx="263.5046039747421" cy="100.80190891377399" r="2.289267243142233" fill="white" opacity="0.3"/>
<circle cx="177.077543566966" cy="230.05590078500325" r="3.8694351563979623" fill="white" opacity="0.3"/>
<circle cx="23.737166965302503" cy="159.27112733622528" r="6.952549094576707" fill="white" opacity="0.3"/>
<circle cx="180.16390413010788" cy="398.9107343497818" r="4.512037783435909" fill="white" opacity="0.3"/>
<circle cx="40.81303585458605" cy="189.76778461421392" r="5.350247612444804" fill="white" opacity="0.3"/>
<circle cx="41.19786185211343" cy="81.10549491652223" r="6.460499765893568" fill="white" opacity="0.3"/>
<circle cx="286.4846409889356" cy="98.06925914785492" r="5.004699387360893" fill="white" opacity="0.3"/>
<circle cx="258.0279831247177" cy="305.19208901589974" r="5.4041176928044115" fill="white" opacity="0.3"/>
<circle cx="147.27779391182784" cy="236.37864128955687" r="3.297432508767184" fill="white" opacity="0.3"/>
<circle cx="176.16661295376747" cy="12.318096531627276" r="4.3476815583002" fill="white" opacity="0.3"/>
<circle cx="237.98093341706107" cy="393.5544065452859" r="3.2339766992677674" fill="white" opacity="0.3"/>
<circle cx="274.2606840014167" cy="2.229050132408439" r="2.908932984768196" fill="white" opacity="0.3"/>
<circle cx="346.7453930632025" cy="358.6667580361714" r="2.106013559385606" fill="white" opacity="0.3"/>
<circle cx="246.67231984842277" cy="65.01043758490712" r="2.9108064205043047" fill="white" opacity="0.3"/>
<circle cx="217.4904607301438" cy="8.161050205642129" r="5.5355038825622795" fill="white" opacity="0.3"/>
<circle cx="47.77129565997127" cy="12.886173214996077" r="5.752784632469317" fill="white" opacity="0.3"/>
<circle cx="6.89572327725414" cy="353.6916326855145" r="5.398102698401515" fill="white" opacity="0.3"/>
<circle cx="159.72071469280263" cy="13.18811247174585" r="3.8873536933984854" fill="white" opacity="0.3"/>
<circle cx="81.1554124825459" cy="399.9630295967686" r="3.1364978324250155" fill="white" opacity="0.3"/>
<circle cx="368.6992254562483" cy="293.44975539226465" r="4.350486014920637" fill="white" opacity="0.3"/>
<rect x="100" y="20" width="200" height="40" 
              fill="#0066CC" opacity="0.8"/>
<text x="200" y="45" text-anchor="middle" font-size="20" 
              fill="white">practices</text>
</svg>