<svg width="400" height="400" viewBox="0 0 400 400" xmlns="http://www.w3.org/2000/svg">
<defs>

        <linearGradient id="loc-ocean" x1="0%" y1="0%" x2="100%" y2="100%">
          <stop offset="0%" stop-color="#001F3F"/><stop offset="50%" stop-color="#003D7A"/><stop offset="100%" stop-color="#0066CC"/>
        </linearGradient>

        <linearGradient id="loc-depth" x1="0%" y1="0%" x2="100%" y2="100%">
          <stop offset="0%" stop-color="#000033"/><stop offset="50%" stop-color="#001F3F"/><stop offset="100%" stop-color="#003366"/>
        </linearGradient>

        <linearGradient id="loc-coral" x1="0%" y1="0%" x2="100%" y2="100%">
          <stop offset="0%" stop-color="#FF6B6B"/><stop offset="50%" stop-color="#FF8E53"/><stop offset="100%" stop-color="#FE6B8B"/>
        </linearGradient>

        <filter id="loc-shadow">
          <feDropShadow dx="2" dy="2" stdDeviation="3" flood-opacity="0.3"/>
        </filter>
</defs>
<rect width="400" height="400" fill="url(#loc-ocean)"/>
<ellipse cx="184.27572683388803" cy="260.9404778419114" rx="43.66396561260979" 
                  ry="50.83906977074399" fill="#004C99" 
                  opacity="0.7"/>
<ellipse cx="220.05494840407235" cy="298.39253958379777" rx="30.820293416506768" 
                  ry="39.56613968020755" fill="#004C99" 
                  opacity="0.7"/>
<ellipse cx="139.72502797905594" cy="313.033673401543" rx="33.446555586164614" 
                  ry="50.64720943979633" fill="#004C99" 
                  opacity="0.7"/>
<ellipse cx="44.49867808781107" cy="299.5151746371941" rx="42.33843138225022" 
                  ry="52.655490326901266" fill="#004C99" 
                  opacity="0.7"/>
<ellipse cx="195.376411717469" cy="300.21355662015293" rx="43.038581807417614" 
                  ry="57.20681062191523" fill="#004C99" 
                  opacity="0.7"/>
<ellipse cx="236.52791937902612" cy="186.87374485207872" rx="15" ry="8" 
                  fill="#00A3E0" transform="rotate(-0.056266987302485916 236.52791937902612 186.87374485207872)"/>
<ellipse cx="338.5553754673303" cy="79.76886308390246" rx="15" ry="8" 
                  fill="#00A3E0" transform="rotate(1.5958582097837777 338.5553754673303 79.76886308390246)"/>
<ellipse cx="18.982677324295683" cy="80.02545574959669" rx="15" ry="8" 
                  fill="#00A3E0" transform="rotate(12.670254618697175 18.982677324295683 80.02545574959669)"/>
<ellipse cx="95.86604998582304" cy="85.30254876590244" rx="15" ry="8" 
                  fill="#00A3E0" transform="rotate(2.5891388957109207 95.86604998582304 85.30254876590244)"/>
<ellipse cx="234.03268414573662" cy="216.62342147060406" rx="15" ry="8" 
                  fill="#00A3E0" transform="rotate(-9.21168506311063 234.03268414573662 216.62342147060406)"/>
<ellipse cx="378.8668776297711" cy="187.19612519190477" rx="15" ry="8" 
                  fill="#00A3E0" transform="rotate(-0.36104327763716704 378.8668776297711 187.19612519190477)"/>
<ellipse cx="165.27649764855346" cy="153.05967072861057" rx="15" ry="8" 
                  fill="#00A3E0" transform="rotate(0.43642308872950863 165.27649764855346 153.05967072861057)"/>
<ellipse cx="393.52336815968454" cy="241.2794061962514" rx="15" ry="8" 
                  fill="#00A3E0" transform="rotate(14.378244760301218 393.52336815968454 241.2794061962514)"/>
<circle cx="171.83819793975312" cy="178.88526417445217" r="6.156380173044237" fill="white" opacity="0.3"/>
<circle cx="153.75837177678227" cy="217.66706666061611" r="2.6364219117366625" fill="white" opacity="0.3"/>
<circle cx="273.33440877586673" cy="241.51664169692322" r="4.0553048636643645" fill="white" opacity="0.3"/>
<circle cx="133.47609765304486" cy="77.50888127840145" r="5.796087295446228" fill="white" opacity="0.3"/>
<circle cx="362.47220416268726" cy="120.59781114352677" r="3.950527897646881" fill="white" opacity="0.3"/>
<circle cx="218.7090704290978" cy="210.01822618829976" r="6.095355189042947" fill="white" opacity="0.3"/>
<circle cx="55.218289153061576" cy="180.70781256467154" r="4.036659849610416" fill="white" opacity="0.3"/>
<circle cx="238.0733258528426" cy="64.41597214622709" r="3.2450287091863665" fill="white" opacity="0.3"/>
<circle cx="40.19031808711016" cy="9.975439383141138" r="3.575629300120382" fill="white" opacity="0.3"/>
<circle cx="388.6728610948607" cy="163.3657814714362" r="2.035819154225214" fill="white" opacity="0.3"/>
<circle cx="252.20669660565025" cy="397.05945823997826" r="3.847511534289504" fill="white" opacity="0.3"/>
<circle cx="110.67447184849222" cy="279.3559868899611" r="6.562597939582833" fill="white" opacity="0.3"/>
<circle cx="267.05407830396297" cy="303.07552861560595" r="4.655511240292271" fill="white" opacity="0.3"/>
<circle cx="313.58176803117675" cy="295.61609969748577" r="2.6411250432200077" fill="white" opacity="0.3"/>
<circle cx="179.0617435208799" cy="354.06206563606355" r="6.7409042034569016" fill="white" opacity="0.3"/>
<circle cx="361.17806267365154" cy="364.01414822651685" r="6.220321680876553" fill="white" opacity="0.3"/>
<circle cx="60.4548019098508" cy="17.578027697138587" r="6.047677448713244" fill="white" opacity="0.3"/>
<circle cx="345.74490064184766" cy="91.88700480563816" r="2.542529216758336" fill="white" opacity="0.3"/>
<circle cx="63.86838143948586" cy="304.76345721059363" r="2.3452902898607046" fill="white" opacity="0.3"/>
<circle cx="322.8871397703343" cy="247.96553882397055" r="6.935167833986462" fill="white" opacity="0.3"/>
<rect x="100" y="20" width="200" height="40" 
              fill="#0066CC" opacity="0.8"/>
<text x="200" y="45" text-anchor="middle" font-size="20" 
              fill="white">stillwater</text>
</svg>