<svg width="400" height="400" viewBox="0 0 400 400" xmlns="http://www.w3.org/2000/svg">
<defs>

        <linearGradient id="loc-ocean" x1="0%" y1="0%" x2="100%" y2="100%">
          <stop offset="0%" stop-color="#001F3F"/><stop offset="50%" stop-color="#003D7A"/><stop offset="100%" stop-color="#0066CC"/>
        </linearGradient>

        <linearGradient id="loc-depth" x1="0%" y1="0%" x2="100%" y2="100%">
          <stop offset="0%" stop-color="#000033"/><stop offset="50%" stop-color="#001F3F"/><stop offset="100%" stop-color="#003366"/>
        </linearGradient>

        <linearGradient id="loc-coral" x1="0%" y1="0%" x2="100%" y2="100%">
          <stop offset="0%" stop-color="#FF6B6B"/><stop offset="50%" stop-color="#FF8E53"/><stop offset="100%" stop-color="#FE6B8B"/>
        </linearGradient>

        <filter id="loc-shadow">
          <feDropShadow dx="2" dy="2" stdDeviation="3" flood-opacity="0.3"/>
        </filter>
</defs>
<rect width="400" height="400" fill="url(#loc-ocean)"/>
<ellipse cx="99.5395645075723" cy="332.5882066453221" rx="41.83108447247442" 
                  ry="59.636126373942034" fill="#004C99" 
                  opacity="0.7"/>
<ellipse cx="354.4660995211105" cy="255.5023350473226" rx="26.20857055927988" 
                  ry="53.055617038415114" fill="#004C99" 
                  opacity="0.7"/>
<ellipse cx="232.36695300135207" cy="268.91764660041355" rx="31.653505158562638" 
                  ry="54.01582340364538" fill="#004C99" 
                  opacity="0.7"/>
<ellipse cx="182.63914848292373" cy="330.7754890806674" rx="40.41776152229551" 
                  ry="58.895407466028914" fill="#004C99" 
                  opacity="0.7"/>
<ellipse cx="55.30110405668638" cy="316.93396795656207" rx="28.189718231449717" 
                  ry="69.84901872086783" fill="#004C99" 
                  opacity="0.7"/>
<ellipse cx="352.38630090366956" cy="151.64081866981968" rx="15" ry="8" 
                  fill="#00A3E0" transform="rotate(11.002730432011589 352.38630090366956 151.64081866981968)"/>
<ellipse cx="11.450078346879211" cy="187.9128462342744" rx="15" ry="8" 
                  fill="#00A3E0" transform="rotate(3.7217721702877036 11.450078346879211 187.9128462342744)"/>
<ellipse cx="118.71565014006032" cy="215.00046303800846" rx="15" ry="8" 
                  fill="#00A3E0" transform="rotate(-5.791690106286474 118.71565014006032 215.00046303800846)"/>
<ellipse cx="36.79798932238194" cy="110.22951898323318" rx="15" ry="8" 
                  fill="#00A3E0" transform="rotate(-6.04572269359765 36.79798932238194 110.22951898323318)"/>
<ellipse cx="49.09788973286968" cy="175.575848320585" rx="15" ry="8" 
                  fill="#00A3E0" transform="rotate(-14.885493078126109 49.09788973286968 175.575848320585)"/>
<ellipse cx="141.92434270409268" cy="151.83314263729577" rx="15" ry="8" 
                  fill="#00A3E0" transform="rotate(-14.90310054899046 141.92434270409268 151.83314263729577)"/>
<ellipse cx="268.9765442303352" cy="160.68947126766136" rx="15" ry="8" 
                  fill="#00A3E0" transform="rotate(-6.706195931090463 268.9765442303352 160.68947126766136)"/>
<ellipse cx="235.8247068477051" cy="301.35785429777457" rx="15" ry="8" 
                  fill="#00A3E0" transform="rotate(12.493456593440772 235.8247068477051 301.35785429777457)"/>
<circle cx="52.66705105700326" cy="373.30709207044697" r="3.890868953357864" fill="white" opacity="0.3"/>
<circle cx="284.5977887522918" cy="156.7749356364091" r="5.820202988379225" fill="white" opacity="0.3"/>
<circle cx="352.7225148751032" cy="208.40533511297048" r="3.461122143229183" fill="white" opacity="0.3"/>
<circle cx="113.37196959694849" cy="375.1045678398598" r="6.422570678726891" fill="white" opacity="0.3"/>
<circle cx="186.751766127249" cy="347.5253722631578" r="6.183056651996622" fill="white" opacity="0.3"/>
<circle cx="103.81494950827603" cy="367.9363010740606" r="5.368033779502712" fill="white" opacity="0.3"/>
<circle cx="192.73077181055987" cy="355.9110263132469" r="5.558558930267504" fill="white" opacity="0.3"/>
<circle cx="243.46417452600653" cy="190.13320585722718" r="6.818418074408378" fill="white" opacity="0.3"/>
<circle cx="20.791650250845926" cy="242.5627888649389" r="3.933099600812056" fill="white" opacity="0.3"/>
<circle cx="228.55860805397873" cy="142.50934934992773" r="4.6341279216091955" fill="white" opacity="0.3"/>
<circle cx="290.5306525720045" cy="246.07999964146262" r="2.987138203415503" fill="white" opacity="0.3"/>
<circle cx="101.76610626962557" cy="36.63212747356677" r="3.458937592998666" fill="white" opacity="0.3"/>
<circle cx="71.69186773428713" cy="74.73055282644596" r="6.570469800820927" fill="white" opacity="0.3"/>
<circle cx="91.81504232351023" cy="36.30346208477646" r="6.728423282226444" fill="white" opacity="0.3"/>
<circle cx="107.02431823390799" cy="42.437967157401644" r="2.606184751655732" fill="white" opacity="0.3"/>
<circle cx="263.0463444583557" cy="98.7087027146722" r="6.166100775403744" fill="white" opacity="0.3"/>
<circle cx="3.5778127061056875" cy="110.45983738126921" r="6.191554529535483" fill="white" opacity="0.3"/>
<circle cx="375.9918869538428" cy="267.6872993651894" r="5.855664503314358" fill="white" opacity="0.3"/>
<circle cx="262.9592311467562" cy="72.87894553119413" r="4.67345848972171" fill="white" opacity="0.3"/>
<circle cx="209.91654994221517" cy="311.2532514224105" r="2.1844074020681945" fill="white" opacity="0.3"/>
<rect x="100" y="20" width="200" height="40" 
              fill="#0066CC" opacity="0.8"/>
<text x="200" y="45" text-anchor="middle" font-size="20" 
              fill="white">wine</text>
</svg>