<svg width="400" height="400" viewBox="0 0 400 400" xmlns="http://www.w3.org/2000/svg">
<defs>

        <linearGradient id="loc-sky" x1="0%" y1="0%" x2="100%" y2="100%">
          <stop offset="0%" stop-color="#87CEEB"/><stop offset="50%" stop-color="#98D8E8"/><stop offset="100%" stop-color="#B0E0E6"/>
        </linearGradient>

        <linearGradient id="loc-sunset" x1="0%" y1="0%" x2="100%" y2="100%">
          <stop offset="0%" stop-color="#FF6B6B"/><stop offset="50%" stop-color="#FFD93D"/><stop offset="100%" stop-color="#6BCB77"/>
        </linearGradient>

        <linearGradient id="loc-brass" x1="0%" y1="0%" x2="100%" y2="100%">
          <stop offset="0%" stop-color="#B8860B"/><stop offset="50%" stop-color="#DAA520"/><stop offset="100%" stop-color="#FFD700"/>
        </linearGradient>

        <filter id="loc-shadow">
          <feDropShadow dx="2" dy="2" stdDeviation="3" flood-opacity="0.3"/>
        </filter>
</defs>
<rect width="400" height="400" fill="url(#loc-sky)"/>
<ellipse cx="100" cy="106.20722546757429" rx="60" ry="20" 
                  fill="#DAA520" filter="url(#loc-shadow)"/>
<rect x="70" y="66.20722546757429" width="20" height="40" 
                  fill="#B8860B"/>
<rect x="95" y="56.20722546757429" width="25" height="50" 
                  fill="#F0E68C"/>
<rect x="120" y="71.20722546757429" width="15" height="35" 
                  fill="#B8860B"/>
<ellipse cx="250" cy="156.9687543158726" rx="60" ry="20" 
                  fill="#DAA520" filter="url(#loc-shadow)"/>
<rect x="220" y="116.96875431587259" width="20" height="40" 
                  fill="#B8860B"/>
<rect x="245" y="106.96875431587259" width="25" height="50" 
                  fill="#F0E68C"/>
<rect x="270" y="121.96875431587259" width="15" height="35" 
                  fill="#B8860B"/>
<ellipse cx="400" cy="159.55611496501683" rx="60" ry="20" 
                  fill="#DAA520" filter="url(#loc-shadow)"/>
<rect x="370" y="119.55611496501683" width="20" height="40" 
                  fill="#B8860B"/>
<rect x="395" y="109.55611496501683" width="25" height="50" 
                  fill="#F0E68C"/>
<rect x="420" y="124.55611496501683" width="15" height="35" 
                  fill="#B8860B"/>
<ellipse cx="300" cy="80" rx="40" ry="15" 
                fill="#FFD700"/>
<rect x="280" y="85" width="40" height="20" 
                fill="#DAA520"/>
<rect x="100" y="20" width="200" height="40" 
              fill="#87CEEB" opacity="0.8"/>
<text x="200" y="45" text-anchor="middle" font-size="20" 
              fill="white">aethermoor</text>
</svg>