<svg width="400" height="400" viewBox="0 0 400 400" xmlns="http://www.w3.org/2000/svg">
<defs>

        <linearGradient id="loc-ocean" x1="0%" y1="0%" x2="100%" y2="100%">
          <stop offset="0%" stop-color="#001F3F"/><stop offset="50%" stop-color="#003D7A"/><stop offset="100%" stop-color="#0066CC"/>
        </linearGradient>

        <linearGradient id="loc-depth" x1="0%" y1="0%" x2="100%" y2="100%">
          <stop offset="0%" stop-color="#000033"/><stop offset="50%" stop-color="#001F3F"/><stop offset="100%" stop-color="#003366"/>
        </linearGradient>

        <linearGradient id="loc-coral" x1="0%" y1="0%" x2="100%" y2="100%">
          <stop offset="0%" stop-color="#FF6B6B"/><stop offset="50%" stop-color="#FF8E53"/><stop offset="100%" stop-color="#FE6B8B"/>
        </linearGradient>

        <filter id="loc-shadow">
          <feDropShadow dx="2" dy="2" stdDeviation="3" flood-opacity="0.3"/>
        </filter>
</defs>
<rect width="400" height="400" fill="url(#loc-ocean)"/>
<ellipse cx="189.88586378146687" cy="263.86015940458026" rx="30.55174230178939" 
                  ry="33.4287337120516" fill="#004C99" 
                  opacity="0.7"/>
<ellipse cx="296.1047624200795" cy="289.2413830393716" rx="20.76251313846943" 
                  ry="49.21535923969925" fill="#004C99" 
                  opacity="0.7"/>
<ellipse cx="310.04313120394283" cy="319.365275512316" rx="27.325519488829695" 
                  ry="33.01967806629199" fill="#004C99" 
                  opacity="0.7"/>
<ellipse cx="251.26011616067774" cy="280.66748367262005" rx="41.82521225264354" 
                  ry="64.06154071434159" fill="#004C99" 
                  opacity="0.7"/>
<ellipse cx="176.75423973473983" cy="322.8773483282039" rx="23.83875637352801" 
                  ry="67.5682048081535" fill="#004C99" 
                  opacity="0.7"/>
<ellipse cx="135.26694890756627" cy="226.6783304852009" rx="15" ry="8" 
                  fill="#00A3E0" transform="rotate(-0.06684155340278686 135.26694890756627 226.6783304852009)"/>
<ellipse cx="375.5770254770991" cy="246.5471324339917" rx="15" ry="8" 
                  fill="#00A3E0" transform="rotate(-9.377616158060686 375.5770254770991 246.5471324339917)"/>
<ellipse cx="310.9289315972662" cy="187.46180333420006" rx="15" ry="8" 
                  fill="#00A3E0" transform="rotate(3.3041781862356387 310.9289315972662 187.46180333420006)"/>
<ellipse cx="158.3500169498134" cy="74.86414635087937" rx="15" ry="8" 
                  fill="#00A3E0" transform="rotate(-5.465089811031017 158.3500169498134 74.86414635087937)"/>
<ellipse cx="350.47958570376903" cy="58.93088745218512" rx="15" ry="8" 
                  fill="#00A3E0" transform="rotate(-9.0242069980946 350.47958570376903 58.93088745218512)"/>
<ellipse cx="97.14684696826458" cy="281.3493517306453" rx="15" ry="8" 
                  fill="#00A3E0" transform="rotate(-8.483257403071386 97.14684696826458 281.3493517306453)"/>
<ellipse cx="282.0952546761137" cy="213.38172077530464" rx="15" ry="8" 
                  fill="#00A3E0" transform="rotate(-13.302997849859144 282.0952546761137 213.38172077530464)"/>
<ellipse cx="76.62366407032425" cy="223.3378174629505" rx="15" ry="8" 
                  fill="#00A3E0" transform="rotate(-14.170132941251941 76.62366407032425 223.3378174629505)"/>
<circle cx="93.04860522077317" cy="69.31858375099993" r="6.799418976570257" fill="white" opacity="0.3"/>
<circle cx="291.07577273275615" cy="100.58694175906675" r="5.486401607892564" fill="white" opacity="0.3"/>
<circle cx="352.1336115410803" cy="210.8073154871101" r="5.054796447548593" fill="white" opacity="0.3"/>
<circle cx="230.4565209782884" cy="97.15014420744174" r="3.4690875411100315" fill="white" opacity="0.3"/>
<circle cx="270.87449287547116" cy="195.25235195022313" r="3.1441188567408602" fill="white" opacity="0.3"/>
<circle cx="320.7791110837342" cy="20.778559628805926" r="2.6108944846285653" fill="white" opacity="0.3"/>
<circle cx="220.9917365369803" cy="270.22882678600064" r="3.616316706317251" fill="white" opacity="0.3"/>
<circle cx="244.94611675668042" cy="168.6332058031448" r="5.7815506539739525" fill="white" opacity="0.3"/>
<circle cx="300.1498420559499" cy="308.4449657956434" r="6.704113578544033" fill="white" opacity="0.3"/>
<circle cx="258.48744228774655" cy="335.77659192004955" r="2.0078782158043533" fill="white" opacity="0.3"/>
<circle cx="268.7277550800455" cy="5.565769985448288" r="3.0263667185711487" fill="white" opacity="0.3"/>
<circle cx="343.39060425275034" cy="217.05529198804845" r="6.1527649892713" fill="white" opacity="0.3"/>
<circle cx="283.92634014825006" cy="376.2123856576672" r="3.9319624630805605" fill="white" opacity="0.3"/>
<circle cx="285.0794859922421" cy="379.3416571561868" r="3.3806903409285236" fill="white" opacity="0.3"/>
<circle cx="98.6579200863544" cy="67.56369223112256" r="3.7895885178021995" fill="white" opacity="0.3"/>
<circle cx="305.4414607398116" cy="244.75565040443618" r="6.6380470382486205" fill="white" opacity="0.3"/>
<circle cx="204.09068824739148" cy="210.43843799849503" r="4.00347744543211" fill="white" opacity="0.3"/>
<circle cx="381.640867235351" cy="91.72881402146488" r="2.882661276896349" fill="white" opacity="0.3"/>
<circle cx="216.6013533439195" cy="221.5667326730379" r="3.9828855213311822" fill="white" opacity="0.3"/>
<circle cx="332.93327939683724" cy="129.77609105510584" r="5.970745981935892" fill="white" opacity="0.3"/>
<rect x="100" y="20" width="200" height="40" 
              fill="#0066CC" opacity="0.8"/>
<text x="200" y="45" text-anchor="middle" font-size="20" 
              fill="white">bridgewater</text>
</svg>