<svg width="400" height="400" viewBox="0 0 400 400" xmlns="http://www.w3.org/2000/svg">
<defs>

        <linearGradient id="loc-ocean" x1="0%" y1="0%" x2="100%" y2="100%">
          <stop offset="0%" stop-color="#001F3F"/><stop offset="50%" stop-color="#003D7A"/><stop offset="100%" stop-color="#0066CC"/>
        </linearGradient>

        <linearGradient id="loc-depth" x1="0%" y1="0%" x2="100%" y2="100%">
          <stop offset="0%" stop-color="#000033"/><stop offset="50%" stop-color="#001F3F"/><stop offset="100%" stop-color="#003366"/>
        </linearGradient>

        <linearGradient id="loc-coral" x1="0%" y1="0%" x2="100%" y2="100%">
          <stop offset="0%" stop-color="#FF6B6B"/><stop offset="50%" stop-color="#FF8E53"/><stop offset="100%" stop-color="#FE6B8B"/>
        </linearGradient>

        <filter id="loc-shadow">
          <feDropShadow dx="2" dy="2" stdDeviation="3" flood-opacity="0.3"/>
        </filter>
</defs>
<rect width="400" height="400" fill="url(#loc-ocean)"/>
<ellipse cx="321.7064703434486" cy="275.70839991644453" rx="23.596078493509186" 
                  ry="64.76004837014963" fill="#004C99" 
                  opacity="0.7"/>
<ellipse cx="257.22615202435776" cy="320.421550361511" rx="28.76645916019094" 
                  ry="54.04155061898413" fill="#004C99" 
                  opacity="0.7"/>
<ellipse cx="65.56510830229207" cy="345.36872227017903" rx="37.15598352650622" 
                  ry="60.384861748331204" fill="#004C99" 
                  opacity="0.7"/>
<ellipse cx="347.64635831604363" cy="299.278013509723" rx="37.95779982491091" 
                  ry="63.10295006722852" fill="#004C99" 
                  opacity="0.7"/>
<ellipse cx="34.301060267494776" cy="289.59608839176065" rx="27.194960222639164" 
                  ry="55.0835372379067" fill="#004C99" 
                  opacity="0.7"/>
<ellipse cx="111.73209444322652" cy="285.4035444438689" rx="15" ry="8" 
                  fill="#00A3E0" transform="rotate(1.6019297035541946 111.73209444322652 285.4035444438689)"/>
<ellipse cx="96.97344216677423" cy="101.09055975548401" rx="15" ry="8" 
                  fill="#00A3E0" transform="rotate(13.26244316032616 96.97344216677423 101.09055975548401)"/>
<ellipse cx="153.8910256300054" cy="50.14654073563386" rx="15" ry="8" 
                  fill="#00A3E0" transform="rotate(6.626897530865989 153.8910256300054 50.14654073563386)"/>
<ellipse cx="6.47715265642308" cy="54.423704664591575" rx="15" ry="8" 
                  fill="#00A3E0" transform="rotate(11.318671360499525 6.47715265642308 54.423704664591575)"/>
<ellipse cx="250.88402102772886" cy="68.90972780169395" rx="15" ry="8" 
                  fill="#00A3E0" transform="rotate(5.124897142481537 250.88402102772886 68.90972780169395)"/>
<ellipse cx="354.22474614830935" cy="83.89966495613214" rx="15" ry="8" 
                  fill="#00A3E0" transform="rotate(-3.4171213690933584 354.22474614830935 83.89966495613214)"/>
<ellipse cx="150.87032890075608" cy="304.2104668969817" rx="15" ry="8" 
                  fill="#00A3E0" transform="rotate(12.415817923381205 150.87032890075608 304.2104668969817)"/>
<ellipse cx="207.12445779974695" cy="234.39900653710177" rx="15" ry="8" 
                  fill="#00A3E0" transform="rotate(11.42680395874131 207.12445779974695 234.39900653710177)"/>
<circle cx="387.6252421731445" cy="299.74411246412626" r="4.454426718206289" fill="white" opacity="0.3"/>
<circle cx="196.00051911125826" cy="316.31096800152545" r="2.1595030705551452" fill="white" opacity="0.3"/>
<circle cx="192.4001085517054" cy="49.57215426377757" r="3.144149522438957" fill="white" opacity="0.3"/>
<circle cx="182.57714844375062" cy="329.7496134938288" r="6.730788669298069" fill="white" opacity="0.3"/>
<circle cx="359.9193944395004" cy="311.37508510868923" r="5.282300552994766" fill="white" opacity="0.3"/>
<circle cx="121.62814785100831" cy="210.2995580624435" r="5.267073882804036" fill="white" opacity="0.3"/>
<circle cx="356.3906084326485" cy="295.2544211696569" r="5.363050196362201" fill="white" opacity="0.3"/>
<circle cx="61.5302189538971" cy="135.1419860823501" r="3.2923587561065073" fill="white" opacity="0.3"/>
<circle cx="8.68172978006716" cy="238.42357978149994" r="2.040818227120881" fill="white" opacity="0.3"/>
<circle cx="112.22433397982306" cy="366.85827655017863" r="4.85100235807605" fill="white" opacity="0.3"/>
<circle cx="170.8051246373904" cy="227.35120899258376" r="3.6920320187659117" fill="white" opacity="0.3"/>
<circle cx="366.60023587709907" cy="77.28908309459311" r="3.1369466080077997" fill="white" opacity="0.3"/>
<circle cx="24.799538518736554" cy="235.38206281219365" r="6.924724934087447" fill="white" opacity="0.3"/>
<circle cx="175.3563930716745" cy="343.0906935685989" r="6.73410508081627" fill="white" opacity="0.3"/>
<circle cx="142.36476177773122" cy="166.97968312251268" r="4.115512112073401" fill="white" opacity="0.3"/>
<circle cx="59.97138636609556" cy="63.22652739976085" r="3.356898721856974" fill="white" opacity="0.3"/>
<circle cx="338.57863950444107" cy="73.33339213447027" r="5.554508247503551" fill="white" opacity="0.3"/>
<circle cx="245.32184713940035" cy="183.23652105846807" r="3.23163988649925" fill="white" opacity="0.3"/>
<circle cx="219.34050436446935" cy="41.980822699852325" r="2.4436174035823552" fill="white" opacity="0.3"/>
<circle cx="18.956852012582814" cy="16.389563850112854" r="4.3143306005184145" fill="white" opacity="0.3"/>
<rect x="100" y="20" width="200" height="40" 
              fill="#0066CC" opacity="0.8"/>
<text x="200" y="45" text-anchor="middle" font-size="20" 
              fill="white">scholar</text>
</svg>