<svg width="400" height="400" viewBox="0 0 400 400" xmlns="http://www.w3.org/2000/svg">
<defs>

        <linearGradient id="loc-ocean" x1="0%" y1="0%" x2="100%" y2="100%">
          <stop offset="0%" stop-color="#001F3F"/><stop offset="50%" stop-color="#003D7A"/><stop offset="100%" stop-color="#0066CC"/>
        </linearGradient>

        <linearGradient id="loc-depth" x1="0%" y1="0%" x2="100%" y2="100%">
          <stop offset="0%" stop-color="#000033"/><stop offset="50%" stop-color="#001F3F"/><stop offset="100%" stop-color="#003366"/>
        </linearGradient>

        <linearGradient id="loc-coral" x1="0%" y1="0%" x2="100%" y2="100%">
          <stop offset="0%" stop-color="#FF6B6B"/><stop offset="50%" stop-color="#FF8E53"/><stop offset="100%" stop-color="#FE6B8B"/>
        </linearGradient>

        <filter id="loc-shadow">
          <feDropShadow dx="2" dy="2" stdDeviation="3" flood-opacity="0.3"/>
        </filter>
</defs>
<rect width="400" height="400" fill="url(#loc-ocean)"/>
<ellipse cx="27.304646967404356" cy="283.3519393255109" rx="26.99615777002097" 
                  ry="31.557968125413733" fill="#004C99" 
                  opacity="0.7"/>
<ellipse cx="230.06351617388626" cy="261.30709081034115" rx="44.35107737756914" 
                  ry="33.39765655756187" fill="#004C99" 
                  opacity="0.7"/>
<ellipse cx="299.3499468779844" cy="319.0958870009565" rx="26.734263782735667" 
                  ry="61.87607027794686" fill="#004C99" 
                  opacity="0.7"/>
<ellipse cx="97.88297635070276" cy="285.007770882326" rx="31.252016919911622" 
                  ry="62.83220328892706" fill="#004C99" 
                  opacity="0.7"/>
<ellipse cx="336.4029596386564" cy="337.8777610886755" rx="21.082098802998818" 
                  ry="46.4879536575132" fill="#004C99" 
                  opacity="0.7"/>
<ellipse cx="263.041915167391" cy="258.0609359321541" rx="15" ry="8" 
                  fill="#00A3E0" transform="rotate(-13.83606053550688 263.041915167391 258.0609359321541)"/>
<ellipse cx="22.122941595408776" cy="102.97141675291422" rx="15" ry="8" 
                  fill="#00A3E0" transform="rotate(6.673102172800512 22.122941595408776 102.97141675291422)"/>
<ellipse cx="214.73775444082315" cy="206.1028017659052" rx="15" ry="8" 
                  fill="#00A3E0" transform="rotate(-2.4317321638806746 214.73775444082315 206.1028017659052)"/>
<ellipse cx="377.7484476165015" cy="148.214189503216" rx="15" ry="8" 
                  fill="#00A3E0" transform="rotate(-10.601003661017995 377.7484476165015 148.214189503216)"/>
<ellipse cx="238.35320152358125" cy="130.13095763301163" rx="15" ry="8" 
                  fill="#00A3E0" transform="rotate(1.8225800720767005 238.35320152358125 130.13095763301163)"/>
<ellipse cx="332.9163609048997" cy="287.7901159872836" rx="15" ry="8" 
                  fill="#00A3E0" transform="rotate(7.4102376506696075 332.9163609048997 287.7901159872836)"/>
<ellipse cx="329.0663553954002" cy="341.8658821867036" rx="15" ry="8" 
                  fill="#00A3E0" transform="rotate(4.57600432353442 329.0663553954002 341.8658821867036)"/>
<ellipse cx="211.25787966243098" cy="184.05188280526272" rx="15" ry="8" 
                  fill="#00A3E0" transform="rotate(-2.4839378946950443 211.25787966243098 184.05188280526272)"/>
<circle cx="21.26961149409108" cy="148.79332639643167" r="3.39208679524846" fill="white" opacity="0.3"/>
<circle cx="207.00715109710842" cy="204.86532452565078" r="4.678299281398509" fill="white" opacity="0.3"/>
<circle cx="332.1812090731075" cy="176.28260504832855" r="3.605318166510805" fill="white" opacity="0.3"/>
<circle cx="250.83072230561308" cy="367.97767155234646" r="3.4944261488104797" fill="white" opacity="0.3"/>
<circle cx="359.2932825791853" cy="331.94482270673956" r="5.064836667401771" fill="white" opacity="0.3"/>
<circle cx="294.91042869958653" cy="243.86566808066675" r="5.258460477170215" fill="white" opacity="0.3"/>
<circle cx="311.07726056452736" cy="129.34561726024825" r="4.956301575882399" fill="white" opacity="0.3"/>
<circle cx="47.75447157107702" cy="66.14249415600875" r="3.2917068388780866" fill="white" opacity="0.3"/>
<circle cx="95.53071657834708" cy="72.66322700339573" r="6.994610501705311" fill="white" opacity="0.3"/>
<circle cx="67.11006086213777" cy="194.41283515691285" r="3.8827570764762527" fill="white" opacity="0.3"/>
<circle cx="131.9755710217469" cy="192.3328736248588" r="5.213832704182076" fill="white" opacity="0.3"/>
<circle cx="338.19780497120627" cy="306.9923744592021" r="2.999525895231524" fill="white" opacity="0.3"/>
<circle cx="323.7201319042724" cy="152.1510417359455" r="2.0564138141371435" fill="white" opacity="0.3"/>
<circle cx="84.0548676036549" cy="103.1430462681286" r="4.35847536249145" fill="white" opacity="0.3"/>
<circle cx="93.67156050924885" cy="208.9542281879688" r="4.518745210816354" fill="white" opacity="0.3"/>
<circle cx="0.9130965650157474" cy="46.618157198473355" r="4.954693161952893" fill="white" opacity="0.3"/>
<circle cx="283.21214911053755" cy="321.00829770158043" r="3.763793310373025" fill="white" opacity="0.3"/>
<circle cx="245.60432621510705" cy="73.18119587714045" r="5.60806050537669" fill="white" opacity="0.3"/>
<circle cx="159.22436482108316" cy="90.59919801614042" r="2.045674066732977" fill="white" opacity="0.3"/>
<circle cx="228.02866294316559" cy="294.6549026663554" r="6.394578217515958" fill="white" opacity="0.3"/>
<rect x="100" y="20" width="200" height="40" 
              fill="#0066CC" opacity="0.8"/>
<text x="200" y="45" text-anchor="middle" font-size="20" 
              fill="white">stillwater</text>
</svg>