<svg width="400" height="400" viewBox="0 0 400 400" xmlns="http://www.w3.org/2000/svg">
<defs>

        <linearGradient id="loc-ocean" x1="0%" y1="0%" x2="100%" y2="100%">
          <stop offset="0%" stop-color="#001F3F"/><stop offset="50%" stop-color="#003D7A"/><stop offset="100%" stop-color="#0066CC"/>
        </linearGradient>

        <linearGradient id="loc-depth" x1="0%" y1="0%" x2="100%" y2="100%">
          <stop offset="0%" stop-color="#000033"/><stop offset="50%" stop-color="#001F3F"/><stop offset="100%" stop-color="#003366"/>
        </linearGradient>

        <linearGradient id="loc-coral" x1="0%" y1="0%" x2="100%" y2="100%">
          <stop offset="0%" stop-color="#FF6B6B"/><stop offset="50%" stop-color="#FF8E53"/><stop offset="100%" stop-color="#FE6B8B"/>
        </linearGradient>

        <filter id="loc-shadow">
          <feDropShadow dx="2" dy="2" stdDeviation="3" flood-opacity="0.3"/>
        </filter>
</defs>
<rect width="400" height="400" fill="url(#loc-ocean)"/>
<ellipse cx="393.4398380873771" cy="330.87402905215316" rx="31.524324399747613" 
                  ry="41.02111853950454" fill="#004C99" 
                  opacity="0.7"/>
<ellipse cx="78.75872081604926" cy="259.49515610124126" rx="26.61287878252253" 
                  ry="56.55454855745914" fill="#004C99" 
                  opacity="0.7"/>
<ellipse cx="173.07891833589272" cy="269.436657007763" rx="40.035454174534316" 
                  ry="67.66286652178832" fill="#004C99" 
                  opacity="0.7"/>
<ellipse cx="163.63245012139092" cy="268.0879082525329" rx="21.66981714617474" 
                  ry="63.67551341738026" fill="#004C99" 
                  opacity="0.7"/>
<ellipse cx="56.31742434440077" cy="264.25239853323853" rx="24.51550190806669" 
                  ry="47.855418013487125" fill="#004C99" 
                  opacity="0.7"/>
<ellipse cx="2.7991453219456286" cy="300.5695217798133" rx="15" ry="8" 
                  fill="#00A3E0" transform="rotate(3.9944009584006004 2.7991453219456286 300.5695217798133)"/>
<ellipse cx="163.01041237875987" cy="286.6764073759752" rx="15" ry="8" 
                  fill="#00A3E0" transform="rotate(-14.44324619982249 163.01041237875987 286.6764073759752)"/>
<ellipse cx="371.1622317825563" cy="217.0402875903445" rx="15" ry="8" 
                  fill="#00A3E0" transform="rotate(12.24457220391622 371.1622317825563 217.0402875903445)"/>
<ellipse cx="220.07259916185387" cy="313.9573879917102" rx="15" ry="8" 
                  fill="#00A3E0" transform="rotate(14.347130985137515 220.07259916185387 313.9573879917102)"/>
<ellipse cx="199.04133755587017" cy="75.75727342063138" rx="15" ry="8" 
                  fill="#00A3E0" transform="rotate(0.6310198452986846 199.04133755587017 75.75727342063138)"/>
<ellipse cx="231.14390437726394" cy="102.56211380548336" rx="15" ry="8" 
                  fill="#00A3E0" transform="rotate(11.6658545572642 231.14390437726394 102.56211380548336)"/>
<ellipse cx="103.44884644965835" cy="234.1182435826747" rx="15" ry="8" 
                  fill="#00A3E0" transform="rotate(11.837129213387094 103.44884644965835 234.1182435826747)"/>
<ellipse cx="165.00897733824925" cy="289.03221889086524" rx="15" ry="8" 
                  fill="#00A3E0" transform="rotate(9.671174672828606 165.00897733824925 289.03221889086524)"/>
<circle cx="35.75120263200509" cy="330.61790913227725" r="4.653080380251689" fill="white" opacity="0.3"/>
<circle cx="273.47869785194615" cy="375.2138541922889" r="6.592153253578193" fill="white" opacity="0.3"/>
<circle cx="121.1371583357442" cy="333.4949232570707" r="6.144057214183567" fill="white" opacity="0.3"/>
<circle cx="232.46729774710886" cy="110.10804298837206" r="3.703009320323665" fill="white" opacity="0.3"/>
<circle cx="239.5171895650567" cy="123.89733813533894" r="3.6968759914746556" fill="white" opacity="0.3"/>
<circle cx="267.2920559963633" cy="270.00819765830806" r="6.419327912856011" fill="white" opacity="0.3"/>
<circle cx="46.03006020083935" cy="120.982155644275" r="6.243375382746237" fill="white" opacity="0.3"/>
<circle cx="291.26978782486515" cy="249.61585941082106" r="2.8626407606285817" fill="white" opacity="0.3"/>
<circle cx="397.8175307521853" cy="320.33687228337675" r="4.864848154637517" fill="white" opacity="0.3"/>
<circle cx="55.94808988060564" cy="319.463753156026" r="3.546541230244311" fill="white" opacity="0.3"/>
<circle cx="250.3869599466391" cy="122.13667058030606" r="4.45712612722646" fill="white" opacity="0.3"/>
<circle cx="76.40204485613692" cy="254.75458765969958" r="2.5017474535226207" fill="white" opacity="0.3"/>
<circle cx="263.73863563699643" cy="345.3067029863788" r="6.765598494071876" fill="white" opacity="0.3"/>
<circle cx="95.1436556678638" cy="157.7208839207173" r="4.686729919178346" fill="white" opacity="0.3"/>
<circle cx="196.2466509823778" cy="184.12292036247658" r="3.373894396459239" fill="white" opacity="0.3"/>
<circle cx="308.25185603951473" cy="62.27874431381197" r="4.503810153286327" fill="white" opacity="0.3"/>
<circle cx="200.72646878914645" cy="134.19872925580916" r="2.4050390449321997" fill="white" opacity="0.3"/>
<circle cx="369.2221010238735" cy="351.1234328688052" r="5.231321967949529" fill="white" opacity="0.3"/>
<circle cx="170.83884042193625" cy="41.856614300936236" r="6.646827938169374" fill="white" opacity="0.3"/>
<circle cx="284.8871829808551" cy="165.25789247460273" r="5.2806911887833135" fill="white" opacity="0.3"/>
<rect x="100" y="20" width="200" height="40" 
              fill="#0066CC" opacity="0.8"/>
<text x="200" y="45" text-anchor="middle" font-size="20" 
              fill="white">waters</text>
</svg>