<svg width="400" height="400" viewBox="0 0 400 400" xmlns="http://www.w3.org/2000/svg">
<defs>

        <linearGradient id="loc-canopy" x1="0%" y1="0%" x2="100%" y2="100%">
          <stop offset="0%" stop-color="#006400"/><stop offset="50%" stop-color="#228B22"/><stop offset="100%" stop-color="#32CD32"/>
        </linearGradient>

        <linearGradient id="loc-moss" x1="0%" y1="0%" x2="100%" y2="100%">
          <stop offset="0%" stop-color="#8FBC8F"/><stop offset="50%" stop-color="#9ACD32"/><stop offset="100%" stop-color="#ADFF2F"/>
        </linearGradient>

        <linearGradient id="loc-bark" x1="0%" y1="0%" x2="100%" y2="100%">
          <stop offset="0%" stop-color="#8B4513"/><stop offset="50%" stop-color="#A0522D"/><stop offset="100%" stop-color="#D2691E"/>
        </linearGradient>

        <filter id="loc-shadow">
          <feDropShadow dx="2" dy="2" stdDeviation="3" flood-opacity="0.3"/>
        </filter>
</defs>
<rect width="400" height="400" fill="url(#loc-canopy)"/>
<rect x="194.9838639635687" y="348.3401172455534" width="10" height="136.12157399745684" 
                  fill="#8FBC8F"/>
<circle cx="199.9838639635687" cy="328.3401172455534" r="30" fill="#32CD32"/>
<circle cx="184.9838639635687" cy="338.3401172455534" r="25" fill="#00FF00"/>
<circle cx="214.9838639635687" cy="338.3401172455534" r="25" fill="#00FF00"/>
<rect x="159.54217881915284" y="328.1632468375696" width="10" height="131.22154891063423" 
                  fill="#8FBC8F"/>
<circle cx="164.54217881915284" cy="308.1632468375696" r="30" fill="#32CD32"/>
<circle cx="149.54217881915284" cy="318.1632468375696" r="25" fill="#00FF00"/>
<circle cx="179.54217881915284" cy="318.1632468375696" r="25" fill="#00FF00"/>
<rect x="63.79791816142129" y="213.5844024422313" width="10" height="100.90247415764182" 
                  fill="#8FBC8F"/>
<circle cx="68.7979181614213" cy="193.5844024422313" r="30" fill="#32CD32"/>
<circle cx="53.79791816142129" cy="203.5844024422313" r="25" fill="#00FF00"/>
<circle cx="83.7979181614213" cy="203.5844024422313" r="25" fill="#00FF00"/>
<rect x="64.37533735030415" y="279.7423270465327" width="10" height="120.1576290674642" 
                  fill="#8FBC8F"/>
<circle cx="69.37533735030415" cy="259.7423270465327" r="30" fill="#32CD32"/>
<circle cx="54.37533735030415" cy="269.7423270465327" r="25" fill="#00FF00"/>
<circle cx="84.37533735030415" cy="269.7423270465327" r="25" fill="#00FF00"/>
<rect x="287.5766014193445" y="263.95686426675155" width="10" height="68.22099878127203" 
                  fill="#8FBC8F"/>
<circle cx="292.5766014193445" cy="243.95686426675155" r="30" fill="#32CD32"/>
<circle cx="277.5766014193445" cy="253.95686426675155" r="25" fill="#00FF00"/>
<circle cx="307.5766014193445" cy="253.95686426675155" r="25" fill="#00FF00"/>
<rect x="12.999053573859626" y="242.3877421031156" width="10" height="103.02303513516682" 
                  fill="#8FBC8F"/>
<circle cx="17.999053573859626" cy="222.3877421031156" r="30" fill="#32CD32"/>
<circle cx="2.9990535738596265" cy="232.3877421031156" r="25" fill="#00FF00"/>
<circle cx="32.99905357385963" cy="232.3877421031156" r="25" fill="#00FF00"/>
<rect x="58.9396710197734" y="324.1807600477877" width="10" height="131.02408318745265" 
                  fill="#8FBC8F"/>
<circle cx="63.9396710197734" cy="304.1807600477877" r="30" fill="#32CD32"/>
<circle cx="48.9396710197734" cy="314.1807600477877" r="25" fill="#00FF00"/>
<circle cx="78.9396710197734" cy="314.1807600477877" r="25" fill="#00FF00"/>
<rect x="314.7011954717119" y="213.79297769211306" width="10" height="62.9326360504465" 
                  fill="#8FBC8F"/>
<circle cx="319.7011954717119" cy="193.79297769211306" r="30" fill="#32CD32"/>
<circle cx="304.7011954717119" cy="203.79297769211306" r="25" fill="#00FF00"/>
<circle cx="334.7011954717119" cy="203.79297769211306" r="25" fill="#00FF00"/>
<rect x="132.06062858680124" y="307.10543226923653" width="10" height="72.55620206282997" 
                  fill="#8FBC8F"/>
<circle cx="137.06062858680124" cy="287.10543226923653" r="30" fill="#32CD32"/>
<circle cx="122.06062858680124" cy="297.10543226923653" r="25" fill="#00FF00"/>
<circle cx="152.06062858680124" cy="297.10543226923653" r="25" fill="#00FF00"/>
<rect x="31.573193678441825" y="345.75277172436716" width="10" height="95.19495370917778" 
                  fill="#8FBC8F"/>
<circle cx="36.573193678441825" cy="325.75277172436716" r="30" fill="#32CD32"/>
<circle cx="21.573193678441825" cy="335.75277172436716" r="25" fill="#00FF00"/>
<circle cx="51.573193678441825" cy="335.75277172436716" r="25" fill="#00FF00"/>
<rect x="100" y="20" width="200" height="40" 
              fill="#228B22" opacity="0.8"/>
<text x="200" y="45" text-anchor="middle" font-size="20" 
              fill="white">constituencies</text>
</svg>